SplineFontDB: 3.0
FontName: Oswald-Medium
FullName: Oswald Medium
FamilyName: Oswald
Weight: Medium
Copyright: Copyright (c) 2010-13 by Vernon Adams
Version: 3.0
ItalicAngle: 0
UnderlinePosition: -77
UnderlineWidth: 40
Ascent: 1638
Descent: 410
sfntRevision: 0x00030000
LayerCount: 2
Layer: 0 1 "Back"  1
Layer: 1 1 "Fore"  0
XUID: [1021 653 12281407 778214]
FSType: 0
OS2Version: 4
OS2_WeightWidthSlopeOnly: 0
OS2_UseTypoMetrics: 1
CreationTime: 1372384722
ModificationTime: 1372775371
PfmFamily: 17
TTFWeight: 500
TTFWidth: 5
LineGap: 0
VLineGap: 0
Panose: 2 0 6 3 0 0 0 0 0 0
OS2TypoAscent: 2233
OS2TypoAOffset: 0
OS2TypoDescent: -548
OS2TypoDOffset: 0
OS2TypoLinegap: 0
OS2WinAscent: 2233
OS2WinAOffset: 0
OS2WinDescent: 548
OS2WinDOffset: 0
HheadAscent: 2233
HheadAOffset: 0
HheadDescent: -548
HheadDOffset: 0
OS2SubXSize: 1331
OS2SubYSize: 1433
OS2SubXOff: 0
OS2SubYOff: 286
OS2SupXSize: 1331
OS2SupYSize: 1433
OS2SupXOff: 0
OS2SupYOff: 983
OS2StrikeYSize: 102
OS2StrikeYPos: 530
OS2Vendor: 'newt'
OS2CodePages: 20000097.00000000
OS2UnicodeRanges: a00002ef.4000204b.00000000.00000000
Lookup: 258 0 0 "'kern' Horizontal Kerning lookup 0"  {"'kern' Horizontal Kerning lookup 0 kerning class 0"  "'kern' Horizontal Kerning lookup 0 per glyph data 1"  } ['kern' ('DFLT' <'dflt' > 'cyrl' <'dflt' > 'latn' <'dflt' > ) ]
Lookup: 260 0 0 "'mark' Mark Positioning lookup 1"  {"'mark' Mark Positioning lookup 1 subtable"  } ['mark' ('DFLT' <'dflt' > 'cyrl' <'dflt' > 'grek' <'dflt' > 'latn' <'dflt' > ) ]
MarkAttachClasses: 1
DEI: 91125
KernClass2: 44 59 "'kern' Horizontal Kerning lookup 0 kerning class 0" 
 89 A Aacute Abreve Acircumflex Adieresis Agrave Amacron Aogonek Aring Atilde uni0200 uni0202
 9 B uni1E02
 16 D Dcaron uni1E0A
 94 E Eacute Ebreve Ecaron Ecircumflex Edieresis Edotaccent Egrave Emacron Eogonek uni0204 uni0206
 9 F uni1E1E
 52 G Gbreve Gcircumflex Gcommaaccent Gdotaccent uni01F4
 14 K Kcommaaccent
 28 L Lacute Lcaron Lcommaaccent
 9 P uni1E56

StartChar: A
Encoding: 65 65 0
Width: 1065
GlyphClass: 2
Flags: W
AnchorPoint: "Anchor-0" 881 0 basechar 0
LayerCount: 2
UndoRedoHistory
Layer: 1
Undoes
EndUndoes
Redoes
EndRedoes
EndUndoRedoHistory
Fore
SplineSet
423 582 m 1,0,-1
 645 582 l 1,1,-1
 534 1263 l 1,2,-1
 423 582 l 1,0,-1
38 0 m 1,3,-1
 375 1658 l 1,4,-1
 690 1658 l 1,5,-1
 1026 0 l 1,6,-1
 745 0 l 1,7,-1
 678 385 l 1,8,-1
 391 385 l 1,9,-1
 323 0 l 1,10,-1
 38 0 l 1,3,-1
EndSplineSet
EndChar

StartChar: AE
Encoding: 198 198 1
Width: 1366
GlyphClass: 2
Flags: W
LayerCount: 2
UndoRedoHistory
Layer: 1
Undoes
EndUndoes
Redoes
EndRedoes
EndUndoRedoHistory
Fore
SplineSet
447 586 m 1,0,-1
 659 586 l 1,1,-1
 659 1150 l 1,2,-1
 447 586 l 1,0,-1
-79 0 m 1,3,-1
 635 1648 l 1,4,-1
 1316 1648 l 1,5,-1
 1316 1438 l 1,6,-1
 930 1438 l 1,7,-1
 930 964 l 1,8,-1
 1205 964 l 1,9,-1
 1205 751 l 1,10,-1
 930 751 l 1,11,-1
 930 209 l 1,12,-1
 1316 209 l 1,13,-1
 1316 0 l 1,14,-1
 659 0 l 1,15,-1
 659 384 l 1,16,-1
 376 384 l 1,17,-1
 215 0 l 1,18,-1
 -79 0 l 1,3,-1
EndSplineSet
EndChar

StartChar: B
Encoding: 66 66 11
Width: 1137
GlyphClass: 2
Flags: W
LayerCount: 2
UndoRedoHistory
Layer: 1
Undoes
EndUndoes
Redoes
EndRedoes
EndUndoRedoHistory
Fore
SplineSet
426 982 m 1,0,-1
 520 982 l 2,1,2
 653 982 653 982 703 1039 c 128,-1,3
 753 1096 753 1096 753 1231 c 0,4,5
 753 1301 753 1301 736.5 1344.5 c 128,-1,6
 720 1388 720 1388 681 1410 c 128,-1,7
 642 1432 642 1432 594.5 1439 c 128,-1,8
 547 1446 547 1446 468 1446 c 2,9,-1
 426 1446 l 1,10,-1
 426 982 l 1,0,-1
426 213 m 1,11,-1
 537 213 l 2,12,13
 672 213 672 213 724 276 c 128,-1,14
 776 339 776 339 776 484 c 0,15,16
 776 634 776 634 717.5 701.5 c 128,-1,17
 659 769 659 769 521 769 c 2,18,-1
 426 769 l 1,19,-1
 426 213 l 1,11,-1
124 0 m 1,20,-1
 124 1658 l 1,21,-1
 530 1658 l 2,22,23
 645 1658 645 1658 730.5 1637.5 c 128,-1,24
 816 1617 816 1617 882.5 1569.5 c 128,-1,25
 949 1522 949 1522 983 1438 c 128,-1,26
 1017 1354 1017 1354 1016 1235 c 0,27,28
 1015 928 1015 928 772 892 c 1,29,30
 919 864 919 864 991.5 763.5 c 128,-1,31
 1064 663 1064 663 1065 481 c 0,32,33
 1066 245 1066 245 947 122.5 c 128,-1,34
 828 0 828 0 600 0 c 2,35,-1
 124 0 l 1,20,-1
EndSplineSet
EndChar

StartChar: C
Encoding: 67 67 12
Width: 1102
GlyphClass: 2
Flags: W
AnchorPoint: "Anchor-1" 480 0 basechar 0
LayerCount: 2
UndoRedoHistory
Layer: 1
Undoes
EndUndoes
Redoes
EndRedoes
EndUndoRedoHistory
Fore
SplineSet
569 -20 m 0,0,1
 462 -20 462 -20 380 7 c 128,-1,2
 298 34 298 34 244.5 82 c 128,-1,3
 191 130 191 130 157.5 201 c 128,-1,4
 124 272 124 272 110.5 353.5 c 128,-1,5
 97 435 97 435 97 537 c 2,6,-1
 97 1115 l 2,7,8
 97 1223 97 1223 111 1306.5 c 128,-1,9
 125 1390 125 1390 158 1461.5 c 128,-1,10
 191 1533 191 1533 244.5 1579 c 128,-1,11
 298 1625 298 1625 379.5 1651 c 128,-1,12
 461 1677 461 1677 569 1677 c 0,13,14
 693 1677 693 1677 781 1644 c 128,-1,15
 869 1611 869 1611 920 1547 c 128,-1,16
 971 1483 971 1483 994 1397.5 c 128,-1,17
 1017 1312 1017 1312 1017 1198 c 2,18,-1
 1017 1056 l 1,19,-1
 726 1056 l 1,20,-1
 726 1197 l 2,21,22
 726 1321 726 1321 713 1364 c 0,23,24
 687 1448 687 1448 586 1454 c 0,25,26
 578 1454 578 1454 570 1454 c 0,27,28
 532 1454 532 1454 503.5 1445 c 128,-1,29
 475 1436 475 1436 457 1416.5 c 128,-1,30
 439 1397 439 1397 428 1375 c 128,-1,31
 417 1353 417 1353 411.5 1317.5 c 128,-1,32
 406 1282 406 1282 404.5 1252 c 128,-1,33
 403 1222 403 1222 403 1176 c 2,34,-1
 403 474 l 2,35,36
 403 328 403 328 439.5 266 c 128,-1,37
 476 204 476 204 570 204 c 0,38,39
 602 204 602 204 626.5 211.5 c 128,-1,40
 651 219 651 219 667.5 230.5 c 128,-1,41
 684 242 684 242 695.5 263.5 c 128,-1,42
 707 285 707 285 713 303.5 c 128,-1,43
 719 322 719 322 722 355 c 128,-1,44
 725 388 725 388 725.5 411 c 128,-1,45
 726 434 726 434 726 474 c 2,46,-1
 726 622 l 1,47,-1
 1017 622 l 1,48,-1
 1017 486 l 2,49,50
 1017 393 1017 393 1004 319 c 128,-1,51
 991 245 991 245 959.5 180 c 128,-1,52
 928 115 928 115 878 72 c 128,-1,53
 828 29 828 29 750 4.5 c 128,-1,54
 672 -20 672 -20 569 -20 c 0,0,1
EndSplineSet
EndChar

StartChar: D
Encoding: 68 68 18
Width: 1133
GlyphClass: 2
Flags: W
LayerCount: 2
UndoRedoHistory
Layer: 1
Undoes
EndUndoes
Redoes
EndRedoes
EndUndoRedoHistory
Fore
SplineSet
124 0 m 1,0,-1
 124 1658 l 1,1,-1
 510 1658 l 2,2,3
 660 1658 660 1658 761 1628 c 128,-1,4
 862 1598 862 1598 923 1533 c 128,-1,5
 984 1468 984 1468 1009.5 1373.5 c 128,-1,6
 1035 1279 1035 1279 1035 1141 c 2,7,-1
 1035 543 l 2,8,9
 1035 401 1035 401 1009 302 c 128,-1,10
 983 203 983 203 923.5 134 c 128,-1,11
 864 65 864 65 765 32.5 c 128,-1,12
 666 0 666 0 522 0 c 2,13,-1
 124 0 l 1,0,-1
426 212 m 1,14,-1
 512 212 l 2,15,16
 557 212 557 212 591 220 c 128,-1,17
 625 228 625 228 648 239 c 128,-1,18
 671 250 671 250 686.5 275 c 128,-1,19
 702 300 702 300 710 321 c 128,-1,20
 718 342 718 342 722 384.5 c 128,-1,21
 726 427 726 427 727 457 c 128,-1,22
 728 487 728 487 728 546 c 2,23,-1
 728 1152 l 2,24,25
 728 1211 728 1211 726 1247 c 128,-1,26
 724 1283 724 1283 716.5 1319.5 c 128,-1,27
 709 1356 709 1356 694.5 1376 c 128,-1,28
 680 1396 680 1396 656 1412.5 c 128,-1,29
 632 1429 632 1429 596 1435.5 c 128,-1,30
 560 1442 560 1442 509 1442 c 2,31,-1
 426 1442 l 1,32,-1
 426 212 l 1,14,-1
EndSplineSet
EndChar

StartChar: Dcroat
Encoding: 272 272 20
Width: 1139
GlyphClass: 2
Flags: W
LayerCount: 2
UndoRedoHistory
Layer: 1
Undoes
EndUndoes
Redoes
EndRedoes
EndUndoRedoHistory
Fore
SplineSet
131 0 m 1,0,-1
 131 778 l 1,1,-1
 32 778 l 1,2,-1
 32 931 l 1,3,-1
 131 931 l 1,4,-1
 131 1658 l 1,5,-1
 517 1658 l 2,6,7
 667 1658 667 1658 768 1628 c 128,-1,8
 869 1598 869 1598 930 1533 c 128,-1,9
 991 1468 991 1468 1016.5 1373.5 c 128,-1,10
 1042 1279 1042 1279 1042 1141 c 2,11,-1
 1042 543 l 2,12,13
 1042 401 1042 401 1016 302 c 128,-1,14
 990 203 990 203 930.5 134 c 128,-1,15
 871 65 871 65 772 32.5 c 128,-1,16
 673 0 673 0 529 0 c 2,17,-1
 131 0 l 1,0,-1
429 212 m 1,18,-1
 522 212 l 2,19,20
 567 212 567 212 601 220 c 128,-1,21
 635 228 635 228 658 239 c 128,-1,22
 681 250 681 250 696.5 275 c 128,-1,23
 712 300 712 300 720 321 c 128,-1,24
 728 342 728 342 732 384.5 c 128,-1,25
 736 427 736 427 737 457 c 128,-1,26
 738 487 738 487 738 546 c 2,27,-1
 738 1152 l 2,28,29
 738 1211 738 1211 736 1247 c 128,-1,30
 734 1283 734 1283 726.5 1319.5 c 128,-1,31
 719 1356 719 1356 704.5 1376 c 128,-1,32
 690 1396 690 1396 666 1412.5 c 128,-1,33
 642 1429 642 1429 606 1435.5 c 128,-1,34
 570 1442 570 1442 519 1442 c 2,35,-1
 429 1442 l 1,36,-1
 429 931 l 1,37,-1
 536 931 l 1,38,-1
 536 778 l 1,39,-1
 429 778 l 1,40,-1
 429 212 l 1,18,-1
EndSplineSet
EndChar

StartChar: E
Encoding: 69 69 21
Width: 873
GlyphClass: 2
Flags: W
AnchorPoint: "Anchor-0" 551 0 basechar 0
LayerCount: 2
UndoRedoHistory
Layer: 1
Undoes
EndUndoes
Redoes
EndRedoes
EndUndoRedoHistory
Fore
SplineSet
124 0 m 1,0,-1
 124 1658 l 1,1,-1
 818 1658 l 1,2,-1
 818 1445 l 1,3,-1
 426 1445 l 1,4,-1
 426 969 l 1,5,-1
 736 969 l 1,6,-1
 736 756 l 1,7,-1
 426 756 l 1,8,-1
 426 209 l 1,9,-1
 823 209 l 1,10,-1
 823 0 l 1,11,-1
 124 0 l 1,0,-1
EndSplineSet
EndChar

StartChar: Eng
Encoding: 330 330 30
Width: 1119
GlyphClass: 2
Flags: W
LayerCount: 2
UndoRedoHistory
Layer: 1
Undoes
EndUndoes
Redoes
EndRedoes
EndUndoRedoHistory
Fore
SplineSet
523 -407 m 1,0,-1
 523 -215 l 1,1,2
 599 -215 599 -215 644 -205 c 128,-1,3
 689 -195 689 -195 714 -167.5 c 128,-1,4
 739 -140 739 -140 747 -102 c 128,-1,5
 755 -64 755 -64 755 2 c 2,6,-1
 755 124 l 1,7,-1
 375 987 l 1,8,-1
 375 0 l 1,9,-1
 127 0 l 1,10,-1
 127 1658 l 1,11,-1
 335 1658 l 1,12,-1
 750 719 l 1,13,-1
 750 1658 l 1,14,-1
 991 1658 l 1,15,-1
 991 0 l 2,16,17
 991 -105 991 -105 975.5 -176.5 c 128,-1,18
 960 -248 960 -248 921 -302.5 c 128,-1,19
 882 -357 882 -357 811.5 -382 c 128,-1,20
 741 -407 741 -407 635 -407 c 2,21,-1
 523 -407 l 1,0,-1
EndSplineSet
EndChar

StartChar: Eth
Encoding: 208 208 32
Width: 1091
GlyphClass: 2
Flags: W
LayerCount: 2
UndoRedoHistory
Layer: 1
Undoes
EndUndoes
Redoes
EndRedoes
EndUndoRedoHistory
Fore
SplineSet
117 0 m 1,0,-1
 117 775 l 1,1,-1
 24 775 l 1,2,-1
 24 934 l 1,3,-1
 117 934 l 1,4,-1
 117 1658 l 1,5,-1
 503 1658 l 2,6,7
 653 1658 653 1658 754 1628 c 128,-1,8
 855 1598 855 1598 916 1533 c 128,-1,9
 977 1468 977 1468 1002.5 1373.5 c 128,-1,10
 1028 1279 1028 1279 1028 1141 c 2,11,-1
 1028 543 l 2,12,13
 1028 401 1028 401 1002 302 c 128,-1,14
 976 203 976 203 916.5 134 c 128,-1,15
 857 65 857 65 758 32.5 c 128,-1,16
 659 0 659 0 515 0 c 2,17,-1
 117 0 l 1,0,-1
419 212 m 1,18,-1
 505 212 l 2,19,20
 550 212 550 212 584 220 c 128,-1,21
 618 228 618 228 641 239 c 128,-1,22
 664 250 664 250 679.5 275 c 128,-1,23
 695 300 695 300 703 321 c 128,-1,24
 711 342 711 342 715 384.5 c 128,-1,25
 719 427 719 427 720 457 c 128,-1,26
 721 487 721 487 721 546 c 2,27,-1
 721 1152 l 2,28,29
 721 1222 721 1222 717.5 1263 c 128,-1,30
 714 1304 714 1304 702 1343 c 128,-1,31
 690 1382 690 1382 666 1401 c 128,-1,32
 642 1420 642 1420 602 1431 c 128,-1,33
 562 1442 562 1442 501 1442 c 2,34,-1
 419 1442 l 1,35,-1
 419 934 l 1,36,-1
 518 934 l 1,37,-1
 518 775 l 1,38,-1
 419 775 l 1,39,-1
 419 212 l 1,18,-1
EndSplineSet
EndChar

StartChar: Euro
Encoding: 8364 8364 33
Width: 1077
GlyphClass: 2
Flags: W
LayerCount: 2
UndoRedoHistory
Layer: 1
Undoes
EndUndoes
Redoes
EndRedoes
EndUndoRedoHistory
Fore
SplineSet
577 -20 m 0,0,1
 443 -20 443 -20 349.5 20.5 c 128,-1,2
 256 61 256 61 203.5 138 c 128,-1,3
 151 215 151 215 128.5 312 c 128,-1,4
 106 409 106 409 106 537 c 2,5,-1
 106 628 l 1,6,-1
 -5 628 l 1,7,-1
 -5 752 l 1,8,-1
 106 752 l 1,9,-1
 106 911 l 1,10,-1
 -5 911 l 1,11,-1
 -5 1036 l 1,12,-1
 106 1036 l 1,13,-1
 106 1115 l 2,14,15
 106 1250 106 1250 128.5 1349 c 128,-1,16
 151 1448 151 1448 203.5 1524 c 128,-1,17
 256 1600 256 1600 349.5 1638.5 c 128,-1,18
 443 1677 443 1677 577 1677 c 0,19,20
 701 1677 701 1677 789 1644 c 128,-1,21
 877 1611 877 1611 928.5 1547 c 128,-1,22
 980 1483 980 1483 1003 1397.5 c 128,-1,23
 1026 1312 1026 1312 1026 1198 c 2,24,-1
 1026 1104 l 1,25,-1
 735 1104 l 1,26,-1
 735 1197 l 2,27,28
 735 1199 735 1199 735 1202 c 0,29,30
 735 1233 735 1233 735 1248 c 128,-1,31
 735 1263 735 1263 733.5 1289.5 c 128,-1,32
 732 1316 732 1316 729.5 1329.5 c 128,-1,33
 727 1343 727 1343 721.5 1363.5 c 128,-1,34
 716 1384 716 1384 708.5 1395 c 128,-1,35
 701 1406 701 1406 689 1419 c 128,-1,36
 677 1432 677 1432 661.5 1438.5 c 128,-1,37
 646 1445 646 1445 625.5 1449.5 c 128,-1,38
 605 1454 605 1454 579 1454 c 0,39,40
 541 1454 541 1454 512.5 1445 c 128,-1,41
 484 1436 484 1436 466 1416.5 c 128,-1,42
 448 1397 448 1397 436.5 1375 c 128,-1,43
 425 1353 425 1353 419.5 1317.5 c 128,-1,44
 414 1282 414 1282 412.5 1252 c 128,-1,45
 411 1222 411 1222 411 1176 c 2,46,-1
 411 1036 l 1,47,-1
 610 1036 l 1,48,-1
 610 911 l 1,49,-1
 411 911 l 1,50,-1
 411 752 l 1,51,-1
 610 752 l 1,52,-1
 610 628 l 1,53,-1
 411 628 l 1,54,-1
 411 474 l 2,55,56
 411 327 411 327 447.5 265.5 c 128,-1,57
 484 204 484 204 579 204 c 0,58,59
 616 204 616 204 643 212.5 c 128,-1,60
 670 221 670 221 687 241 c 128,-1,61
 704 261 704 261 714 281.5 c 128,-1,62
 724 302 724 302 728.5 338 c 128,-1,63
 733 374 733 374 734 400.5 c 128,-1,64
 735 427 735 427 735 474 c 2,65,-1
 735 555 l 1,66,-1
 1026 555 l 1,67,-1
 1026 486 l 2,68,69
 1026 369 1026 369 1004.5 281 c 128,-1,70
 983 193 983 193 933.5 123 c 128,-1,71
 884 53 884 53 794.5 16.5 c 128,-1,72
 705 -20 705 -20 577 -20 c 0,0,1
EndSplineSet
EndChar

StartChar: F
Encoding: 70 70 34
Width: 840
GlyphClass: 2
Flags: W
LayerCount: 2
UndoRedoHistory
Layer: 1
Undoes
EndUndoes
Redoes
EndRedoes
EndUndoRedoHistory
Fore
SplineSet
124 0 m 1,0,-1
 124 1658 l 1,1,-1
 805 1658 l 1,2,-1
 805 1449 l 1,3,-1
 426 1449 l 1,4,-1
 426 967 l 1,5,-1
 729 967 l 1,6,-1
 729 754 l 1,7,-1
 426 754 l 1,8,-1
 426 0 l 1,9,-1
 124 0 l 1,0,-1
EndSplineSet
EndChar

StartChar: G
Encoding: 71 71 35
Width: 1142
GlyphClass: 2
Flags: W
LayerCount: 2
UndoRedoHistory
Layer: 1
Undoes
EndUndoes
Redoes
EndRedoes
EndUndoRedoHistory
Fore
SplineSet
539 -22 m 0,0,1
 304 -22 304 -22 200.5 125 c 128,-1,2
 97 272 97 272 97 553 c 2,3,-1
 97 1093 l 2,4,5
 97 1236 97 1236 119.5 1339.5 c 128,-1,6
 142 1443 142 1443 195 1521 c 128,-1,7
 248 1599 248 1599 341 1638 c 128,-1,8
 434 1677 434 1677 569 1677 c 0,9,10
 815 1677 815 1677 922 1556.5 c 128,-1,11
 1029 1436 1029 1436 1029 1191 c 2,12,-1
 1029 1110 l 1,13,-1
 740 1110 l 1,14,-1
 740 1196 l 2,15,16
 740 1251 740 1251 737.5 1286 c 128,-1,17
 735 1321 735 1321 725.5 1356.5 c 128,-1,18
 716 1392 716 1392 698 1411 c 128,-1,19
 680 1430 680 1430 649 1442 c 128,-1,20
 618 1454 618 1454 573 1454 c 0,21,22
 539 1454 539 1454 512.5 1445.5 c 128,-1,23
 486 1437 486 1437 468 1424.5 c 128,-1,24
 450 1412 450 1412 437.5 1389 c 128,-1,25
 425 1366 425 1366 418.5 1344.5 c 128,-1,26
 412 1323 412 1323 408.5 1289 c 128,-1,27
 405 1255 405 1255 404 1229 c 128,-1,28
 403 1203 403 1203 403 1162 c 2,29,-1
 403 493 l 2,30,31
 403 343 403 343 440 273.5 c 128,-1,32
 477 204 477 204 581 204 c 0,33,34
 635 204 635 204 671.5 224.5 c 128,-1,35
 708 245 708 245 728.5 286.5 c 128,-1,36
 749 328 749 328 757.5 381.5 c 128,-1,37
 766 435 766 435 766 511 c 2,38,-1
 766 647 l 1,39,-1
 587 647 l 1,40,-1
 587 842 l 1,41,-1
 1038 842 l 1,42,-1
 1038 0 l 1,43,-1
 842 0 l 1,44,-1
 820 168 l 1,45,46
 745 -22 745 -22 539 -22 c 0,0,1
EndSplineSet
EndChar

StartChar: H
Encoding: 72 72 40
Width: 1195
GlyphClass: 2
Flags: W
LayerCount: 2
UndoRedoHistory
Layer: 1
Undoes
EndUndoes
Redoes
EndRedoes
EndUndoRedoHistory
Fore
SplineSet
127 0 m 1,0,-1
 127 1658 l 1,1,-1
 429 1658 l 1,2,-1
 429 965 l 1,3,-1
 766 965 l 1,4,-1
 766 1658 l 1,5,-1
 1068 1658 l 1,6,-1
 1068 0 l 1,7,-1
 766 0 l 1,8,-1
 766 750 l 1,9,-1
 429 750 l 1,10,-1
 429 0 l 1,11,-1
 127 0 l 1,0,-1
EndSplineSet
EndChar

StartChar: Hbar
Encoding: 294 294 41
Width: 1134
GlyphClass: 2
Flags: W
LayerCount: 2
UndoRedoHistory
Layer: 1
Undoes
EndUndoes
Redoes
EndRedoes
EndUndoRedoHistory
Fore
SplineSet
407 965 m 1,0,-1
 737 965 l 1,1,-1
 737 1259 l 1,2,-1
 407 1259 l 1,3,-1
 407 965 l 1,0,-1
105 0 m 1,4,-1
 105 1259 l 1,5,-1
 3 1259 l 1,6,-1
 3 1382 l 1,7,-1
 105 1382 l 1,8,-1
 105 1658 l 1,9,-1
 407 1658 l 1,10,-1
 407 1382 l 1,11,-1
 737 1382 l 1,12,-1
 737 1658 l 1,13,-1
 1039 1658 l 1,14,-1
 1039 1382 l 1,15,-1
 1131 1382 l 1,16,-1
 1131 1259 l 1,17,-1
 1039 1259 l 1,18,-1
 1039 0 l 1,19,-1
 737 0 l 1,20,-1
 737 750 l 1,21,-1
 407 750 l 1,22,-1
 407 0 l 1,23,-1
 105 0 l 1,4,-1
EndSplineSet
EndChar

StartChar: I
Encoding: 73 73 43
Width: 562
GlyphClass: 2
Flags: W
AnchorPoint: "Anchor-0" 280 0 basechar 0
LayerCount: 2
UndoRedoHistory
Layer: 1
Undoes
EndUndoes
Redoes
EndRedoes
EndUndoRedoHistory
Fore
SplineSet
133 0 m 1,0,-1
 133 1658 l 1,1,-1
 431 1658 l 1,2,-1
 431 0 l 1,3,-1
 133 0 l 1,0,-1
EndSplineSet
EndChar

StartChar: J
Encoding: 74 74 53
Width: 667
GlyphClass: 2
Flags: W
AnchorPoint: "Anchor-2" 338 1658 basechar 0
LayerCount: 2
UndoRedoHistory
Layer: 1
Undoes
EndUndoes
Redoes
EndRedoes
EndUndoRedoHistory
Fore
SplineSet
19 -35 m 1,0,-1
 19 177 l 1,1,2
 152 176 152 176 196 217 c 128,-1,3
 240 258 240 258 240 386 c 2,4,-1
 240 1658 l 1,5,-1
 542 1658 l 1,6,-1
 541 379 l 2,7,8
 540 270 540 270 522.5 195.5 c 128,-1,9
 505 121 505 121 462.5 67.5 c 128,-1,10
 420 14 420 14 346.5 -10.5 c 128,-1,11
 273 -35 273 -35 164 -35 c 2,12,-1
 19 -35 l 1,0,-1
EndSplineSet
EndChar

StartChar: K
Encoding: 75 75 55
Width: 1085
GlyphClass: 2
Flags: W
LayerCount: 2
UndoRedoHistory
Layer: 1
Undoes
EndUndoes
Redoes
EndRedoes
EndUndoRedoHistory
Fore
SplineSet
124 0 m 1,0,-1
 124 1658 l 1,1,-1
 426 1658 l 1,2,-1
 426 938 l 1,3,-1
 752 1658 l 1,4,-1
 1040 1658 l 1,5,-1
 723 916 l 1,6,-1
 1073 0 l 1,7,-1
 772 0 l 1,8,-1
 486 780 l 1,9,-1
 426 672 l 1,10,-1
 426 0 l 1,11,-1
 124 0 l 1,0,-1
EndSplineSet
EndChar

StartChar: L
Encoding: 76 76 57
Width: 859
GlyphClass: 2
Flags: W
LayerCount: 2
UndoRedoHistory
Layer: 1
Undoes
EndUndoes
Redoes
EndRedoes
EndUndoRedoHistory
Fore
SplineSet
124 0 m 1,0,-1
 124 1658 l 1,1,-1
 426 1658 l 1,2,-1
 426 209 l 1,3,-1
 823 209 l 1,4,-1
 823 0 l 1,5,-1
 124 0 l 1,0,-1
EndSplineSet
EndChar

StartChar: Lslash
Encoding: 321 321 62
Width: 865
GlyphClass: 2
Flags: W
LayerCount: 2
UndoRedoHistory
Layer: 1
Undoes
EndUndoes
Redoes
EndRedoes
EndUndoRedoHistory
Fore
SplineSet
131 0 m 1,0,-1
 131 749 l 1,1,-1
 -2 679 l 1,2,-1
 -2 875 l 1,3,-1
 131 946 l 1,4,-1
 131 1658 l 1,5,-1
 433 1658 l 1,6,-1
 433 1100 l 1,7,-1
 639 1208 l 1,8,-1
 639 1012 l 1,9,-1
 433 904 l 1,10,-1
 433 209 l 1,11,-1
 830 209 l 1,12,-1
 830 0 l 1,13,-1
 131 0 l 1,0,-1
EndSplineSet
EndChar

StartChar: M
Encoding: 77 77 63
Width: 1397
GlyphClass: 2
Flags: W
LayerCount: 2
UndoRedoHistory
Layer: 1
Undoes
EndUndoes
Redoes
EndRedoes
EndUndoRedoHistory
Fore
SplineSet
121 0 m 1,0,-1
 148 1658 l 1,1,-1
 458 1658 l 1,2,-1
 698 493 l 1,3,-1
 945 1658 l 1,4,-1
 1248 1658 l 1,5,-1
 1276 0 l 1,6,-1
 1048 0 l 1,7,-1
 1028 1142 l 1,8,-1
 789 0 l 1,9,-1
 612 0 l 1,10,-1
 370 1146 l 1,11,-1
 352 0 l 1,12,-1
 121 0 l 1,0,-1
EndSplineSet
EndChar

StartChar: N
Encoding: 78 78 64
Width: 1112
GlyphClass: 2
Flags: W
LayerCount: 2
UndoRedoHistory
Layer: 1
Undoes
EndUndoes
Redoes
EndRedoes
EndUndoRedoHistory
Fore
SplineSet
124 0 m 1,0,-1
 124 1658 l 1,1,-1
 332 1658 l 1,2,-1
 738 719 l 1,3,-1
 738 1658 l 1,4,-1
 988 1658 l 1,5,-1
 988 0 l 1,6,-1
 790 0 l 1,7,-1
 380 987 l 1,8,-1
 380 0 l 1,9,-1
 124 0 l 1,0,-1
EndSplineSet
EndChar

StartChar: O
Encoding: 79 79 69
Width: 1150
GlyphClass: 2
Flags: W
AnchorPoint: "Anchor-0" 581 0 basechar 0
LayerCount: 2
UndoRedoHistory
Layer: 1
Undoes
EndUndoes
Redoes
EndRedoes
EndUndoRedoHistory
Fore
SplineSet
575 -20 m 0,0,1
 319 -20 319 -20 208 119 c 128,-1,2
 97 258 97 258 97 526 c 2,3,-1
 97 1138 l 2,4,5
 97 1270 97 1270 122 1367 c 128,-1,6
 147 1464 147 1464 202.5 1535 c 128,-1,7
 258 1606 258 1606 351 1641.5 c 128,-1,8
 444 1677 444 1677 575 1677 c 0,9,10
 830 1677 830 1677 941.5 1540 c 128,-1,11
 1053 1403 1053 1403 1053 1138 c 2,12,-1
 1053 526 l 2,13,14
 1053 396 1053 396 1027.5 297.5 c 128,-1,15
 1002 199 1002 199 946.5 126.5 c 128,-1,16
 891 54 891 54 798 17 c 128,-1,17
 705 -20 705 -20 575 -20 c 0,0,1
575 204 m 128,-1,19
 619 204 619 204 650 217 c 128,-1,20
 681 230 681 230 699.5 251 c 128,-1,21
 718 272 718 272 728.5 306 c 128,-1,22
 739 340 739 340 742.5 374 c 128,-1,23
 746 408 746 408 746 455 c 2,24,-1
 746 1208 l 2,25,26
 746 1268 746 1268 740 1308 c 128,-1,27
 734 1348 734 1348 716.5 1383.5 c 128,-1,28
 699 1419 699 1419 664 1436.5 c 128,-1,29
 629 1454 629 1454 575 1454 c 128,-1,30
 521 1454 521 1454 485.5 1436.5 c 128,-1,31
 450 1419 450 1419 433 1383.5 c 128,-1,32
 416 1348 416 1348 410 1308 c 128,-1,33
 404 1268 404 1268 404 1208 c 2,34,-1
 404 455 l 2,35,36
 404 408 404 408 407.5 374 c 128,-1,37
 411 340 411 340 421.5 306 c 128,-1,38
 432 272 432 272 450 251 c 128,-1,39
 468 230 468 230 499.5 217 c 128,-1,18
 531 204 531 204 575 204 c 128,-1,19
EndSplineSet
EndChar

StartChar: OE
Encoding: 338 338 70
Width: 1443
GlyphClass: 2
Flags: W
LayerCount: 2
UndoRedoHistory
Layer: 1
Undoes
EndUndoes
Redoes
EndRedoes
EndUndoRedoHistory
Fore
SplineSet
604 215 m 2,0,-1
 706 215 l 1,1,-1
 706 1441 l 1,2,-1
 600 1441 l 2,3,4
 542 1441 542 1441 503 1422.5 c 128,-1,5
 464 1404 464 1404 443.5 1379.5 c 128,-1,6
 423 1355 423 1355 413 1301 c 128,-1,7
 403 1247 403 1247 401.5 1208 c 128,-1,8
 400 1169 400 1169 400 1089 c 2,9,-1
 400 523 l 2,10,11
 400 467 400 467 402 431 c 128,-1,12
 404 395 404 395 410.5 355.5 c 128,-1,13
 417 316 417 316 430.5 293.5 c 128,-1,14
 444 271 444 271 466.5 251 c 128,-1,15
 489 231 489 231 523 223 c 128,-1,16
 557 215 557 215 604 215 c 2,0,-1
600 0 m 2,17,18
 461 0 461 0 363.5 34 c 128,-1,19
 266 68 266 68 207.5 138 c 128,-1,20
 149 208 149 208 123 305 c 128,-1,21
 97 402 97 402 97 537 c 2,22,-1
 97 1089 l 2,23,24
 97 1225 97 1225 123 1326.5 c 128,-1,25
 149 1428 149 1428 205.5 1503 c 128,-1,26
 262 1578 262 1578 358 1616.5 c 128,-1,27
 454 1655 454 1655 588 1655 c 2,28,-1
 1385 1655 l 1,29,-1
 1385 1442 l 1,30,-1
 1008 1442 l 1,31,-1
 1008 962 l 1,32,-1
 1303 962 l 1,33,-1
 1303 750 l 1,34,-1
 1008 750 l 1,35,-1
 1008 209 l 1,36,-1
 1389 209 l 1,37,-1
 1389 0 l 1,38,-1
 600 0 l 2,17,18
EndSplineSet
EndChar

StartChar: Oslash
Encoding: 216 216 78
Width: 1138
GlyphClass: 2
Flags: W
LayerCount: 2
UndoRedoHistory
Layer: 1
Undoes
EndUndoes
Redoes
EndRedoes
EndUndoRedoHistory
Fore
SplineSet
404 470 m 1,0,-1
 698 1411 l 1,1,2
 678 1432 678 1432 648 1443 c 128,-1,3
 618 1454 618 1454 575 1454 c 0,4,5
 521 1454 521 1454 485.5 1436.5 c 128,-1,6
 450 1419 450 1419 433 1383.5 c 128,-1,7
 416 1348 416 1348 410 1308 c 128,-1,8
 404 1268 404 1268 404 1208 c 2,9,-1
 404 470 l 1,0,-1
575 204 m 0,10,11
 619 204 619 204 650 217 c 128,-1,12
 681 230 681 230 699.5 251 c 128,-1,13
 718 272 718 272 728.5 306 c 128,-1,14
 739 340 739 340 742.5 374 c 128,-1,15
 746 408 746 408 746 455 c 2,16,-1
 746 1208 l 2,17,18
 746 1216 746 1216 746 1223.5 c 128,-1,19
 746 1231 746 1231 745.5 1238 c 128,-1,20
 745 1245 745 1245 745 1252.5 c 128,-1,21
 745 1260 745 1260 744 1266 c 1,22,-1
 434 275 l 1,23,24
 473 204 473 204 575 204 c 0,10,11
298 -161 m 1,25,-1
 216 -132 l 1,26,-1
 275 58 l 1,27,28
 97 182 97 182 97 526 c 2,29,-1
 97 1138 l 2,30,31
 97 1270 97 1270 122 1367 c 128,-1,32
 147 1464 147 1464 202.5 1535 c 128,-1,33
 258 1606 258 1606 351 1641.5 c 128,-1,34
 444 1677 444 1677 575 1677 c 0,35,36
 632 1677 632 1677 681 1670 c 128,-1,37
 730 1663 730 1663 772 1650 c 1,38,-1
 820 1803 l 1,39,-1
 904 1777 l 1,40,-1
 853 1614 l 1,41,42
 958 1553 958 1553 1005.5 1433.5 c 128,-1,43
 1053 1314 1053 1314 1053 1138 c 2,44,-1
 1053 526 l 2,45,46
 1053 396 1053 396 1027.5 297.5 c 128,-1,47
 1002 199 1002 199 946.5 126.5 c 128,-1,48
 891 54 891 54 798 17 c 128,-1,49
 705 -20 705 -20 575 -20 c 0,50,51
 510 -20 510 -20 454.5 -11 c 128,-1,52
 399 -2 399 -2 353 16 c 1,53,-1
 298 -161 l 1,25,-1
EndSplineSet
EndChar

StartChar: P
Encoding: 80 80 80
Width: 1062
GlyphClass: 2
Flags: W
LayerCount: 2
UndoRedoHistory
Layer: 1
Undoes
EndUndoes
Redoes
EndRedoes
EndUndoRedoHistory
Fore
SplineSet
426 953 m 1,0,-1
 523 953 l 2,1,2
 651 953 651 953 696 1003.5 c 128,-1,3
 741 1054 741 1054 741 1189 c 0,4,5
 741 1266 741 1266 735 1308 c 128,-1,6
 729 1350 729 1350 707 1384.5 c 128,-1,7
 685 1419 685 1419 641.5 1432 c 128,-1,8
 598 1445 598 1445 524 1445 c 2,9,-1
 426 1445 l 1,10,-1
 426 953 l 1,0,-1
124 0 m 1,11,-1
 124 1658 l 1,12,-1
 601 1658 l 2,13,14
 1025 1658 1025 1658 1025 1187 c 0,15,16
 1025 956 1025 956 909 848.5 c 128,-1,17
 793 741 793 741 582 741 c 2,18,-1
 426 741 l 1,19,-1
 426 0 l 1,20,-1
 124 0 l 1,11,-1
EndSplineSet
EndChar

StartChar: Pi
Encoding: 928 928 81
Width: 1188
GlyphClass: 2
Flags: W
LayerCount: 2
UndoRedoHistory
Layer: 1
Undoes
EndUndoes
Redoes
EndRedoes
EndUndoRedoHistory
Fore
SplineSet
117 0 m 1,0,-1
 117 1658 l 1,1,-1
 1071 1658 l 1,2,-1
 1071 0 l 1,3,-1
 795 0 l 1,4,-1
 795 1442 l 1,5,-1
 393 1442 l 1,6,-1
 393 0 l 1,7,-1
 117 0 l 1,0,-1
EndSplineSet
EndChar

StartChar: Q
Encoding: 81 81 82
Width: 1150
GlyphClass: 2
Flags: W
LayerCount: 2
UndoRedoHistory
Layer: 1
Undoes
EndUndoes
Redoes
EndRedoes
EndUndoRedoHistory
Fore
SplineSet
575 204 m 128,-1,1
 619 204 619 204 650 217 c 128,-1,2
 681 230 681 230 699.5 251 c 128,-1,3
 718 272 718 272 728.5 306 c 128,-1,4
 739 340 739 340 742.5 374 c 128,-1,5
 746 408 746 408 746 455 c 2,6,-1
 746 1208 l 2,7,8
 746 1268 746 1268 740 1308 c 128,-1,9
 734 1348 734 1348 716.5 1383.5 c 128,-1,10
 699 1419 699 1419 664 1436.5 c 128,-1,11
 629 1454 629 1454 575 1454 c 128,-1,12
 521 1454 521 1454 485.5 1436.5 c 128,-1,13
 450 1419 450 1419 433 1383.5 c 128,-1,14
 416 1348 416 1348 410 1308 c 128,-1,15
 404 1268 404 1268 404 1208 c 2,16,-1
 404 455 l 2,17,18
 404 408 404 408 407.5 374 c 128,-1,19
 411 340 411 340 421.5 306 c 128,-1,20
 432 272 432 272 450 251 c 128,-1,21
 468 230 468 230 499.5 217 c 128,-1,0
 531 204 531 204 575 204 c 128,-1,1
928 -332 m 1,22,23
 853 -297 853 -297 762.5 -206 c 128,-1,24
 672 -115 672 -115 609 -19 c 1,25,26
 598 -20 598 -20 575 -20 c 0,27,28
 319 -20 319 -20 208 119 c 128,-1,29
 97 258 97 258 97 526 c 2,30,-1
 97 1138 l 2,31,32
 97 1270 97 1270 122 1367 c 128,-1,33
 147 1464 147 1464 202.5 1535 c 128,-1,34
 258 1606 258 1606 351 1641.5 c 128,-1,35
 444 1677 444 1677 575 1677 c 0,36,37
 830 1677 830 1677 941.5 1540 c 128,-1,38
 1053 1403 1053 1403 1053 1138 c 2,39,-1
 1053 526 l 2,40,41
 1053 140 1053 140 823 29 c 1,42,43
 922 -89 922 -89 984 -127 c 1,44,-1
 928 -332 l 1,22,23
EndSplineSet
EndChar

StartChar: R
Encoding: 82 82 83
Width: 1136
GlyphClass: 2
Flags: W
LayerCount: 2
UndoRedoHistory
Layer: 1
Undoes
EndUndoes
Redoes
EndRedoes
EndUndoRedoHistory
Fore
SplineSet
426 950 m 1,0,-1
 499 950 l 2,1,2
 633 950 633 950 689.5 1007 c 128,-1,3
 746 1064 746 1064 746 1202 c 0,4,5
 746 1335 746 1335 697 1392.5 c 128,-1,6
 648 1450 648 1450 517 1450 c 2,7,-1
 426 1450 l 1,8,-1
 426 950 l 1,0,-1
124 0 m 1,9,-1
 124 1658 l 1,10,-1
 504 1658 l 2,11,12
 635 1658 635 1658 729 1636.5 c 128,-1,13
 823 1615 823 1615 892.5 1564.5 c 128,-1,14
 962 1514 962 1514 996.5 1427.5 c 128,-1,15
 1031 1341 1031 1341 1031 1216 c 0,16,17
 1031 1060 1031 1060 984.5 961 c 128,-1,18
 938 862 938 862 831 817 c 1,19,-1
 1061 0 l 1,20,-1
 758 0 l 1,21,-1
 560 757 l 1,22,-1
 426 757 l 1,23,-1
 426 0 l 1,24,-1
 124 0 l 1,9,-1
EndSplineSet
EndChar

StartChar: S
Encoding: 83 83 87
Width: 1010
GlyphClass: 2
Flags: W
AnchorPoint: "Anchor-1" 470 0 basechar 0
LayerCount: 2
UndoRedoHistory
Layer: 1
Undoes
EndUndoes
Redoes
EndRedoes
EndUndoRedoHistory
Fore
SplineSet
542 -20 m 0,0,1
 104 -20 104 -20 82 486 c 1,2,-1
 345 541 l 1,3,4
 355 212 355 212 533 212 c 0,5,6
 602 212 602 212 635.5 254 c 128,-1,7
 669 296 669 296 669 367 c 0,8,9
 669 436 669 436 644 493.5 c 128,-1,10
 619 551 619 551 586 587.5 c 128,-1,11
 553 624 553 624 492 678 c 2,12,-1
 274 867 l 2,13,14
 178 951 178 951 131 1041.5 c 128,-1,15
 84 1132 84 1132 84 1268 c 0,16,17
 84 1461 84 1461 197.5 1568 c 128,-1,18
 311 1675 311 1675 509 1677 c 0,19,20
 600 1678 600 1678 670 1654.5 c 128,-1,21
 740 1631 740 1631 785.5 1591.5 c 128,-1,22
 831 1552 831 1552 861.5 1493 c 128,-1,23
 892 1434 892 1434 907 1370.5 c 128,-1,24
 922 1307 922 1307 928 1229 c 1,25,-1
 670 1178 l 1,26,27
 668 1228 668 1228 663.5 1265 c 128,-1,28
 659 1302 659 1302 648 1340 c 128,-1,29
 637 1378 637 1378 619.5 1401.5 c 128,-1,30
 602 1425 602 1425 572.5 1439 c 128,-1,31
 543 1453 543 1453 504 1450 c 0,32,33
 437 1446 437 1446 401.5 1405.5 c 128,-1,34
 366 1365 366 1365 366 1297 c 0,35,36
 366 1217 366 1217 397.5 1165.5 c 128,-1,37
 429 1114 429 1114 496 1055 c 2,38,-1
 712 867 l 1,39,40
 766 818 766 818 806 772 c 128,-1,41
 846 726 846 726 882.5 667 c 128,-1,42
 919 608 919 608 938 537 c 128,-1,43
 957 466 957 466 957 387 c 0,44,45
 957 206 957 206 842.5 93 c 128,-1,46
 728 -20 728 -20 542 -20 c 0,0,1
EndSplineSet
EndChar

StartChar: T
Encoding: 84 84 93
Width: 865
GlyphClass: 2
Flags: W
AnchorPoint: "Anchor-1" 380 0 basechar 0
LayerCount: 2
UndoRedoHistory
Layer: 1
Undoes
EndUndoes
Redoes
EndRedoes
EndUndoRedoHistory
Fore
SplineSet
286 0 m 1,0,-1
 286 1435 l 1,1,-1
 8 1435 l 1,2,-1
 8 1658 l 1,3,-1
 857 1658 l 1,4,-1
 857 1435 l 1,5,-1
 588 1435 l 1,6,-1
 588 0 l 1,7,-1
 286 0 l 1,0,-1
EndSplineSet
EndChar

StartChar: Tbar
Encoding: 358 358 94
Width: 865
GlyphClass: 2
Flags: W
LayerCount: 2
UndoRedoHistory
Layer: 1
Undoes
EndUndoes
Redoes
EndRedoes
EndUndoRedoHistory
Fore
SplineSet
88 776 m 1,0,-1
 88 933 l 1,1,-1
 286 933 l 1,2,-1
 286 1435 l 1,3,-1
 8 1435 l 1,4,-1
 8 1658 l 1,5,-1
 857 1658 l 1,6,-1
 857 1435 l 1,7,-1
 588 1435 l 1,8,-1
 588 933 l 1,9,-1
 781 933 l 1,10,-1
 781 776 l 1,11,-1
 588 776 l 1,12,-1
 588 0 l 1,13,-1
 286 0 l 1,14,-1
 286 776 l 1,15,-1
 88 776 l 1,0,-1
EndSplineSet
EndChar

StartChar: Thorn
Encoding: 222 222 97
Width: 1082
GlyphClass: 2
Flags: W
LayerCount: 2
UndoRedoHistory
Layer: 1
Undoes
EndUndoes
Redoes
EndRedoes
EndUndoRedoHistory
Fore
SplineSet
419 702 m 1,0,-1
 536 702 l 2,1,2
 662 702 662 702 715 757.5 c 128,-1,3
 768 813 768 813 768 958 c 0,4,5
 768 1093 768 1093 721 1149.5 c 128,-1,6
 674 1206 674 1206 558 1206 c 2,7,-1
 419 1206 l 1,8,-1
 419 702 l 1,0,-1
117 0 m 1,9,-1
 117 1658 l 1,10,-1
 419 1658 l 1,11,-1
 419 1439 l 1,12,-1
 616 1439 l 2,13,14
 837 1439 837 1439 944.5 1320 c 128,-1,15
 1052 1201 1052 1201 1052 964 c 0,16,17
 1052 702 1052 702 938.5 589 c 128,-1,18
 825 476 825 476 583 475 c 2,19,-1
 419 474 l 1,20,-1
 419 0 l 1,21,-1
 117 0 l 1,9,-1
EndSplineSet
EndChar

StartChar: U
Encoding: 85 85 98
Width: 1154
GlyphClass: 2
Flags: W
AnchorPoint: "Anchor-0" 621 0 basechar 0
LayerCount: 2
UndoRedoHistory
Layer: 1
Undoes
EndUndoes
Redoes
EndRedoes
EndUndoRedoHistory
Fore
SplineSet
578 -20 m 0,0,1
 467 -20 467 -20 385.5 6 c 128,-1,2
 304 32 304 32 251.5 79 c 128,-1,3
 199 126 199 126 167.5 199.5 c 128,-1,4
 136 273 136 273 123.5 358.5 c 128,-1,5
 111 444 111 444 111 557 c 2,6,-1
 111 1658 l 1,7,-1
 404 1658 l 1,8,-1
 404 526 l 2,9,10
 404 468 404 468 407 427 c 128,-1,11
 410 386 410 386 420 341 c 128,-1,12
 430 296 430 296 448.5 269 c 128,-1,13
 467 242 467 242 499.5 224 c 128,-1,14
 532 206 532 206 578 206 c 128,-1,15
 624 206 624 206 656.5 224 c 128,-1,16
 689 242 689 242 706.5 269 c 128,-1,17
 724 296 724 296 734.5 341 c 128,-1,18
 745 386 745 386 747.5 426.5 c 128,-1,19
 750 467 750 467 750 526 c 2,20,-1
 750 1658 l 1,21,-1
 1043 1658 l 1,22,-1
 1043 557 l 2,23,24
 1043 444 1043 444 1030.5 358.5 c 128,-1,25
 1018 273 1018 273 986.5 199.5 c 128,-1,26
 955 126 955 126 903 79 c 128,-1,27
 851 32 851 32 769.5 6 c 128,-1,28
 688 -20 688 -20 578 -20 c 0,0,1
EndSplineSet
EndChar

StartChar: V
Encoding: 86 86 109
Width: 1059
GlyphClass: 2
Flags: W
LayerCount: 2
UndoRedoHistory
Layer: 1
Undoes
EndUndoes
Redoes
EndRedoes
EndUndoRedoHistory
Fore
SplineSet
383 0 m 1,0,-1
 47 1658 l 1,1,-1
 315 1658 l 1,2,-1
 533 504 l 1,3,-1
 739 1658 l 1,4,-1
 1013 1658 l 1,5,-1
 675 0 l 1,6,-1
 383 0 l 1,0,-1
EndSplineSet
EndChar

StartChar: W
Encoding: 87 87 110
Width: 1470
GlyphClass: 2
Flags: W
LayerCount: 2
UndoRedoHistory
Layer: 1
Undoes
EndUndoes
Redoes
EndRedoes
EndUndoRedoHistory
Fore
SplineSet
304 0 m 1,0,-1
 67 1658 l 1,1,-1
 321 1658 l 1,2,-1
 457 589 l 1,3,-1
 634 1658 l 1,4,-1
 837 1658 l 1,5,-1
 1018 588 l 1,6,-1
 1154 1658 l 1,7,-1
 1403 1658 l 1,8,-1
 1166 0 l 1,9,-1
 925 0 l 1,10,-1
 738 1107 l 1,11,-1
 552 0 l 1,12,-1
 304 0 l 1,0,-1
EndSplineSet
EndChar

StartChar: X
Encoding: 88 88 115
Width: 1023
GlyphClass: 2
Flags: W
LayerCount: 2
UndoRedoHistory
Layer: 1
Undoes
EndUndoes
Redoes
EndRedoes
EndUndoRedoHistory
Fore
SplineSet
21 0 m 1,0,-1
 354 880 l 1,1,-1
 30 1658 l 1,2,-1
 313 1658 l 1,3,-1
 528 1144 l 1,4,-1
 713 1658 l 1,5,-1
 978 1658 l 1,6,-1
 658 827 l 1,7,-1
 1002 0 l 1,8,-1
 720 0 l 1,9,-1
 488 556 l 1,10,-1
 284 0 l 1,11,-1
 21 0 l 1,0,-1
EndSplineSet
EndChar

StartChar: Y
Encoding: 89 89 116
AltUni2: 0004ae.ffffffff.0
Width: 1001
GlyphClass: 2
Flags: W
LayerCount: 2
UndoRedoHistory
Layer: 1
Undoes
EndUndoes
Redoes
EndRedoes
EndUndoRedoHistory
Fore
SplineSet
357 0 m 1,0,-1
 357 631 l 1,1,-1
 19 1658 l 1,2,-1
 301 1658 l 1,3,-1
 506 998 l 1,4,-1
 702 1658 l 1,5,-1
 981 1658 l 1,6,-1
 645 631 l 1,7,-1
 645 0 l 1,8,-1
 357 0 l 1,0,-1
EndSplineSet
EndChar

StartChar: Z
Encoding: 90 90 121
Width: 870
GlyphClass: 2
Flags: W
LayerCount: 2
UndoRedoHistory
Layer: 1
Undoes
EndUndoes
Redoes
EndRedoes
EndUndoRedoHistory
Fore
SplineSet
72 0 m 1,0,-1
 72 198 l 1,1,-1
 512 1449 l 1,2,-1
 94 1449 l 1,3,-1
 94 1658 l 1,4,-1
 821 1658 l 1,5,-1
 821 1509 l 1,6,-1
 360 209 l 1,7,-1
 822 209 l 1,8,-1
 822 0 l 1,9,-1
 72 0 l 1,0,-1
EndSplineSet
EndChar

StartChar: a
Encoding: 97 97 125
Width: 927
GlyphClass: 2
Flags: W
AnchorPoint: "Anchor-0" 722 0 basechar 0
LayerCount: 2
UndoRedoHistory
Layer: 1
Undoes
EndUndoes
Redoes
EndRedoes
EndUndoRedoHistory
Fore
SplineSet
442 198 m 0,0,1
 474 198 474 198 505.5 222 c 128,-1,2
 537 246 537 246 556 271 c 1,3,-1
 556 597 l 1,4,5
 348 482 348 482 348 336 c 0,6,7
 348 272 348 272 372.5 235 c 128,-1,8
 397 198 397 198 442 198 c 0,0,1
335 -19 m 0,9,10
 223 -18 223 -18 151.5 68.5 c 128,-1,11
 80 155 80 155 80 264 c 0,12,13
 80 367 80 367 114 444 c 128,-1,14
 148 521 148 521 225.5 576 c 128,-1,15
 303 631 303 631 354 656 c 128,-1,16
 405 681 405 681 511 722 c 0,17,18
 541 734 541 734 556 740 c 1,19,-1
 556 839 l 2,20,21
 556 919 556 919 537.5 956 c 128,-1,22
 519 993 519 993 462 993 c 0,23,24
 369 993 369 993 367 863 c 1,25,-1
 363 789 l 1,26,-1
 95 799 l 1,27,28
 95 805 95 805 95.5 821 c 128,-1,29
 96 837 96 837 96 842 c 0,30,31
 109 1028 109 1028 206.5 1115 c 128,-1,32
 304 1202 304 1202 485 1202 c 0,33,34
 660 1202 660 1202 744.5 1107 c 128,-1,35
 829 1012 829 1012 829 838 c 2,36,-1
 829 297 l 2,37,38
 829 161 829 161 851 0 c 1,39,-1
 598 0 l 1,40,41
 575 116 575 116 569 174 c 1,42,43
 544 92 544 92 485.5 36.5 c 128,-1,44
 427 -19 427 -19 335 -19 c 0,9,10
EndSplineSet
EndChar

StartChar: acute
Encoding: 180 180 129
Width: 610
GlyphClass: 2
Flags: W
LayerCount: 2
UndoRedoHistory
Layer: 1
Undoes
EndUndoes
Redoes
EndRedoes
EndUndoRedoHistory
Fore
SplineSet
115 1249 m 1,0,-1
 237 1658 l 1,1,-1
 520 1658 l 1,2,-1
 273 1249 l 1,3,-1
 115 1249 l 1,0,-1
EndSplineSet
EndChar

StartChar: acutecomb
Encoding: 769 769 130
Width: 208
GlyphClass: 2
Flags: W
LayerCount: 2
UndoRedoHistory
Layer: 1
Undoes
EndUndoes
Redoes
EndRedoes
EndUndoRedoHistory
Fore
SplineSet
-6 1249 m 1,0,-1
 116 1658 l 1,1,-1
 399 1658 l 1,2,-1
 153 1249 l 1,3,-1
 -6 1249 l 1,0,-1
EndSplineSet
EndChar

StartChar: ae
Encoding: 230 230 132
Width: 1361
GlyphClass: 2
Flags: W
LayerCount: 2
UndoRedoHistory
Layer: 1
Undoes
EndUndoes
Redoes
EndRedoes
EndUndoRedoHistory
Fore
SplineSet
824 720 m 1,0,1
 842 723 842 723 879.5 731.5 c 128,-1,2
 917 740 917 740 922 745 c 1,3,4
 978 760 978 760 1003.5 786 c 128,-1,5
 1029 812 1029 812 1029 873 c 0,6,7
 1029 936 1029 936 1004.5 973 c 128,-1,8
 980 1010 980 1010 930 1010 c 0,9,10
 876 1010 876 1010 850 964.5 c 128,-1,11
 824 919 824 919 824 845 c 2,12,-1
 824 720 l 1,0,1
432 184 m 0,13,14
 484 184 484 184 518.5 238.5 c 128,-1,15
 553 293 553 293 553 395 c 2,16,-1
 552 540 l 1,17,18
 506 526 506 526 477 512 c 0,19,20
 412 480 412 480 375.5 428.5 c 128,-1,21
 339 377 339 377 339 316 c 0,22,23
 339 261 339 261 364.5 222.5 c 128,-1,24
 390 184 390 184 432 184 c 0,13,14
344 -20 m 1,25,26
 230 -15 230 -15 153.5 66.5 c 128,-1,27
 77 148 77 148 77 268 c 0,28,29
 77 354 77 354 102 420 c 128,-1,30
 127 486 127 486 173 529 c 128,-1,31
 219 572 219 572 273 599 c 128,-1,32
 327 626 327 626 396 643 c 0,33,34
 545 678 545 678 552 679 c 1,35,-1
 552 834 l 2,36,37
 552 910 552 910 530.5 949.5 c 128,-1,38
 509 989 509 989 454 989 c 0,39,40
 400 989 400 989 377 946 c 128,-1,41
 354 903 354 903 354 816 c 1,42,-1
 78 816 l 1,43,44
 79 1002 79 1002 173 1108.5 c 128,-1,45
 267 1215 267 1215 443 1215 c 0,46,47
 533 1215 533 1215 598 1175 c 128,-1,48
 663 1135 663 1135 683 1068 c 1,49,50
 714 1132 714 1132 780 1173 c 128,-1,51
 846 1214 846 1214 932 1214 c 0,52,53
 1098 1214 1098 1214 1185.5 1117.5 c 128,-1,54
 1273 1021 1273 1021 1273 867 c 0,55,56
 1273 814 1273 814 1253 772 c 128,-1,57
 1233 730 1233 730 1204.5 704 c 128,-1,58
 1176 678 1176 678 1128.5 657.5 c 128,-1,59
 1081 637 1081 637 1042 626.5 c 128,-1,60
 1003 616 1003 616 947 604 c 0,61,62
 942 603 942 603 886.5 593 c 128,-1,63
 831 583 831 583 825 582 c 1,64,-1
 825 473 l 2,65,66
 825 464 825 464 825 447 c 0,67,68
 824 425 824 425 824.5 402.5 c 128,-1,69
 825 380 825 380 825.5 358 c 128,-1,70
 826 336 826 336 829 315 c 128,-1,71
 832 294 832 294 836 275.5 c 128,-1,72
 840 257 840 257 847.5 241.5 c 128,-1,73
 855 226 855 226 864.5 215 c 128,-1,74
 874 204 874 204 888 197.5 c 128,-1,75
 902 191 902 191 920 191 c 0,76,77
 948 191 948 191 966 204 c 128,-1,78
 984 217 984 217 992 243.5 c 128,-1,79
 1000 270 1000 270 1002.5 295.5 c 128,-1,80
 1005 321 1005 321 1005 361 c 2,81,-1
 1005 414 l 1,82,-1
 1273 414 l 1,83,-1
 1273 347 l 2,84,85
 1273 171 1273 171 1186.5 75.5 c 128,-1,86
 1100 -20 1100 -20 930 -20 c 0,87,88
 829 -20 829 -20 753 39.5 c 128,-1,89
 677 99 677 99 661 196 c 1,90,91
 616 93 616 93 533.5 33.5 c 128,-1,92
 451 -26 451 -26 344 -20 c 1,25,26
EndSplineSet
EndChar

StartChar: afii10018
Encoding: 1041 1041 134
Width: 1070
GlyphClass: 2
Flags: W
LayerCount: 2
UndoRedoHistory
Layer: 1
Undoes
EndUndoes
Redoes
EndRedoes
EndUndoRedoHistory
Fore
SplineSet
429 206 m 1,0,-1
 472 206 l 2,1,2
 540 206 540 206 584.5 218 c 128,-1,3
 629 230 629 230 661 261 c 128,-1,4
 693 292 693 292 707 347.5 c 128,-1,5
 721 403 721 403 720 489 c 0,6,7
 719 629 719 629 664 691 c 128,-1,8
 609 753 609 753 468 753 c 2,9,-1
 429 753 l 1,10,-1
 429 206 l 1,0,-1
127 0 m 1,11,-1
 127 1658 l 1,12,-1
 894 1658 l 1,13,-1
 894 1434 l 1,14,-1
 429 1434 l 1,15,-1
 429 964 l 1,16,-1
 478 964 l 2,17,18
 612 964 612 964 706.5 940.5 c 128,-1,19
 801 917 801 917 869 862 c 128,-1,20
 937 807 937 807 969.5 714 c 128,-1,21
 1002 621 1002 621 1002 485 c 0,22,23
 1002 374 1002 374 978.5 290.5 c 128,-1,24
 955 207 955 207 911.5 152 c 128,-1,25
 868 97 868 97 801.5 63 c 128,-1,26
 735 29 735 29 655 14.5 c 128,-1,27
 575 0 575 0 472 0 c 2,28,-1
 127 0 l 1,11,-1
EndSplineSet
EndChar

StartChar: afii10019
Encoding: 1042 1042 135
Width: 1138
GlyphClass: 2
Flags: W
LayerCount: 2
UndoRedoHistory
Layer: 1
Undoes
EndUndoes
Redoes
EndRedoes
EndUndoRedoHistory
Fore
SplineSet
429 982 m 1,0,-1
 523 982 l 2,1,2
 657 982 657 982 707 1039 c 128,-1,3
 757 1096 757 1096 757 1231 c 0,4,5
 757 1301 757 1301 740.5 1344.5 c 128,-1,6
 724 1388 724 1388 685 1410 c 128,-1,7
 646 1432 646 1432 598.5 1439 c 128,-1,8
 551 1446 551 1446 472 1446 c 2,9,-1
 429 1446 l 1,10,-1
 429 982 l 1,0,-1
429 213 m 1,11,-1
 540 213 l 2,12,13
 676 213 676 213 727.5 276 c 128,-1,14
 779 339 779 339 779 484 c 0,15,16
 779 634 779 634 720.5 701.5 c 128,-1,17
 662 769 662 769 524 769 c 2,18,-1
 429 769 l 1,19,-1
 429 213 l 1,11,-1
127 0 m 1,20,-1
 127 1658 l 1,21,-1
 533 1658 l 2,22,23
 648 1658 648 1658 734 1637.5 c 128,-1,24
 820 1617 820 1617 886.5 1569.5 c 128,-1,25
 953 1522 953 1522 986.5 1438 c 128,-1,26
 1020 1354 1020 1354 1019 1235 c 0,27,28
 1018 928 1018 928 776 892 c 1,29,30
 1067 837 1067 837 1068 481 c 0,31,32
 1069 245 1069 245 950 122.5 c 128,-1,33
 831 0 831 0 603 0 c 2,34,-1
 127 0 l 1,20,-1
EndSplineSet
EndChar

StartChar: afii10020
Encoding: 1043 1043 136
Width: 862
GlyphClass: 2
Flags: W
LayerCount: 2
UndoRedoHistory
Layer: 1
Undoes
EndUndoes
Redoes
EndRedoes
EndUndoRedoHistory
Fore
SplineSet
127 0 m 1,0,-1
 127 1658 l 1,1,-1
 822 1658 l 1,2,-1
 822 1435 l 1,3,-1
 429 1435 l 1,4,-1
 429 0 l 1,5,-1
 127 0 l 1,0,-1
EndSplineSet
EndChar

StartChar: afii10021
Encoding: 1044 1044 137
Width: 1356
GlyphClass: 2
Flags: W
LayerCount: 2
UndoRedoHistory
Layer: 1
Undoes
EndUndoes
Redoes
EndRedoes
EndUndoRedoHistory
Fore
SplineSet
374 215 m 1,0,-1
 850 215 l 1,1,-1
 850 1440 l 1,2,-1
 642 1440 l 1,3,-1
 627 1087 l 2,4,5
 621 949 621 949 609.5 836 c 128,-1,6
 598 723 598 723 585.5 645 c 128,-1,7
 573 567 573 567 551 500.5 c 128,-1,8
 529 434 529 434 513.5 396.5 c 128,-1,9
 498 359 498 359 468.5 319.5 c 128,-1,10
 439 280 439 280 423 263.5 c 128,-1,11
 407 247 407 247 374 215 c 1,0,-1
28 -329 m 1,12,-1
 28 215 l 1,13,-1
 94 215 l 1,14,15
 148 247 148 247 188.5 301 c 128,-1,16
 229 355 229 355 267 456 c 128,-1,17
 305 557 305 557 330.5 727 c 128,-1,18
 356 897 356 897 369 1137 c 1,19,-1
 401 1658 l 1,20,-1
 1141 1658 l 1,21,-1
 1141 215 l 1,22,-1
 1316 215 l 1,23,-1
 1316 -329 l 1,24,-1
 1101 -329 l 1,25,-1
 1081 0 l 1,26,-1
 269 0 l 1,27,-1
 249 -329 l 1,28,-1
 28 -329 l 1,12,-1
EndSplineSet
EndChar

StartChar: afii10024
Encoding: 1046 1046 140
Width: 1503
GlyphClass: 2
Flags: W
LayerCount: 2
UndoRedoHistory
Layer: 1
Undoes
EndUndoes
Redoes
EndRedoes
EndUndoRedoHistory
Fore
SplineSet
6 0 m 1,0,-1
 372 840 l 1,1,-1
 32 1658 l 1,2,-1
 318 1658 l 1,3,-1
 613 868 l 1,4,-1
 628 868 l 1,5,-1
 628 1658 l 1,6,-1
 874 1658 l 1,7,-1
 874 868 l 1,8,-1
 889 868 l 1,9,-1
 1184 1658 l 1,10,-1
 1471 1658 l 1,11,-1
 1131 840 l 1,12,-1
 1497 0 l 1,13,-1
 1215 0 l 1,14,-1
 890 818 l 1,15,-1
 874 818 l 1,16,-1
 874 0 l 1,17,-1
 628 0 l 1,18,-1
 628 818 l 1,19,-1
 612 818 l 1,20,-1
 288 0 l 1,21,-1
 6 0 l 1,0,-1
EndSplineSet
EndChar

StartChar: afii10025
Encoding: 1047 1047 141
Width: 1028
GlyphClass: 2
Flags: W
LayerCount: 2
UndoRedoHistory
Layer: 1
Undoes
EndUndoes
Redoes
EndRedoes
EndUndoRedoHistory
Fore
SplineSet
515 -23 m 0,0,1
 293 -23 293 -23 187 100 c 128,-1,2
 81 223 81 223 81 447 c 2,3,-1
 81 506 l 1,4,-1
 365 506 l 1,5,6
 365 457 365 457 366 443 c 0,7,8
 369 325 369 325 401 269.5 c 128,-1,9
 433 214 433 214 517 214 c 0,10,11
 555 214 555 214 582.5 226.5 c 128,-1,12
 610 239 610 239 626 260 c 128,-1,13
 642 281 642 281 650.5 316 c 128,-1,14
 659 351 659 351 662 386.5 c 128,-1,15
 665 422 665 422 665 474 c 0,16,17
 665 607 665 607 613.5 676.5 c 128,-1,18
 562 746 562 746 429 755 c 0,19,20
 417 756 417 756 358 756 c 1,21,-1
 358 963 l 1,22,23
 412 963 412 963 423 964 c 0,24,25
 559 970 559 970 612 1034 c 128,-1,26
 665 1098 665 1098 665 1228 c 0,27,28
 665 1336 665 1336 627 1392.5 c 128,-1,29
 589 1449 589 1449 503 1449 c 0,30,31
 347 1449 347 1449 337 1227 c 0,32,33
 336 1215 336 1215 336 1156 c 1,34,-1
 51 1156 l 1,35,-1
 51 1233 l 2,36,37
 51 1443 51 1443 170.5 1560.5 c 128,-1,38
 290 1678 290 1678 498 1678 c 0,39,40
 709 1678 709 1678 828 1562.5 c 128,-1,41
 947 1447 947 1447 947 1237 c 0,42,43
 947 1096 947 1096 886 999.5 c 128,-1,44
 825 903 825 903 725 874 c 1,45,46
 947 797 947 797 947 478 c 0,47,48
 947 241 947 241 843 109 c 128,-1,49
 739 -23 739 -23 515 -23 c 0,0,1
EndSplineSet
EndChar

StartChar: afii10026
Encoding: 1048 1048 142
Width: 1161
GlyphClass: 2
Flags: W
LayerCount: 2
UndoRedoHistory
Layer: 1
Undoes
EndUndoes
Redoes
EndRedoes
EndUndoRedoHistory
Fore
SplineSet
127 0 m 1,0,-1
 127 1658 l 1,1,-1
 378 1658 l 1,2,-1
 378 622 l 1,3,-1
 828 1658 l 1,4,-1
 1034 1658 l 1,5,-1
 1034 0 l 1,6,-1
 780 0 l 1,7,-1
 780 1056 l 1,8,-1
 329 0 l 1,9,-1
 127 0 l 1,0,-1
EndSplineSet
EndChar

StartChar: afii10028
Encoding: 1050 1050 144
Width: 1106
GlyphClass: 2
Flags: W
LayerCount: 2
UndoRedoHistory
Layer: 1
Undoes
EndUndoes
Redoes
EndRedoes
EndUndoRedoHistory
Fore
SplineSet
127 0 m 1,0,-1
 127 1658 l 1,1,-1
 429 1658 l 1,2,-1
 429 960 l 1,3,-1
 488 960 l 1,4,-1
 756 1658 l 1,5,-1
 1056 1658 l 1,6,-1
 745 876 l 1,7,-1
 1081 0 l 1,8,-1
 775 0 l 1,9,-1
 489 772 l 1,10,-1
 429 772 l 1,11,-1
 429 0 l 1,12,-1
 127 0 l 1,0,-1
EndSplineSet
EndChar

StartChar: afii10029
Encoding: 1051 1051 145
Width: 1260
GlyphClass: 2
Flags: W
LayerCount: 2
UndoRedoHistory
Layer: 1
Undoes
EndUndoes
Redoes
EndRedoes
EndUndoRedoHistory
Fore
SplineSet
4 0 m 1,0,-1
 4 218 l 1,1,2
 54 217 54 217 83.5 221 c 128,-1,3
 113 225 113 225 143 245.5 c 128,-1,4
 173 266 173 266 189.5 302.5 c 128,-1,5
 206 339 206 339 222.5 407.5 c 128,-1,6
 239 476 239 476 249.5 571.5 c 128,-1,7
 260 667 260 667 269 810 c 2,8,-1
 324 1658 l 1,9,-1
 1133 1658 l 1,10,-1
 1133 0 l 1,11,-1
 831 0 l 1,12,-1
 831 1432 l 1,13,-1
 590 1432 l 1,14,-1
 554 779 l 2,15,16
 548 677 548 677 541.5 604.5 c 128,-1,17
 535 532 535 532 524.5 453.5 c 128,-1,18
 514 375 514 375 499.5 322.5 c 128,-1,19
 485 270 485 270 463.5 216 c 128,-1,20
 442 162 442 162 413.5 128.5 c 128,-1,21
 385 95 385 95 346 65 c 128,-1,22
 307 35 307 35 257 21 c 128,-1,23
 207 7 207 7 144 1 c 128,-1,24
 81 -5 81 -5 4 0 c 1,0,-1
EndSplineSet
EndChar

StartChar: afii10030
Encoding: 1052 1052 146
Width: 1397
GlyphClass: 2
Flags: W
LayerCount: 2
UndoRedoHistory
Layer: 1
Undoes
EndUndoes
Redoes
EndRedoes
EndUndoRedoHistory
Fore
SplineSet
121 0 m 1,0,-1
 148 1658 l 1,1,-1
 445 1658 l 1,2,-1
 698 543 l 1,3,-1
 958 1658 l 1,4,-1
 1248 1658 l 1,5,-1
 1276 0 l 1,6,-1
 1051 0 l 1,7,-1
 1035 1076 l 1,8,-1
 780 0 l 1,9,-1
 621 0 l 1,10,-1
 362 1079 l 1,11,-1
 348 0 l 1,12,-1
 121 0 l 1,0,-1
EndSplineSet
EndChar

StartChar: afii10033
Encoding: 1055 1055 149
Width: 1206
GlyphClass: 2
Flags: W
LayerCount: 2
UndoRedoHistory
Layer: 1
Undoes
EndUndoes
Redoes
EndRedoes
EndUndoRedoHistory
Fore
SplineSet
124 0 m 1,0,-1
 124 1658 l 1,1,-1
 1082 1658 l 1,2,-1
 1082 0 l 1,3,-1
 783 0 l 1,4,-1
 783 1443 l 1,5,-1
 423 1443 l 1,6,-1
 423 0 l 1,7,-1
 124 0 l 1,0,-1
EndSplineSet
EndChar

StartChar: afii10034
Encoding: 1056 1056 150
Width: 1059
GlyphClass: 2
Flags: W
LayerCount: 2
UndoRedoHistory
Layer: 1
Undoes
EndUndoes
Redoes
EndRedoes
EndUndoRedoHistory
Fore
SplineSet
426 953 m 1,0,-1
 523 953 l 2,1,2
 651 953 651 953 696 1003.5 c 128,-1,3
 741 1054 741 1054 741 1189 c 0,4,5
 741 1266 741 1266 735 1308 c 128,-1,6
 729 1350 729 1350 707 1384.5 c 128,-1,7
 685 1419 685 1419 641.5 1432 c 128,-1,8
 598 1445 598 1445 524 1445 c 2,9,-1
 426 1445 l 1,10,-1
 426 953 l 1,0,-1
124 0 m 1,11,-1
 124 1658 l 1,12,-1
 601 1658 l 2,13,14
 1025 1658 1025 1658 1025 1187 c 0,15,16
 1025 956 1025 956 909 848.5 c 128,-1,17
 793 741 793 741 582 741 c 2,18,-1
 426 741 l 1,19,-1
 426 0 l 1,20,-1
 124 0 l 1,11,-1
EndSplineSet
EndChar

StartChar: afii10037
Encoding: 1059 1059 153
Width: 1015
GlyphClass: 2
Flags: W
LayerCount: 2
UndoRedoHistory
Layer: 1
Undoes
EndUndoes
Redoes
EndRedoes
EndUndoRedoHistory
Fore
SplineSet
107 -290 m 1,0,-1
 107 -76 l 1,1,2
 300 -91 300 -91 358 -34.5 c 128,-1,3
 416 22 416 22 381 174 c 2,4,-1
 39 1658 l 1,5,-1
 321 1658 l 1,6,-1
 457 969 l 1,7,-1
 529 480 l 1,8,-1
 589 967 l 1,9,-1
 707 1658 l 1,10,-1
 994 1658 l 1,11,-1
 680 149 l 2,12,13
 647 -8 647 -8 623.5 -76.5 c 128,-1,14
 600 -145 600 -145 540 -207.5 c 128,-1,15
 480 -270 480 -270 381 -284 c 128,-1,16
 282 -298 282 -298 107 -290 c 1,0,-1
EndSplineSet
EndChar

StartChar: afii10038
Encoding: 1060 1060 154
Width: 1456
GlyphClass: 2
Flags: W
LayerCount: 2
UndoRedoHistory
Layer: 1
Undoes
EndUndoes
Redoes
EndRedoes
EndUndoRedoHistory
Fore
SplineSet
895 380 m 0,0,1
 958 377 958 377 996.5 388 c 128,-1,2
 1035 399 1035 399 1056 430 c 128,-1,3
 1077 461 1077 461 1084 504 c 128,-1,4
 1091 547 1091 547 1091 619 c 2,5,-1
 1091 1066 l 2,6,7
 1091 1137 1091 1137 1084 1180 c 128,-1,8
 1077 1223 1077 1223 1056 1255.5 c 128,-1,9
 1035 1288 1035 1288 996 1300 c 128,-1,10
 957 1312 957 1312 894 1310 c 0,11,12
 892 1310 892 1310 877 1309.5 c 128,-1,13
 862 1309 862 1309 861 1309 c 1,14,-1
 861 381 l 1,15,16
 862 381 862 381 878 380.5 c 128,-1,17
 894 380 894 380 895 380 c 0,0,1
561 380 m 0,18,19
 563 380 563 380 575.5 380.5 c 128,-1,20
 588 381 588 381 590 381 c 1,21,-1
 590 1309 l 1,22,23
 588 1309 588 1309 575 1309.5 c 128,-1,24
 562 1310 562 1310 560 1310 c 0,25,26
 498 1313 498 1313 459.5 1301 c 128,-1,27
 421 1289 421 1289 400 1257 c 128,-1,28
 379 1225 379 1225 372 1181.5 c 128,-1,29
 365 1138 365 1138 365 1067 c 2,30,-1
 365 619 l 2,31,32
 365 478 365 478 402.5 426 c 128,-1,33
 440 374 440 374 561 380 c 0,18,19
590 -63 m 1,34,-1
 590 198 l 1,35,-1
 537 196 l 1,36,37
 328 178 328 178 212 287 c 128,-1,38
 96 396 96 396 96 621 c 2,39,-1
 96 1065 l 2,40,41
 96 1287 96 1287 211 1395 c 128,-1,42
 326 1503 326 1503 532 1489 c 1,43,-1
 590 1488 l 1,44,-1
 590 1786 l 1,45,-1
 861 1786 l 1,46,-1
 861 1488 l 1,47,-1
 919 1489 l 1,48,49
 1128 1503 1128 1503 1244 1395 c 128,-1,50
 1360 1287 1360 1287 1360 1064 c 2,51,-1
 1360 621 l 2,52,53
 1360 397 1360 397 1244 287.5 c 128,-1,54
 1128 178 1128 178 924 196 c 1,55,-1
 861 198 l 1,56,-1
 861 -63 l 1,57,-1
 590 -63 l 1,34,-1
EndSplineSet
EndChar

StartChar: afii10040
Encoding: 1062 1062 156
Width: 1343
GlyphClass: 2
Flags: W
LayerCount: 2
UndoRedoHistory
Layer: 1
Undoes
EndUndoes
Redoes
EndRedoes
EndUndoRedoHistory
Fore
SplineSet
1072 -329 m 1,0,-1
 1040 0 l 1,1,-1
 127 0 l 1,2,-1
 127 1658 l 1,3,-1
 429 1658 l 1,4,-1
 429 209 l 1,5,-1
 805 209 l 1,6,-1
 805 1658 l 1,7,-1
 1106 1658 l 1,8,-1
 1106 209 l 1,9,-1
 1298 209 l 1,10,-1
 1298 -329 l 1,11,-1
 1072 -329 l 1,0,-1
EndSplineSet
EndChar

StartChar: afii10041
Encoding: 1063 1063 157
Width: 1169
GlyphClass: 2
Flags: W
LayerCount: 2
UndoRedoHistory
Layer: 1
Undoes
EndUndoes
Redoes
EndRedoes
EndUndoRedoHistory
Fore
SplineSet
740 0 m 1,0,-1
 740 729 l 1,1,2
 619 706 619 706 518 706 c 0,3,4
 321 706 321 706 207.5 808 c 128,-1,5
 94 910 94 910 94 1100 c 2,6,-1
 94 1658 l 1,7,-1
 379 1658 l 1,8,-1
 379 1101 l 2,9,10
 379 1049 379 1049 387.5 1014 c 128,-1,11
 396 979 396 979 417.5 951 c 128,-1,12
 439 923 439 923 481 909.5 c 128,-1,13
 523 896 523 896 587 896 c 0,14,15
 655 896 655 896 740 913 c 1,16,-1
 740 1658 l 1,17,-1
 1041 1658 l 1,18,-1
 1041 0 l 1,19,-1
 740 0 l 1,0,-1
EndSplineSet
EndChar

StartChar: afii10042
Encoding: 1064 1064 158
Width: 1613
GlyphClass: 2
Flags: W
LayerCount: 2
UndoRedoHistory
Layer: 1
Undoes
EndUndoes
Redoes
EndRedoes
EndUndoRedoHistory
Fore
SplineSet
127 0 m 1,0,-1
 127 1658 l 1,1,-1
 420 1658 l 1,2,-1
 420 216 l 1,3,-1
 666 216 l 1,4,-1
 666 1658 l 1,5,-1
 958 1658 l 1,6,-1
 958 216 l 1,7,-1
 1193 216 l 1,8,-1
 1193 1658 l 1,9,-1
 1486 1658 l 1,10,-1
 1486 0 l 1,11,-1
 127 0 l 1,0,-1
EndSplineSet
EndChar

StartChar: afii10043
Encoding: 1065 1065 159
Width: 1746
GlyphClass: 2
Flags: W
LayerCount: 2
UndoRedoHistory
Layer: 1
Undoes
EndUndoes
Redoes
EndRedoes
EndUndoRedoHistory
Fore
SplineSet
1452 -329 m 1,0,-1
 1422 0 l 1,1,-1
 127 0 l 1,2,-1
 127 1658 l 1,3,-1
 420 1658 l 1,4,-1
 420 209 l 1,5,-1
 666 209 l 1,6,-1
 666 1658 l 1,7,-1
 958 1658 l 1,8,-1
 958 209 l 1,9,-1
 1194 209 l 1,10,-1
 1194 1658 l 1,11,-1
 1487 1658 l 1,12,-1
 1487 209 l 1,13,-1
 1679 209 l 1,14,-1
 1679 -329 l 1,15,-1
 1452 -329 l 1,0,-1
EndSplineSet
EndChar

StartChar: afii10044
Encoding: 1066 1066 160
Width: 1224
GlyphClass: 2
Flags: W
LayerCount: 2
UndoRedoHistory
Layer: 1
Undoes
EndUndoes
Redoes
EndRedoes
EndUndoRedoHistory
Fore
SplineSet
575 206 m 1,0,-1
 633 206 l 2,1,2
 701 206 701 206 745.5 218 c 128,-1,3
 790 230 790 230 822 261 c 128,-1,4
 854 292 854 292 868 347.5 c 128,-1,5
 882 403 882 403 881 489 c 0,6,7
 880 629 880 629 825 691 c 128,-1,8
 770 753 770 753 629 753 c 2,9,-1
 575 753 l 1,10,-1
 575 206 l 1,0,-1
273 0 m 1,11,-1
 273 1441 l 1,12,-1
 -5 1441 l 1,13,-1
 -5 1658 l 1,14,-1
 575 1658 l 1,15,-1
 575 964 l 1,16,-1
 639 964 l 2,17,18
 773 964 773 964 867.5 940.5 c 128,-1,19
 962 917 962 917 1030 862 c 128,-1,20
 1098 807 1098 807 1130.5 714 c 128,-1,21
 1163 621 1163 621 1163 485 c 0,22,23
 1163 374 1163 374 1139.5 290.5 c 128,-1,24
 1116 207 1116 207 1072.5 152 c 128,-1,25
 1029 97 1029 97 962.5 63 c 128,-1,26
 896 29 896 29 816 14.5 c 128,-1,27
 736 0 736 0 633 0 c 2,28,-1
 273 0 l 1,11,-1
EndSplineSet
EndChar

StartChar: afii10045
Encoding: 1067 1067 161
Width: 1593
GlyphClass: 2
Flags: W
LayerCount: 2
UndoRedoHistory
Layer: 1
Undoes
EndUndoes
Redoes
EndRedoes
EndUndoRedoHistory
Fore
SplineSet
1164 0 m 1,0,-1
 1164 1658 l 1,1,-1
 1466 1658 l 1,2,-1
 1466 0 l 1,3,-1
 1164 0 l 1,0,-1
429 206 m 1,4,-1
 482 206 l 2,5,6
 550 206 550 206 594.5 218 c 128,-1,7
 639 230 639 230 671 261 c 128,-1,8
 703 292 703 292 717 347.5 c 128,-1,9
 731 403 731 403 730 489 c 0,10,11
 729 629 729 629 674 691 c 128,-1,12
 619 753 619 753 478 753 c 2,13,-1
 429 753 l 1,14,-1
 429 206 l 1,4,-1
127 0 m 1,15,-1
 127 1658 l 1,16,-1
 429 1658 l 1,17,-1
 429 964 l 1,18,-1
 488 964 l 2,19,20
 622 964 622 964 716 940.5 c 128,-1,21
 810 917 810 917 878 862 c 128,-1,22
 946 807 946 807 978.5 714 c 128,-1,23
 1011 621 1011 621 1011 485 c 0,24,25
 1011 347 1011 347 976 251.5 c 128,-1,26
 941 156 941 156 870 101.5 c 128,-1,27
 799 47 799 47 705 23.5 c 128,-1,28
 611 0 611 0 481 0 c 2,29,-1
 127 0 l 1,15,-1
EndSplineSet
EndChar

StartChar: afii10046
Encoding: 1068 1068 162
Width: 1074
GlyphClass: 2
Flags: W
LayerCount: 2
UndoRedoHistory
Layer: 1
Undoes
EndUndoes
Redoes
EndRedoes
EndUndoRedoHistory
Fore
SplineSet
429 206 m 1,0,-1
 481 206 l 2,1,2
 549 206 549 206 593.5 218 c 128,-1,3
 638 230 638 230 670 261 c 128,-1,4
 702 292 702 292 716 347.5 c 128,-1,5
 730 403 730 403 729 489 c 0,6,7
 728 629 728 629 673 691 c 128,-1,8
 618 753 618 753 477 753 c 2,9,-1
 429 753 l 1,10,-1
 429 206 l 1,0,-1
127 0 m 1,11,-1
 127 1658 l 1,12,-1
 429 1658 l 1,13,-1
 429 964 l 1,14,-1
 487 964 l 2,15,16
 621 964 621 964 715.5 940.5 c 128,-1,17
 810 917 810 917 878 862 c 128,-1,18
 946 807 946 807 978.5 714 c 128,-1,19
 1011 621 1011 621 1011 485 c 0,20,21
 1011 347 1011 347 976 251.5 c 128,-1,22
 941 156 941 156 869.5 101.5 c 128,-1,23
 798 47 798 47 704 23.5 c 128,-1,24
 610 0 610 0 480 0 c 2,25,-1
 127 0 l 1,11,-1
EndSplineSet
EndChar

StartChar: afii10047
Encoding: 1069 1069 163
Width: 1117
GlyphClass: 2
Flags: W
LayerCount: 2
UndoRedoHistory
Layer: 1
Undoes
EndUndoes
Redoes
EndRedoes
EndUndoRedoHistory
Fore
SplineSet
548 -3 m 0,0,1
 424 -3 424 -3 336 30 c 128,-1,2
 248 63 248 63 196.5 127 c 128,-1,3
 145 191 145 191 122 276.5 c 128,-1,4
 99 362 99 362 99 476 c 2,5,-1
 99 561 l 1,6,-1
 390 561 l 1,7,-1
 390 477 l 2,8,9
 390 475 390 475 390 472 c 0,10,11
 390 441 390 441 390 426 c 128,-1,12
 390 411 390 411 391.5 384.5 c 128,-1,13
 393 358 393 358 395.5 344.5 c 128,-1,14
 398 331 398 331 403.5 310.5 c 128,-1,15
 409 290 409 290 416.5 279 c 128,-1,16
 424 268 424 268 436 255 c 128,-1,17
 448 242 448 242 463.5 235.5 c 128,-1,18
 479 229 479 229 499.5 224.5 c 128,-1,19
 520 220 520 220 546 220 c 0,20,21
 584 220 584 220 612.5 229 c 128,-1,22
 641 238 641 238 659 257.5 c 128,-1,23
 677 277 677 277 688.5 299 c 128,-1,24
 700 321 700 321 705.5 356.5 c 128,-1,25
 711 392 711 392 712.5 422 c 128,-1,26
 714 452 714 452 714 498 c 2,27,-1
 714 765 l 1,28,-1
 440 765 l 1,29,-1
 440 938 l 1,30,-1
 714 938 l 1,31,-1
 714 1200 l 2,32,33
 714 1347 714 1347 677.5 1408.5 c 128,-1,34
 641 1470 641 1470 546 1470 c 0,35,36
 509 1470 509 1470 482 1461.5 c 128,-1,37
 455 1453 455 1453 438 1433 c 128,-1,38
 421 1413 421 1413 411 1392.5 c 128,-1,39
 401 1372 401 1372 396.5 1336 c 128,-1,40
 392 1300 392 1300 391 1273.5 c 128,-1,41
 390 1247 390 1247 390 1200 c 2,42,-1
 390 1112 l 1,43,-1
 99 1112 l 1,44,-1
 99 1188 l 2,45,46
 99 1305 99 1305 120.5 1393 c 128,-1,47
 142 1481 142 1481 191.5 1551 c 128,-1,48
 241 1621 241 1621 330.5 1657.5 c 128,-1,49
 420 1694 420 1694 548 1694 c 0,50,51
 682 1694 682 1694 775.5 1653.5 c 128,-1,52
 869 1613 869 1613 921.5 1536 c 128,-1,53
 974 1459 974 1459 996.5 1362 c 128,-1,54
 1019 1265 1019 1265 1019 1137 c 2,55,-1
 1019 559 l 2,56,57
 1019 424 1019 424 996.5 325 c 128,-1,58
 974 226 974 226 921.5 150 c 128,-1,59
 869 74 869 74 775.5 35.5 c 128,-1,60
 682 -3 682 -3 548 -3 c 0,0,1
EndSplineSet
EndChar

StartChar: afii10048
Encoding: 1070 1070 164
Width: 1577
GlyphClass: 2
Flags: W
LayerCount: 2
UndoRedoHistory
Layer: 1
Undoes
EndUndoes
Redoes
EndRedoes
EndUndoRedoHistory
Fore
SplineSet
1041 204 m 128,-1,1
 1082 204 1082 204 1112 217 c 128,-1,2
 1142 230 1142 230 1159.5 251 c 128,-1,3
 1177 272 1177 272 1187 306 c 128,-1,4
 1197 340 1197 340 1200 374 c 128,-1,5
 1203 408 1203 408 1203 455 c 2,6,-1
 1203 1208 l 2,7,8
 1203 1268 1203 1268 1197.5 1308 c 128,-1,9
 1192 1348 1192 1348 1175.5 1383.5 c 128,-1,10
 1159 1419 1159 1419 1126 1436.5 c 128,-1,11
 1093 1454 1093 1454 1041 1454 c 0,12,13
 990 1454 990 1454 956.5 1436.5 c 128,-1,14
 923 1419 923 1419 907 1383.5 c 128,-1,15
 891 1348 891 1348 885 1308 c 128,-1,16
 879 1268 879 1268 879 1208 c 2,17,-1
 879 455 l 2,18,19
 879 408 879 408 882 374 c 128,-1,20
 885 340 885 340 895.5 306 c 128,-1,21
 906 272 906 272 923 251 c 128,-1,22
 940 230 940 230 970 217 c 128,-1,0
 1000 204 1000 204 1041 204 c 128,-1,1
1041 -20 m 0,23,24
 918 -20 918 -20 832 18.5 c 128,-1,25
 746 57 746 57 696.5 132.5 c 128,-1,26
 647 208 647 208 625 306.5 c 128,-1,27
 603 405 603 405 603 538 c 2,28,-1
 603 733 l 1,29,-1
 418 733 l 1,30,-1
 418 0 l 1,31,-1
 127 0 l 1,32,-1
 127 1658 l 1,33,-1
 418 1658 l 1,34,-1
 418 957 l 1,35,-1
 603 957 l 1,36,-1
 603 1126 l 2,37,38
 603 1259 603 1259 625 1356.5 c 128,-1,39
 647 1454 647 1454 696.5 1528 c 128,-1,40
 746 1602 746 1602 832 1639.5 c 128,-1,41
 918 1677 918 1677 1041 1677 c 0,42,43
 1163 1677 1163 1677 1249.5 1639 c 128,-1,44
 1336 1601 1336 1601 1386 1527 c 128,-1,45
 1436 1453 1436 1453 1458 1355 c 128,-1,46
 1480 1257 1480 1257 1480 1126 c 2,47,-1
 1480 538 l 2,48,49
 1480 407 1480 407 1458 308 c 128,-1,50
 1436 209 1436 209 1386 133.5 c 128,-1,51
 1336 58 1336 58 1249.5 19 c 128,-1,52
 1163 -20 1163 -20 1041 -20 c 0,23,24
EndSplineSet
EndChar

StartChar: afii10049
Encoding: 1071 1071 165
Width: 1174
GlyphClass: 2
Flags: W
LayerCount: 2
UndoRedoHistory
Layer: 1
Undoes
EndUndoes
Redoes
EndRedoes
EndUndoRedoHistory
Fore
SplineSet
689 885 m 2,0,-1
 745 885 l 1,1,-1
 745 1447 l 1,2,-1
 684 1447 l 2,3,4
 545 1447 545 1447 477.5 1383 c 128,-1,5
 410 1319 410 1319 410 1183 c 0,6,7
 410 1033 410 1033 474 959 c 128,-1,8
 538 885 538 885 689 885 c 2,0,-1
21 0 m 1,9,-1
 356 741 l 1,10,11
 251 796 251 796 189 909 c 128,-1,12
 127 1022 127 1022 127 1183 c 0,13,14
 127 1425 127 1425 259.5 1541.5 c 128,-1,15
 392 1658 392 1658 674 1658 c 2,16,-1
 1047 1658 l 1,17,-1
 1047 0 l 1,18,-1
 745 0 l 1,19,-1
 745 671 l 1,20,-1
 655 671 l 1,21,-1
 619 671 l 1,22,-1
 353 0 l 1,23,-1
 21 0 l 1,9,-1
EndSplineSet
EndChar

StartChar: afii10051
Encoding: 1026 1026 166
Width: 1206
GlyphClass: 2
Flags: W
LayerCount: 2
UndoRedoHistory
Layer: 1
Undoes
EndUndoes
Redoes
EndRedoes
EndUndoRedoHistory
Fore
SplineSet
656 0 m 1,0,-1
 656 193 l 1,1,2
 760 193 760 193 801 254.5 c 128,-1,3
 842 316 842 316 842 430 c 2,4,-1
 842 642 l 2,5,6
 842 703 842 703 804 750 c 128,-1,7
 766 797 766 797 694 797 c 0,8,9
 628 797 628 797 539 749 c 1,10,-1
 539 0 l 1,11,-1
 243 0 l 1,12,-1
 243 1442 l 1,13,-1
 13 1442 l 1,14,-1
 13 1658 l 1,15,-1
 808 1658 l 1,16,-1
 808 1442 l 1,17,-1
 539 1442 l 1,18,-1
 539 906 l 1,19,20
 636 983 636 983 774 983 c 0,21,22
 840 983 840 983 901 962.5 c 128,-1,23
 962 942 962 942 1011.5 904 c 128,-1,24
 1061 866 1061 866 1091 803 c 128,-1,25
 1121 740 1121 740 1121 662 c 2,26,-1
 1121 429 l 2,27,28
 1121 201 1121 201 1023 100.5 c 128,-1,29
 925 0 925 0 713 0 c 2,30,-1
 656 0 l 1,0,-1
EndSplineSet
EndChar

StartChar: afii10053
Encoding: 1028 1028 168
Width: 1080
GlyphClass: 2
Flags: W
LayerCount: 2
UndoRedoHistory
Layer: 1
Undoes
EndUndoes
Redoes
EndRedoes
EndUndoRedoHistory
Fore
SplineSet
569 -20 m 0,0,1
 462 -20 462 -20 380 7 c 128,-1,2
 298 34 298 34 244.5 82 c 128,-1,3
 191 130 191 130 157.5 201 c 128,-1,4
 124 272 124 272 110.5 353.5 c 128,-1,5
 97 435 97 435 97 537 c 2,6,-1
 97 1115 l 2,7,8
 97 1223 97 1223 111 1306.5 c 128,-1,9
 125 1390 125 1390 158 1461.5 c 128,-1,10
 191 1533 191 1533 244.5 1579 c 128,-1,11
 298 1625 298 1625 379.5 1651 c 128,-1,12
 461 1677 461 1677 569 1677 c 0,13,14
 693 1677 693 1677 781 1644 c 128,-1,15
 869 1611 869 1611 920 1547 c 128,-1,16
 971 1483 971 1483 994 1397.5 c 128,-1,17
 1017 1312 1017 1312 1017 1198 c 2,18,-1
 1017 1121 l 1,19,-1
 726 1121 l 1,20,-1
 726 1197 l 2,21,22
 726 1321 726 1321 713 1364 c 0,23,24
 687 1448 687 1448 586 1454 c 0,25,26
 578 1454 578 1454 570 1454 c 0,27,28
 532 1454 532 1454 503.5 1445 c 128,-1,29
 475 1436 475 1436 457 1416.5 c 128,-1,30
 439 1397 439 1397 428 1375 c 128,-1,31
 417 1353 417 1353 411.5 1317.5 c 128,-1,32
 406 1282 406 1282 404.5 1252 c 128,-1,33
 403 1222 403 1222 403 1176 c 2,34,-1
 403 941 l 1,35,-1
 748 941 l 1,36,-1
 748 756 l 1,37,-1
 403 756 l 1,38,-1
 403 474 l 2,39,40
 403 328 403 328 439.5 266 c 128,-1,41
 476 204 476 204 570 204 c 0,42,43
 602 204 602 204 626.5 211.5 c 128,-1,44
 651 219 651 219 667.5 230.5 c 128,-1,45
 684 242 684 242 695.5 263.5 c 128,-1,46
 707 285 707 285 713 303.5 c 128,-1,47
 719 322 719 322 722 355 c 128,-1,48
 725 388 725 388 725.5 411 c 128,-1,49
 726 434 726 434 726 474 c 2,50,-1
 726 560 l 1,51,-1
 1017 560 l 1,52,-1
 1017 486 l 2,53,54
 1017 393 1017 393 1004 319 c 128,-1,55
 991 245 991 245 959.5 180 c 128,-1,56
 928 115 928 115 878 72 c 128,-1,57
 828 29 828 29 750 4.5 c 128,-1,58
 672 -20 672 -20 569 -20 c 0,0,1
EndSplineSet
EndChar

StartChar: afii10055
Encoding: 1030 1030 170
Width: 542
GlyphClass: 2
Flags: W
LayerCount: 2
UndoRedoHistory
Layer: 1
Undoes
EndUndoes
Redoes
EndRedoes
EndUndoRedoHistory
Fore
SplineSet
126 0 m 1,0,-1
 126 1658 l 1,1,-1
 424 1658 l 1,2,-1
 424 0 l 1,3,-1
 126 0 l 1,0,-1
EndSplineSet
EndChar

StartChar: afii10057
Encoding: 1032 1032 172
Width: 646
GlyphClass: 2
Flags: W
LayerCount: 2
UndoRedoHistory
Layer: 1
Undoes
EndUndoes
Redoes
EndRedoes
EndUndoRedoHistory
Fore
SplineSet
12 -35 m 1,0,-1
 12 177 l 1,1,2
 144 176 144 176 188 217 c 128,-1,3
 232 258 232 258 232 386 c 2,4,-1
 232 1658 l 1,5,-1
 534 1658 l 1,6,-1
 534 379 l 1,7,8
 533 270 533 270 515 195.5 c 128,-1,9
 497 121 497 121 454.5 67.5 c 128,-1,10
 412 14 412 14 338.5 -10.5 c 128,-1,11
 265 -35 265 -35 156 -35 c 2,12,-1
 12 -35 l 1,0,-1
EndSplineSet
EndChar

StartChar: afii10058
Encoding: 1033 1033 173
Width: 1764
GlyphClass: 2
Flags: W
LayerCount: 2
UndoRedoHistory
Layer: 1
Undoes
EndUndoes
Redoes
EndRedoes
EndUndoRedoHistory
Fore
SplineSet
1151 206 m 1,0,-1
 1177 206 l 2,1,2
 1268 206 1268 206 1319.5 228.5 c 128,-1,3
 1371 251 1371 251 1398 313.5 c 128,-1,4
 1425 376 1425 376 1424 489 c 0,5,6
 1423 629 1423 629 1368 691 c 128,-1,7
 1313 753 1313 753 1172 753 c 2,8,-1
 1151 753 l 1,9,-1
 1151 206 l 1,0,-1
23 0 m 1,10,-1
 23 218 l 1,11,12
 111 213 111 213 160 247.5 c 128,-1,13
 209 282 209 282 238 382 c 128,-1,14
 267 482 267 482 280 674 c 1,15,-1
 341 1658 l 1,16,-1
 1151 1658 l 1,17,-1
 1151 964 l 1,18,-1
 1182 964 l 2,19,20
 1316 964 1316 964 1410.5 940.5 c 128,-1,21
 1505 917 1505 917 1573 862 c 128,-1,22
 1641 807 1641 807 1673.5 714 c 128,-1,23
 1706 621 1706 621 1706 485 c 0,24,25
 1706 347 1706 347 1671 251.5 c 128,-1,26
 1636 156 1636 156 1565 101.5 c 128,-1,27
 1494 47 1494 47 1400 23.5 c 128,-1,28
 1306 0 1306 0 1176 0 c 2,29,-1
 849 0 l 1,30,-1
 849 1432 l 1,31,-1
 609 1432 l 1,32,-1
 565 671 l 2,33,34
 544 303 544 303 441 147.5 c 128,-1,35
 338 -8 338 -8 108 -1 c 1,36,-1
 23 0 l 1,10,-1
EndSplineSet
EndChar

StartChar: afii10059
Encoding: 1034 1034 174
Width: 1655
GlyphClass: 2
Flags: W
LayerCount: 2
UndoRedoHistory
Layer: 1
Undoes
EndUndoes
Redoes
EndRedoes
EndUndoRedoHistory
Fore
SplineSet
1042 206 m 1,0,-1
 1066 206 l 2,1,2
 1134 206 1134 206 1178.5 218 c 128,-1,3
 1223 230 1223 230 1255 261 c 128,-1,4
 1287 292 1287 292 1301 347.5 c 128,-1,5
 1315 403 1315 403 1314 489 c 0,6,7
 1313 629 1313 629 1258 691 c 128,-1,8
 1203 753 1203 753 1061 753 c 2,9,-1
 1042 753 l 1,10,-1
 1042 206 l 1,0,-1
1065 0 m 2,11,-1
 740 1 l 1,12,-1
 740 751 l 1,13,-1
 429 751 l 1,14,-1
 429 1 l 1,15,-1
 127 1 l 1,16,-1
 127 1660 l 1,17,-1
 429 1660 l 1,18,-1
 429 974 l 1,19,-1
 740 974 l 1,20,-1
 740 1660 l 1,21,-1
 1042 1660 l 1,22,-1
 1042 964 l 1,23,-1
 1072 964 l 2,24,25
 1206 964 1206 964 1300 940.5 c 128,-1,26
 1394 917 1394 917 1462 862 c 128,-1,27
 1530 807 1530 807 1562.5 714 c 128,-1,28
 1595 621 1595 621 1595 485 c 0,29,30
 1595 347 1595 347 1560 251.5 c 128,-1,31
 1525 156 1525 156 1454 101.5 c 128,-1,32
 1383 47 1383 47 1289 23.5 c 128,-1,33
 1195 0 1195 0 1065 0 c 2,11,-1
EndSplineSet
EndChar

StartChar: afii10060
Encoding: 1035 1035 175
Width: 1117
GlyphClass: 2
Flags: W
LayerCount: 2
UndoRedoHistory
Layer: 1
Undoes
EndUndoes
Redoes
EndRedoes
EndUndoRedoHistory
Fore
SplineSet
234 0 m 1,0,-1
 234 1435 l 1,1,-1
 9 1435 l 1,2,-1
 9 1658 l 1,3,-1
 778 1658 l 1,4,-1
 778 1435 l 1,5,-1
 532 1435 l 1,6,-1
 532 912 l 1,7,8
 543 919 543 919 563 928.5 c 128,-1,9
 583 938 583 938 643.5 954.5 c 128,-1,10
 704 971 704 971 764 971 c 0,11,12
 877 971 877 971 945 913.5 c 128,-1,13
 1013 856 1013 856 1013 764 c 2,14,-1
 1013 0 l 1,15,-1
 733 0 l 1,16,-1
 733 714 l 2,17,18
 733 758 733 758 717 780 c 128,-1,19
 701 802 701 802 655 801 c 0,20,21
 641 801 641 801 626 798 c 128,-1,22
 611 795 611 795 600 791.5 c 128,-1,23
 589 788 589 788 576 782 c 128,-1,24
 563 776 563 776 556 772.5 c 128,-1,25
 549 769 549 769 540 764 c 2,26,-1
 532 759 l 1,27,-1
 532 0 l 1,28,-1
 234 0 l 1,0,-1
EndSplineSet
EndChar

StartChar: afii10066
Encoding: 1073 1073 179
Width: 936
GlyphClass: 2
Flags: W
LayerCount: 2
UndoRedoHistory
Layer: 1
Undoes
EndUndoes
Redoes
EndRedoes
EndUndoRedoHistory
Fore
SplineSet
479 175 m 0,0,1
 537 175 537 175 557.5 222.5 c 128,-1,2
 578 270 578 270 578 402 c 2,3,-1
 578 759 l 2,4,5
 578 857 578 857 559.5 897 c 128,-1,6
 541 937 541 937 493 937 c 0,7,8
 427 937 427 937 374 848 c 1,9,-1
 374 422 l 2,10,11
 374 275 374 275 394 225 c 128,-1,12
 414 175 414 175 479 175 c 0,0,1
460 -18 m 0,13,14
 268 -17 268 -17 183.5 93 c 128,-1,15
 99 203 99 203 99 422 c 2,16,-1
 99 1034 l 2,17,18
 99 1164 99 1164 109.5 1258.5 c 128,-1,19
 120 1353 120 1353 138 1415 c 128,-1,20
 156 1477 156 1477 189.5 1518.5 c 128,-1,21
 223 1560 223 1560 258.5 1582 c 128,-1,22
 294 1604 294 1604 350.5 1622 c 128,-1,23
 407 1640 407 1640 460 1651 c 128,-1,24
 513 1662 513 1662 593 1684.5 c 128,-1,25
 673 1707 673 1707 745 1736 c 1,26,-1
 786 1517 l 1,27,28
 715 1484 715 1484 643.5 1465 c 128,-1,29
 572 1446 572 1446 532 1441.5 c 128,-1,30
 492 1437 492 1437 455.5 1425 c 128,-1,31
 419 1413 419 1413 402 1388 c 128,-1,32
 385 1363 385 1363 375.5 1311 c 128,-1,33
 366 1259 366 1259 366 1167 c 2,34,-1
 366 1057 l 1,35,36
 466 1114 466 1114 568 1114 c 0,37,38
 704 1114 704 1114 777 1014.5 c 128,-1,39
 850 915 850 915 850 686 c 2,40,-1
 850 430 l 2,41,42
 850 322 850 322 831 242 c 128,-1,43
 812 162 812 162 779 112.5 c 128,-1,44
 746 63 746 63 695.5 33.5 c 128,-1,45
 645 4 645 4 589 -7 c 128,-1,46
 533 -18 533 -18 460 -18 c 0,13,14
EndSplineSet
EndChar

StartChar: afii10067
Encoding: 1074 1074 180
Width: 938
GlyphClass: 2
Flags: W
LayerCount: 2
UndoRedoHistory
Layer: 1
Undoes
EndUndoes
Redoes
EndRedoes
EndUndoRedoHistory
Fore
SplineSet
383 715 m 1,0,-1
 473 715 l 2,1,2
 535 715 535 715 564 750.5 c 128,-1,3
 593 786 593 786 593 867 c 0,4,5
 593 942 593 942 559 976 c 128,-1,6
 525 1010 525 1010 451 1010 c 2,7,-1
 383 1010 l 1,8,-1
 383 715 l 1,0,-1
383 182 m 1,9,-1
 443 182 l 2,10,11
 473 182 473 182 493 184.5 c 128,-1,12
 513 187 513 187 536 196.5 c 128,-1,13
 559 206 559 206 573 224 c 128,-1,14
 587 242 587 242 596 274.5 c 128,-1,15
 605 307 605 307 605 353 c 0,16,17
 605 398 605 398 600.5 430.5 c 128,-1,18
 596 463 596 463 584.5 483 c 128,-1,19
 573 503 573 503 561.5 515 c 128,-1,20
 550 527 550 527 529 532.5 c 128,-1,21
 508 538 508 538 492.5 539 c 128,-1,22
 477 540 477 540 449 540 c 2,23,-1
 383 540 l 1,24,-1
 383 182 l 1,9,-1
108 0 m 1,25,-1
 108 1184 l 1,26,-1
 484 1184 l 2,27,28
 590 1184 590 1184 663.5 1162.5 c 128,-1,29
 737 1141 737 1141 776 1099.5 c 128,-1,30
 815 1058 815 1058 831.5 1009.5 c 128,-1,31
 848 961 848 961 849 896 c 0,32,33
 851 793 851 793 811 731.5 c 128,-1,34
 771 670 771 670 682 645 c 1,35,36
 792 621 792 621 835.5 543 c 128,-1,37
 879 465 879 465 879 344 c 0,38,39
 879 171 879 171 789.5 85.5 c 128,-1,40
 700 0 700 0 482 0 c 2,41,-1
 108 0 l 1,25,-1
EndSplineSet
EndChar

StartChar: afii10068
Encoding: 1075 1075 181
Width: 651
GlyphClass: 2
Flags: W
LayerCount: 2
UndoRedoHistory
Layer: 1
Undoes
EndUndoes
Redoes
EndRedoes
EndUndoRedoHistory
Fore
SplineSet
107 0 m 1,0,-1
 107 1184 l 1,1,-1
 639 1184 l 1,2,-1
 639 991 l 1,3,-1
 387 991 l 1,4,-1
 387 0 l 1,5,-1
 107 0 l 1,0,-1
EndSplineSet
EndChar

StartChar: afii10069
Encoding: 1076 1076 182
Width: 1122
GlyphClass: 2
Flags: W
LayerCount: 2
UndoRedoHistory
Layer: 1
Undoes
EndUndoes
Redoes
EndRedoes
EndUndoRedoHistory
Fore
SplineSet
315 185 m 1,0,-1
 667 185 l 1,1,-1
 667 1000 l 1,2,-1
 547 1000 l 1,3,-1
 537 888 l 1,4,5
 535 752 535 752 522 643.5 c 128,-1,6
 509 535 509 535 489.5 463 c 128,-1,7
 470 391 470 391 440.5 334.5 c 128,-1,8
 411 278 411 278 382 245.5 c 128,-1,9
 353 213 353 213 315 185 c 1,0,-1
28 -313 m 1,10,-1
 28 178 l 1,11,12
 96 222 96 222 145.5 281 c 128,-1,13
 195 340 195 340 235 430 c 128,-1,14
 275 520 275 520 296.5 650 c 128,-1,15
 318 780 318 780 321 950 c 1,16,-1
 335 1184 l 1,17,-1
 929 1184 l 1,18,-1
 929 185 l 1,19,-1
 1088 185 l 1,20,-1
 1088 -313 l 1,21,-1
 886 -313 l 1,22,-1
 865 0 l 1,23,-1
 251 0 l 1,24,-1
 231 -313 l 1,25,-1
 28 -313 l 1,10,-1
EndSplineSet
EndChar

StartChar: afii10072
Encoding: 1078 1078 185
Width: 1273
GlyphClass: 2
Flags: W
LayerCount: 2
UndoRedoHistory
Layer: 1
Undoes
EndUndoes
Redoes
EndRedoes
EndUndoRedoHistory
Fore
SplineSet
11 0 m 1,0,-1
 276 600 l 1,1,-1
 27 1184 l 1,2,-1
 282 1184 l 1,3,-1
 499 617 l 1,4,-1
 518 617 l 1,5,-1
 518 1184 l 1,6,-1
 750 1184 l 1,7,-1
 750 617 l 1,8,-1
 768 617 l 1,9,-1
 990 1184 l 1,10,-1
 1245 1184 l 1,11,-1
 992 600 l 1,12,-1
 1262 0 l 1,13,-1
 1017 0 l 1,14,-1
 769 576 l 1,15,-1
 750 576 l 1,16,-1
 750 0 l 1,17,-1
 518 0 l 1,18,-1
 518 576 l 1,19,-1
 498 576 l 1,20,-1
 256 0 l 1,21,-1
 11 0 l 1,0,-1
EndSplineSet
EndChar

StartChar: afii10073
Encoding: 1079 1079 186
Width: 837
GlyphClass: 2
Flags: W
LayerCount: 2
UndoRedoHistory
Layer: 1
Undoes
EndUndoes
Redoes
EndRedoes
EndUndoRedoHistory
Fore
SplineSet
420 -21 m 0,0,1
 229 -21 229 -21 151.5 80.5 c 128,-1,2
 74 182 74 182 74 381 c 1,3,-1
 304 381 l 1,4,5
 304 273 304 273 335 223.5 c 128,-1,6
 366 174 366 174 427 174 c 0,7,8
 462 174 462 174 485 187.5 c 128,-1,9
 508 201 508 201 518 229.5 c 128,-1,10
 528 258 528 258 531.5 287 c 128,-1,11
 535 316 535 316 535 362 c 0,12,13
 535 463 535 463 488 494.5 c 128,-1,14
 441 526 441 526 305 526 c 1,15,-1
 305 696 l 1,16,17
 436 696 436 696 481 731.5 c 128,-1,18
 526 767 526 767 526 860 c 0,19,20
 526 1003 526 1003 412 1003 c 0,21,22
 349 1003 349 1003 320.5 965 c 128,-1,23
 292 927 292 927 292 826 c 1,24,-1
 63 826 l 1,25,26
 63 1015 63 1015 150 1108.5 c 128,-1,27
 237 1202 237 1202 425 1202 c 0,28,29
 514 1202 514 1202 582.5 1176 c 128,-1,30
 651 1150 651 1150 692 1104.5 c 128,-1,31
 733 1059 733 1059 753.5 1002 c 128,-1,32
 774 945 774 945 774 880 c 0,33,34
 774 812 774 812 757.5 761 c 128,-1,35
 741 710 741 710 712 680.5 c 128,-1,36
 683 651 683 651 652 635.5 c 128,-1,37
 621 620 621 620 585 614 c 1,38,39
 620 604 620 604 641.5 595.5 c 128,-1,40
 663 587 663 587 691.5 566 c 128,-1,41
 720 545 720 545 736.5 517 c 128,-1,42
 753 489 753 489 765 439.5 c 128,-1,43
 777 390 777 390 777 324 c 0,44,45
 777 159 777 159 688.5 69 c 128,-1,46
 600 -21 600 -21 420 -21 c 0,0,1
EndSplineSet
EndChar

StartChar: afii10074
Encoding: 1080 1080 187
Width: 991
GlyphClass: 2
Flags: W
LayerCount: 2
UndoRedoHistory
Layer: 1
Undoes
EndUndoes
Redoes
EndRedoes
EndUndoRedoHistory
Fore
SplineSet
107 0 m 1,0,-1
 107 1184 l 1,1,-1
 335 1184 l 1,2,-1
 335 477 l 1,3,-1
 666 1184 l 1,4,-1
 884 1184 l 1,5,-1
 884 0 l 1,6,-1
 656 0 l 1,7,-1
 656 710 l 1,8,-1
 330 0 l 1,9,-1
 107 0 l 1,0,-1
EndSplineSet
EndChar

StartChar: afii10076
Encoding: 1082 1082 189
Width: 944
GlyphClass: 2
Flags: W
LayerCount: 2
UndoRedoHistory
Layer: 1
Undoes
EndUndoes
Redoes
EndRedoes
EndUndoRedoHistory
Fore
SplineSet
107 0 m 1,0,-1
 107 1184 l 1,1,-1
 387 1184 l 1,2,-1
 387 703 l 1,3,-1
 440 703 l 1,4,-1
 636 1184 l 1,5,-1
 931 1184 l 1,6,-1
 694 617 l 1,7,-1
 935 0 l 1,8,-1
 640 0 l 1,9,-1
 440 538 l 1,10,-1
 387 538 l 1,11,-1
 387 0 l 1,12,-1
 107 0 l 1,0,-1
EndSplineSet
EndChar

StartChar: afii10077
Encoding: 1083 1083 190
Width: 1074
GlyphClass: 2
Flags: W
LayerCount: 2
UndoRedoHistory
Layer: 1
Undoes
EndUndoes
Redoes
EndRedoes
EndUndoRedoHistory
Fore
SplineSet
33 -7 m 1,0,-1
 33 193 l 1,1,2
 67 191 67 191 92 194.5 c 128,-1,3
 117 198 117 198 137.5 210.5 c 128,-1,4
 158 223 158 223 172 237 c 128,-1,5
 186 251 186 251 197 282 c 128,-1,6
 208 313 208 313 214.5 340 c 128,-1,7
 221 367 221 367 226.5 418 c 128,-1,8
 232 469 232 469 235 512 c 128,-1,9
 238 555 238 555 242 628 c 2,10,-1
 278 1184 l 1,11,-1
 966 1184 l 1,12,-1
 966 0 l 1,13,-1
 687 0 l 1,14,-1
 687 983 l 1,15,-1
 518 983 l 1,16,-1
 495 613 l 1,17,18
 488 483 488 483 476.5 391 c 128,-1,19
 465 299 465 299 445 227 c 128,-1,20
 425 155 425 155 398 111 c 128,-1,21
 371 67 371 67 329.5 38.5 c 128,-1,22
 288 10 288 10 236.5 -0.5 c 128,-1,23
 185 -11 185 -11 113 -11 c 0,24,25
 66 -11 66 -11 33 -7 c 1,0,-1
EndSplineSet
EndChar

StartChar: afii10078
Encoding: 1084 1084 191
Width: 1141
GlyphClass: 2
Flags: W
LayerCount: 2
UndoRedoHistory
Layer: 1
Undoes
EndUndoes
Redoes
EndRedoes
EndUndoRedoHistory
Fore
SplineSet
103 0 m 1,0,-1
 112 1184 l 1,1,-1
 318 1184 l 1,2,-1
 570 541 l 1,3,-1
 822 1184 l 1,4,-1
 1028 1184 l 1,5,-1
 1037 0 l 1,6,-1
 812 0 l 1,7,-1
 812 650 l 1,8,-1
 612 145 l 1,9,-1
 529 145 l 1,10,-1
 329 649 l 1,11,-1
 329 0 l 1,12,-1
 103 0 l 1,0,-1
EndSplineSet
EndChar

StartChar: afii10079
Encoding: 1085 1085 192
Width: 1005
GlyphClass: 2
Flags: W
LayerCount: 2
UndoRedoHistory
Layer: 1
Undoes
EndUndoes
Redoes
EndRedoes
EndUndoRedoHistory
Fore
SplineSet
107 0 m 1,0,-1
 107 1184 l 1,1,-1
 387 1184 l 1,2,-1
 387 707 l 1,3,-1
 618 707 l 1,4,-1
 618 1184 l 1,5,-1
 898 1184 l 1,6,-1
 898 0 l 1,7,-1
 618 0 l 1,8,-1
 618 509 l 1,9,-1
 387 509 l 1,10,-1
 387 0 l 1,11,-1
 107 0 l 1,0,-1
EndSplineSet
EndChar

StartChar: afii10081
Encoding: 1087 1087 194
Width: 977
GlyphClass: 2
Flags: W
LayerCount: 2
UndoRedoHistory
Layer: 1
Undoes
EndUndoes
Redoes
EndRedoes
EndUndoRedoHistory
Fore
SplineSet
107 0 m 1,0,-1
 107 1184 l 1,1,-1
 869 1184 l 1,2,-1
 869 0 l 1,3,-1
 590 0 l 1,4,-1
 590 983 l 1,5,-1
 387 983 l 1,6,-1
 387 0 l 1,7,-1
 107 0 l 1,0,-1
EndSplineSet
EndChar

StartChar: afii10084
Encoding: 1090 1090 197
Width: 764
GlyphClass: 2
Flags: W
LayerCount: 2
UndoRedoHistory
Layer: 1
Undoes
EndUndoes
Redoes
EndRedoes
EndUndoRedoHistory
Fore
SplineSet
240 0 m 1,0,-1
 240 985 l 1,1,-1
 28 985 l 1,2,-1
 28 1184 l 1,3,-1
 736 1184 l 1,4,-1
 736 985 l 1,5,-1
 520 985 l 1,6,-1
 520 0 l 1,7,-1
 240 0 l 1,0,-1
EndSplineSet
EndChar

StartChar: afii10085
Encoding: 1091 1091 198
Width: 881
GlyphClass: 2
Flags: W
LayerCount: 2
UndoRedoHistory
Layer: 1
Undoes
EndUndoes
Redoes
EndRedoes
EndUndoRedoHistory
Fore
SplineSet
113 -335 m 1,0,-1
 102 -121 l 1,1,2
 153 -121 153 -121 185.5 -118 c 128,-1,3
 218 -115 218 -115 244.5 -106.5 c 128,-1,4
 271 -98 271 -98 283.5 -84.5 c 128,-1,5
 296 -71 296 -71 301.5 -47.5 c 128,-1,6
 307 -24 307 -24 303.5 7 c 128,-1,7
 300 38 300 38 289 84 c 2,8,-1
 26 1184 l 1,9,-1
 275 1184 l 1,10,-1
 380 649 l 1,11,-1
 446 284 l 1,12,-1
 503 648 l 1,13,-1
 592 1184 l 1,14,-1
 851 1184 l 1,15,-1
 575 -6 l 2,16,17
 556 -91 556 -91 530 -147.5 c 128,-1,18
 504 -204 504 -204 470 -242 c 128,-1,19
 436 -280 436 -280 383 -300 c 128,-1,20
 330 -320 330 -320 268 -327.5 c 128,-1,21
 206 -335 206 -335 113 -335 c 1,0,-1
EndSplineSet
EndChar

StartChar: afii10086
Encoding: 1092 1092 199
Width: 1336
GlyphClass: 2
Flags: W
LayerCount: 2
UndoRedoHistory
Layer: 1
Undoes
EndUndoes
Redoes
EndRedoes
EndUndoRedoHistory
Fore
SplineSet
805 224 m 2,0,1
 993 224 993 224 993 476 c 2,2,-1
 993 782 l 2,3,4
 993 1003 993 1003 807 1003 c 2,5,-1
 792 1003 l 1,6,-1
 792 224 l 1,7,-1
 805 224 l 2,0,1
526 224 m 2,8,-1
 541 224 l 1,9,-1
 541 1003 l 1,10,-1
 524 1003 l 2,11,12
 343 1003 343 1003 343 782 c 2,13,-1
 343 476 l 2,14,15
 343 342 343 342 388.5 283 c 128,-1,16
 434 224 434 224 526 224 c 2,8,-1
541 -374 m 1,17,-1
 541 42 l 1,18,-1
 519 42 l 2,19,20
 461 42 461 42 406 52.5 c 128,-1,21
 351 63 351 63 291 93.5 c 128,-1,22
 231 124 231 124 187.5 171.5 c 128,-1,23
 144 219 144 219 115.5 300 c 128,-1,24
 87 381 87 381 87 485 c 2,25,-1
 87 750 l 2,26,27
 87 856 87 856 123 939 c 128,-1,28
 159 1022 159 1022 220.5 1071.5 c 128,-1,29
 282 1121 282 1121 357 1146.5 c 128,-1,30
 432 1172 432 1172 516 1172 c 2,31,-1
 541 1172 l 1,32,-1
 541 1658 l 1,33,-1
 792 1658 l 1,34,-1
 792 1172 l 1,35,-1
 824 1172 l 2,36,37
 908 1172 908 1172 982.5 1147 c 128,-1,38
 1057 1122 1057 1122 1117.5 1072 c 128,-1,39
 1178 1022 1178 1022 1213.5 939 c 128,-1,40
 1249 856 1249 856 1249 750 c 2,41,-1
 1249 485 l 2,42,43
 1249 381 1249 381 1221 300 c 128,-1,44
 1193 219 1193 219 1149.5 171.5 c 128,-1,45
 1106 124 1106 124 1047 93.5 c 128,-1,46
 988 63 988 63 934 52.5 c 128,-1,47
 880 42 880 42 822 42 c 2,48,-1
 792 42 l 1,49,-1
 792 -374 l 1,50,-1
 541 -374 l 1,17,-1
EndSplineSet
EndChar

StartChar: afii10088
Encoding: 1094 1094 201
Width: 1082
GlyphClass: 2
Flags: W
LayerCount: 2
UndoRedoHistory
Layer: 1
Undoes
EndUndoes
Redoes
EndRedoes
EndUndoRedoHistory
Fore
SplineSet
854 -313 m 1,0,-1
 833 0 l 1,1,-1
 107 0 l 1,2,-1
 107 1184 l 1,3,-1
 387 1184 l 1,4,-1
 387 185 l 1,5,-1
 617 185 l 1,6,-1
 617 1184 l 1,7,-1
 896 1184 l 1,8,-1
 896 185 l 1,9,-1
 1055 185 l 1,10,-1
 1055 -313 l 1,11,-1
 854 -313 l 1,0,-1
EndSplineSet
EndChar

StartChar: afii10089
Encoding: 1095 1095 202
Width: 954
GlyphClass: 2
Flags: W
LayerCount: 2
UndoRedoHistory
Layer: 1
Undoes
EndUndoes
Redoes
EndRedoes
EndUndoRedoHistory
Fore
SplineSet
567 0 m 1,0,-1
 567 469 l 1,1,2
 493 461 493 461 432 461 c 0,3,4
 252 461 252 461 164.5 530.5 c 128,-1,5
 77 600 77 600 77 760 c 2,6,-1
 77 1184 l 1,7,-1
 356 1184 l 1,8,-1
 356 767 l 2,9,10
 356 701 356 701 384 670.5 c 128,-1,11
 412 640 412 640 494 639 c 0,12,13
 530 639 530 639 567 643 c 1,14,-1
 567 1184 l 1,15,-1
 846 1184 l 1,16,-1
 846 0 l 1,17,-1
 567 0 l 1,0,-1
EndSplineSet
EndChar

StartChar: afii10090
Encoding: 1096 1096 203
Width: 1372
GlyphClass: 2
Flags: W
LayerCount: 2
UndoRedoHistory
Layer: 1
Undoes
EndUndoes
Redoes
EndRedoes
EndUndoRedoHistory
Fore
SplineSet
107 0 m 1,0,-1
 107 1184 l 1,1,-1
 373 1184 l 1,2,-1
 373 194 l 1,3,-1
 549 194 l 1,4,-1
 549 1184 l 1,5,-1
 815 1184 l 1,6,-1
 815 194 l 1,7,-1
 999 194 l 1,8,-1
 999 1184 l 1,9,-1
 1264 1184 l 1,10,-1
 1264 0 l 1,11,-1
 107 0 l 1,0,-1
EndSplineSet
EndChar

StartChar: afii10091
Encoding: 1097 1097 204
Width: 1488
GlyphClass: 2
Flags: W
LayerCount: 2
UndoRedoHistory
Layer: 1
Undoes
EndUndoes
Redoes
EndRedoes
EndUndoRedoHistory
Fore
SplineSet
1223 -313 m 1,0,-1
 1202 0 l 1,1,-1
 107 0 l 1,2,-1
 107 1184 l 1,3,-1
 374 1184 l 1,4,-1
 374 185 l 1,5,-1
 549 185 l 1,6,-1
 549 1184 l 1,7,-1
 815 1184 l 1,8,-1
 815 185 l 1,9,-1
 998 185 l 1,10,-1
 998 1184 l 1,11,-1
 1265 1184 l 1,12,-1
 1265 185 l 1,13,-1
 1424 185 l 1,14,-1
 1424 -313 l 1,15,-1
 1223 -313 l 1,0,-1
EndSplineSet
EndChar

StartChar: afii10092
Encoding: 1098 1098 205
Width: 1060
GlyphClass: 2
Flags: W
LayerCount: 2
UndoRedoHistory
Layer: 1
Undoes
EndUndoes
Redoes
EndRedoes
EndUndoRedoHistory
Fore
SplineSet
514 161 m 1,0,-1
 518 161 l 1,1,2
 656 162 656 162 707 198.5 c 128,-1,3
 758 235 758 235 758 348 c 0,4,5
 758 456 758 456 709.5 494 c 128,-1,6
 661 532 661 532 525 534 c 1,7,-1
 514 534 l 1,8,-1
 514 161 l 1,0,-1
235 0 m 1,9,-1
 235 987 l 1,10,-1
 0 987 l 1,11,-1
 0 1184 l 1,12,-1
 514 1184 l 1,13,-1
 514 699 l 1,14,-1
 533 699 l 1,15,16
 636 698 636 698 708.5 689 c 128,-1,17
 781 680 781 680 841.5 657.5 c 128,-1,18
 902 635 902 635 937.5 595.5 c 128,-1,19
 973 556 973 556 992 495 c 128,-1,20
 1011 434 1011 434 1011 348 c 0,21,22
 1011 153 1011 153 900 76.5 c 128,-1,23
 789 0 789 0 520 0 c 2,24,-1
 235 0 l 1,9,-1
EndSplineSet
EndChar

StartChar: afii10093
Encoding: 1099 1099 206
Width: 1399
GlyphClass: 2
Flags: W
LayerCount: 2
UndoRedoHistory
Layer: 1
Undoes
EndUndoes
Redoes
EndRedoes
EndUndoRedoHistory
Fore
SplineSet
1012 0 m 1,0,-1
 1012 1184 l 1,1,-1
 1292 1184 l 1,2,-1
 1292 0 l 1,3,-1
 1012 0 l 1,0,-1
387 161 m 1,4,-1
 391 161 l 1,5,6
 529 162 529 162 580 198.5 c 128,-1,7
 631 235 631 235 631 348 c 0,8,9
 631 456 631 456 582 494 c 128,-1,10
 533 532 533 532 398 534 c 1,11,-1
 387 534 l 1,12,-1
 387 161 l 1,4,-1
107 0 m 1,13,-1
 107 1184 l 1,14,-1
 387 1184 l 1,15,-1
 387 699 l 1,16,-1
 406 699 l 1,17,18
 509 698 509 698 581.5 689 c 128,-1,19
 654 680 654 680 714 657.5 c 128,-1,20
 774 635 774 635 809.5 595.5 c 128,-1,21
 845 556 845 556 864 495 c 128,-1,22
 883 434 883 434 883 348 c 0,23,24
 883 153 883 153 772 76.5 c 128,-1,25
 661 0 661 0 392 0 c 2,26,-1
 107 0 l 1,13,-1
EndSplineSet
EndChar

StartChar: afii10094
Encoding: 1100 1100 207
Width: 925
GlyphClass: 2
Flags: W
LayerCount: 2
UndoRedoHistory
Layer: 1
Undoes
EndUndoes
Redoes
EndRedoes
EndUndoRedoHistory
Fore
SplineSet
387 161 m 1,0,-1
 391 161 l 1,1,2
 529 162 529 162 580 198.5 c 128,-1,3
 631 235 631 235 631 348 c 0,4,5
 631 456 631 456 582 494 c 128,-1,6
 533 532 533 532 398 534 c 1,7,-1
 387 534 l 1,8,-1
 387 161 l 1,0,-1
107 0 m 1,9,-1
 107 1184 l 1,10,-1
 387 1184 l 1,11,-1
 387 699 l 1,12,-1
 406 699 l 1,13,14
 509 698 509 698 581.5 689 c 128,-1,15
 654 680 654 680 714 657.5 c 128,-1,16
 774 635 774 635 809.5 595.5 c 128,-1,17
 845 556 845 556 864 495 c 128,-1,18
 883 434 883 434 883 348 c 0,19,20
 883 153 883 153 772 76.5 c 128,-1,21
 661 0 661 0 392 0 c 2,22,-1
 107 0 l 1,9,-1
EndSplineSet
EndChar

StartChar: afii10095
Encoding: 1101 1101 208
Width: 906
GlyphClass: 2
Flags: W
LayerCount: 2
UndoRedoHistory
Layer: 1
Undoes
EndUndoes
Redoes
EndRedoes
EndUndoRedoHistory
Fore
SplineSet
444 -19 m 0,0,1
 255 -19 255 -19 169.5 70 c 128,-1,2
 84 159 84 159 84 346 c 2,3,-1
 84 392 l 1,4,-1
 345 392 l 1,5,-1
 345 345 l 2,6,7
 345 255 345 255 366.5 219 c 128,-1,8
 388 183 388 183 441 183 c 0,9,10
 500 183 500 183 520.5 225.5 c 128,-1,11
 541 268 541 268 541 382 c 2,12,-1
 541 520 l 1,13,-1
 268 520 l 1,14,-1
 268 656 l 1,15,-1
 541 656 l 1,16,-1
 541 807 l 2,17,18
 541 920 541 920 518.5 959.5 c 128,-1,19
 496 999 496 999 441 999 c 0,20,21
 385 999 385 999 365 960.5 c 128,-1,22
 345 922 345 922 345 844 c 2,23,-1
 345 771 l 1,24,-1
 84 771 l 1,25,-1
 84 833 l 2,26,27
 84 1016 84 1016 171.5 1109 c 128,-1,28
 259 1202 259 1202 444 1202 c 0,29,30
 646 1202 646 1202 733.5 1089.5 c 128,-1,31
 821 977 821 977 821 762 c 2,32,-1
 821 420 l 2,33,34
 821 206 821 206 733 93.5 c 128,-1,35
 645 -19 645 -19 444 -19 c 0,0,1
EndSplineSet
EndChar

StartChar: afii10096
Encoding: 1102 1102 209
Width: 1299
GlyphClass: 2
Flags: W
LayerCount: 2
UndoRedoHistory
Layer: 1
Undoes
EndUndoes
Redoes
EndRedoes
EndUndoRedoHistory
Fore
SplineSet
866 185 m 128,-1,1
 897 185 897 185 917 200 c 128,-1,2
 937 215 937 215 945.5 246 c 128,-1,3
 954 277 954 277 956.5 306.5 c 128,-1,4
 959 336 959 336 959 383 c 2,5,-1
 959 800 l 2,6,7
 959 837 959 837 958 861.5 c 128,-1,8
 957 886 957 886 951.5 914.5 c 128,-1,9
 946 943 946 943 936.5 959.5 c 128,-1,10
 927 976 927 976 909 987.5 c 128,-1,11
 891 999 891 999 866 999 c 0,12,13
 835 999 835 999 815.5 983.5 c 128,-1,14
 796 968 796 968 787.5 936.5 c 128,-1,15
 779 905 779 905 776.5 875.5 c 128,-1,16
 774 846 774 846 774 800 c 2,17,-1
 774 383 l 2,18,19
 774 336 774 336 776.5 307 c 128,-1,20
 779 278 779 278 787.5 246.5 c 128,-1,21
 796 215 796 215 815.5 200 c 128,-1,0
 835 185 835 185 866 185 c 128,-1,1
866 -19 m 0,22,23
 522 -19 522 -19 522 396 c 2,24,-1
 522 499 l 1,25,-1
 367 499 l 1,26,-1
 367 0 l 1,27,-1
 107 0 l 1,28,-1
 107 1184 l 1,29,-1
 367 1184 l 1,30,-1
 367 690 l 1,31,-1
 522 690 l 1,32,-1
 522 787 l 2,33,34
 522 1202 522 1202 866 1202 c 0,35,36
 1041 1202 1041 1202 1126.5 1094.5 c 128,-1,37
 1212 987 1212 987 1212 787 c 2,38,-1
 1212 396 l 2,39,40
 1212 196 1212 196 1126.5 88.5 c 128,-1,41
 1041 -19 1041 -19 866 -19 c 0,22,23
EndSplineSet
EndChar

StartChar: afii10097
Encoding: 1103 1103 210
Width: 968
GlyphClass: 2
Flags: W
LayerCount: 2
UndoRedoHistory
Layer: 1
Undoes
EndUndoes
Redoes
EndRedoes
EndUndoRedoHistory
Fore
SplineSet
568 608 m 1,0,-1
 581 608 l 1,1,-1
 581 1025 l 1,2,-1
 570 1025 l 2,3,4
 441 1025 441 1025 384.5 978 c 128,-1,5
 328 931 328 931 328 821 c 0,6,7
 328 712 328 712 383 660.5 c 128,-1,8
 438 609 438 609 568 608 c 1,0,-1
24 0 m 1,9,-1
 229 495 l 1,10,11
 75 561 75 561 75 820 c 0,12,13
 75 1007 75 1007 183 1095 c 128,-1,14
 291 1183 291 1183 536 1184 c 1,15,-1
 861 1184 l 1,16,-1
 861 0 l 1,17,-1
 581 0 l 1,18,-1
 581 446 l 1,19,20
 550 446 550 446 488 448 c 1,21,-1
 324 0 l 1,22,-1
 24 0 l 1,9,-1
EndSplineSet
EndChar

StartChar: afii10098
Encoding: 1169 1169 211
Width: 659
GlyphClass: 2
Flags: W
LayerCount: 2
UndoRedoHistory
Layer: 1
Undoes
EndUndoes
Redoes
EndRedoes
EndUndoRedoHistory
Fore
SplineSet
107 0 m 1,0,-1
 107 1184 l 1,1,-1
 495 1184 l 1,2,-1
 495 1406 l 1,3,-1
 643 1406 l 1,4,-1
 643 991 l 1,5,-1
 387 991 l 1,6,-1
 387 0 l 1,7,-1
 107 0 l 1,0,-1
EndSplineSet
EndChar

StartChar: afii10099
Encoding: 1106 1106 212
Width: 994
GlyphClass: 2
Flags: W
LayerCount: 2
UndoRedoHistory
Layer: 1
Undoes
EndUndoes
Redoes
EndRedoes
EndUndoRedoHistory
Fore
SplineSet
393 -320 m 1,0,-1
 393 -158 l 1,1,-1
 421 -158 l 2,2,3
 474 -158 474 -158 507.5 -149 c 128,-1,4
 541 -140 541 -140 564.5 -120.5 c 128,-1,5
 588 -101 588 -101 599.5 -60 c 128,-1,6
 611 -19 611 -19 616 35 c 128,-1,7
 621 89 621 89 621 176 c 2,8,-1
 621 703 l 2,9,10
 621 760 621 760 603.5 788.5 c 128,-1,11
 586 817 586 817 537 817 c 0,12,13
 490 817 490 817 402 777 c 1,14,-1
 402 0 l 1,15,-1
 123 0 l 1,16,-1
 123 1240 l 1,17,-1
 -20 1240 l 1,18,-1
 -20 1392 l 1,19,-1
 123 1392 l 1,20,-1
 123 1658 l 1,21,-1
 402 1658 l 1,22,-1
 402 1392 l 1,23,-1
 683 1392 l 1,24,-1
 683 1240 l 1,25,-1
 402 1240 l 1,26,-1
 402 929 l 1,27,28
 406 931 406 931 437.5 945 c 128,-1,29
 469 959 469 959 497 970.5 c 128,-1,30
 525 982 525 982 570.5 992 c 128,-1,31
 616 1002 616 1002 657 1002 c 0,32,33
 713 1002 713 1002 756.5 986 c 128,-1,34
 800 970 800 970 826.5 944 c 128,-1,35
 853 918 853 918 870 882 c 128,-1,36
 887 846 887 846 893.5 809.5 c 128,-1,37
 900 773 900 773 900 732 c 2,38,-1
 900 210 l 2,39,40
 900 97 900 97 892.5 18.5 c 128,-1,41
 885 -60 885 -60 864.5 -121.5 c 128,-1,42
 844 -183 844 -183 813.5 -219.5 c 128,-1,43
 783 -256 783 -256 730.5 -279.5 c 128,-1,44
 678 -303 678 -303 613.5 -311.5 c 128,-1,45
 549 -320 549 -320 455 -320 c 2,46,-1
 393 -320 l 1,0,-1
EndSplineSet
EndChar

StartChar: afii10101
Encoding: 1108 1108 214
Width: 874
GlyphClass: 2
Flags: W
LayerCount: 2
UndoRedoHistory
Layer: 1
Undoes
EndUndoes
Redoes
EndRedoes
EndUndoRedoHistory
Fore
SplineSet
463 -19 m 0,0,1
 262 -19 262 -19 174 94 c 128,-1,2
 86 207 86 207 86 421 c 2,3,-1
 86 764 l 2,4,5
 86 978 86 978 174 1090 c 128,-1,6
 262 1202 262 1202 463 1202 c 0,7,8
 653 1202 653 1202 738 1113 c 128,-1,9
 823 1024 823 1024 823 837 c 2,10,-1
 823 782 l 1,11,-1
 562 782 l 1,12,-1
 562 839 l 2,13,14
 562 929 562 929 540.5 964.5 c 128,-1,15
 519 1000 519 1000 466 1000 c 0,16,17
 407 1000 407 1000 386.5 958 c 128,-1,18
 366 916 366 916 366 801 c 2,19,-1
 366 678 l 1,20,-1
 648 678 l 1,21,-1
 648 526 l 1,22,-1
 366 526 l 1,23,-1
 366 376 l 2,24,25
 366 263 366 263 388.5 224 c 128,-1,26
 411 185 411 185 467 185 c 128,-1,27
 523 185 523 185 542.5 223 c 128,-1,28
 562 261 562 261 562 339 c 2,29,-1
 562 419 l 1,30,-1
 823 419 l 1,31,-1
 823 351 l 2,32,33
 823 167 823 167 736 74 c 128,-1,34
 649 -19 649 -19 463 -19 c 0,0,1
EndSplineSet
EndChar

StartChar: afii10103
Encoding: 1110 1110 216
Width: 493
GlyphClass: 2
Flags: W
LayerCount: 2
UndoRedoHistory
Layer: 1
Undoes
EndUndoes
Redoes
EndRedoes
EndUndoRedoHistory
Fore
SplineSet
109 1355 m 1,0,-1
 109 1591 l 1,1,-1
 389 1591 l 1,2,-1
 389 1355 l 1,3,-1
 109 1355 l 1,0,-1
108 0 m 1,4,-1
 108 1184 l 1,5,-1
 388 1184 l 1,6,-1
 388 0 l 1,7,-1
 108 0 l 1,4,-1
EndSplineSet
EndChar

StartChar: afii10105
Encoding: 1112 1112 218
Width: 494
GlyphClass: 2
Flags: W
LayerCount: 2
UndoRedoHistory
Layer: 1
Undoes
EndUndoes
Redoes
EndRedoes
EndUndoRedoHistory
Fore
SplineSet
132 1371 m 1,0,-1
 132 1607 l 1,1,-1
 414 1607 l 1,2,-1
 414 1371 l 1,3,-1
 132 1371 l 1,0,-1
-32 -307 m 1,4,-1
 -32 -107 l 1,5,6
 5 -114 5 -114 27 -114 c 0,7,8
 133 -114 133 -114 133 7 c 2,9,-1
 133 1184 l 1,10,-1
 412 1184 l 1,11,-1
 412 -25 l 2,12,13
 412 -165 412 -165 333.5 -246 c 128,-1,14
 255 -327 255 -327 113 -327 c 0,15,16
 27 -327 27 -327 -32 -307 c 1,4,-1
EndSplineSet
EndChar

StartChar: afii10106
Encoding: 1113 1113 219
Width: 1494
GlyphClass: 2
Flags: W
LayerCount: 2
UndoRedoHistory
Layer: 1
Undoes
EndUndoes
Redoes
EndRedoes
EndUndoRedoHistory
Fore
SplineSet
970 161 m 1,0,-1
 977 161 l 1,1,2
 1095 162 1095 162 1141 201 c 128,-1,3
 1187 240 1187 240 1187 348 c 0,4,5
 1187 453 1187 453 1142 493 c 128,-1,6
 1097 533 1097 533 976 534 c 1,7,-1
 970 534 l 1,8,-1
 970 161 l 1,0,-1
37 -7 m 1,9,-1
 37 192 l 1,10,11
 70 191 70 191 95 194.5 c 128,-1,12
 120 198 120 198 140 210.5 c 128,-1,13
 160 223 160 223 174 238 c 128,-1,14
 188 253 188 253 199.5 284.5 c 128,-1,15
 211 316 211 316 218 347 c 128,-1,16
 225 378 225 378 231.5 433 c 128,-1,17
 238 488 238 488 241.5 539.5 c 128,-1,18
 245 591 245 591 250 673 c 2,19,-1
 281 1184 l 1,20,-1
 970 1184 l 1,21,-1
 970 698 l 1,22,-1
 990 698 l 2,23,24
 1110 698 1110 698 1190 682.5 c 128,-1,25
 1270 667 1270 667 1328.5 628 c 128,-1,26
 1387 589 1387 589 1413.5 520.5 c 128,-1,27
 1440 452 1440 452 1440 348 c 0,28,29
 1440 158 1440 158 1334 80.5 c 128,-1,30
 1228 3 1228 3 976 0 c 1,31,-1
 691 0 l 1,32,-1
 691 983 l 1,33,-1
 521 983 l 1,34,-1
 500 622 l 2,35,36
 492 481 492 481 479.5 382 c 128,-1,37
 467 283 467 283 444 210.5 c 128,-1,38
 421 138 421 138 392 94.5 c 128,-1,39
 363 51 363 51 317 26.5 c 128,-1,40
 271 2 271 2 219 -5.5 c 128,-1,41
 167 -13 167 -13 91 -11 c 0,42,43
 89 -11 89 -11 67 -9.5 c 128,-1,44
 45 -8 45 -8 37 -7 c 1,9,-1
EndSplineSet
EndChar

StartChar: afii10107
Encoding: 1114 1114 220
Width: 1385
GlyphClass: 2
Flags: W
LayerCount: 2
UndoRedoHistory
Layer: 1
Undoes
EndUndoes
Redoes
EndRedoes
EndUndoRedoHistory
Fore
SplineSet
871 162 m 1,0,1
 878 162 878 162 881 163 c 0,2,3
 997 166 997 166 1042 204 c 128,-1,4
 1087 242 1087 242 1087 348 c 0,5,6
 1087 452 1087 452 1043.5 490.5 c 128,-1,7
 1000 529 1000 529 882 534 c 0,8,9
 880 534 880 534 876.5 534.5 c 128,-1,10
 873 535 873 535 871 535 c 1,11,-1
 871 162 l 1,0,1
107 0 m 1,12,-1
 107 1184 l 1,13,-1
 387 1184 l 1,14,-1
 387 706 l 1,15,-1
 591 706 l 1,16,-1
 591 1185 l 1,17,-1
 871 1185 l 1,18,-1
 871 699 l 1,19,-1
 892 699 l 1,20,21
 1013 697 1013 697 1091.5 681 c 128,-1,22
 1170 665 1170 665 1228.5 626.5 c 128,-1,23
 1287 588 1287 588 1313 520.5 c 128,-1,24
 1339 453 1339 453 1339 349 c 0,25,26
 1339 158 1339 158 1232.5 80.5 c 128,-1,27
 1126 3 1126 3 871 1 c 1,28,-1
 591 1 l 1,29,-1
 591 496 l 1,30,-1
 387 496 l 1,31,-1
 387 0 l 1,32,-1
 107 0 l 1,12,-1
EndSplineSet
EndChar

StartChar: afii10108
Encoding: 1115 1115 221
Width: 1000
GlyphClass: 2
Flags: W
LayerCount: 2
UndoRedoHistory
Layer: 1
Undoes
EndUndoes
Redoes
EndRedoes
EndUndoRedoHistory
Fore
SplineSet
123 0 m 1,0,-1
 123 1240 l 1,1,-1
 -20 1240 l 1,2,-1
 -20 1392 l 1,3,-1
 123 1392 l 1,4,-1
 123 1658 l 1,5,-1
 402 1658 l 1,6,-1
 402 1392 l 1,7,-1
 683 1392 l 1,8,-1
 683 1240 l 1,9,-1
 402 1240 l 1,10,-1
 402 929 l 1,11,12
 406 931 406 931 437.5 945 c 128,-1,13
 469 959 469 959 497 970.5 c 128,-1,14
 525 982 525 982 570.5 992 c 128,-1,15
 616 1002 616 1002 657 1002 c 0,16,17
 713 1002 713 1002 756.5 986 c 128,-1,18
 800 970 800 970 826.5 944 c 128,-1,19
 853 918 853 918 870 882 c 128,-1,20
 887 846 887 846 893.5 809.5 c 128,-1,21
 900 773 900 773 900 732 c 2,22,-1
 900 0 l 1,23,-1
 621 0 l 1,24,-1
 621 703 l 2,25,26
 621 760 621 760 603.5 788.5 c 128,-1,27
 586 817 586 817 537 817 c 0,28,29
 490 817 490 817 402 777 c 1,30,-1
 402 0 l 1,31,-1
 123 0 l 1,0,-1
EndSplineSet
EndChar

StartChar: afii10145
Encoding: 1039 1039 224
Width: 1173
GlyphClass: 2
Flags: W
LayerCount: 2
UndoRedoHistory
Layer: 1
Undoes
EndUndoes
Redoes
EndRedoes
EndUndoRedoHistory
Fore
SplineSet
479 -329 m 1,0,-1
 465 0 l 1,1,-1
 124 0 l 1,2,-1
 124 1658 l 1,3,-1
 426 1658 l 1,4,-1
 426 222 l 1,5,-1
 747 222 l 1,6,-1
 747 1658 l 1,7,-1
 1049 1658 l 1,8,-1
 1049 0 l 1,9,-1
 716 0 l 1,10,-1
 701 -329 l 1,11,-1
 479 -329 l 1,0,-1
EndSplineSet
EndChar

StartChar: afii10193
Encoding: 1119 1119 225
Width: 986
GlyphClass: 2
Flags: W
LayerCount: 2
UndoRedoHistory
Layer: 1
Undoes
EndUndoes
Redoes
EndRedoes
EndUndoRedoHistory
Fore
SplineSet
404 -313 m 1,0,-1
 383 0 l 1,1,-1
 107 0 l 1,2,-1
 107 1184 l 1,3,-1
 387 1184 l 1,4,-1
 387 185 l 1,5,-1
 599 185 l 1,6,-1
 599 1184 l 1,7,-1
 878 1184 l 1,8,-1
 878 0 l 1,9,-1
 612 0 l 1,10,-1
 598 -313 l 1,11,-1
 404 -313 l 1,0,-1
EndSplineSet
EndChar

StartChar: afii61289
Encoding: 8467 8467 226
Width: 1125
GlyphClass: 2
Flags: W
LayerCount: 2
UndoRedoHistory
Layer: 1
Undoes
EndUndoes
Redoes
EndRedoes
EndUndoRedoHistory
Fore
SplineSet
654 1057 m 1,0,1
 987 1521 987 1521 894 1623 c 0,2,3
 855 1666 855 1666 756 1638 c 1,4,-1
 746 1635 l 1,5,-1
 654 1057 l 1,0,1
402 503 m 1,6,-1
 244 299 l 1,7,-1
 156 391 l 1,8,-1
 443 774 l 1,9,-1
 571 1634 l 2,10,11
 593 1781 593 1781 705 1862 c 0,12,13
 800 1931 800 1931 906 1917 c 0,14,15
 1013 1903 1013 1903 1061 1809 c 0,16,17
 1137 1662 1137 1662 1024 1396 c 0,18,19
 937 1191 937 1191 743 940 c 2,20,-1
 608 766 l 1,21,-1
 540 340 l 1,22,23
 528 258 528 258 536.5 206.5 c 128,-1,24
 545 155 545 155 572.5 135 c 128,-1,25
 600 115 600 115 637.5 121.5 c 128,-1,26
 675 128 675 128 721 161 c 128,-1,27
 767 194 767 194 813 248 c 1,28,-1
 894 148 l 1,29,30
 840 85 840 85 775 43 c 128,-1,31
 710 1 710 1 648 -13.5 c 128,-1,32
 586 -28 586 -28 529 -17 c 128,-1,33
 472 -6 472 -6 434 38 c 128,-1,34
 396 82 396 82 378.5 157 c 128,-1,35
 361 232 361 232 379 345 c 1,36,-1
 402 503 l 1,6,-1
EndSplineSet
EndChar

StartChar: ampersand
Encoding: 38 38 230
Width: 1210
GlyphClass: 2
Flags: W
LayerCount: 2
UndoRedoHistory
Layer: 1
Undoes
EndUndoes
Redoes
EndRedoes
EndUndoRedoHistory
Fore
SplineSet
501 975 m 1,0,1
 550 1046 550 1046 591.5 1155.5 c 128,-1,2
 633 1265 633 1265 633 1355 c 0,3,4
 633 1405 633 1405 603 1435 c 128,-1,5
 573 1465 573 1465 525 1465 c 0,6,7
 474 1465 474 1465 446 1421 c 128,-1,8
 418 1377 418 1377 418 1313 c 0,9,10
 418 1294 418 1294 419.5 1274.5 c 128,-1,11
 421 1255 421 1255 425 1233 c 128,-1,12
 429 1211 429 1211 432.5 1193 c 128,-1,13
 436 1175 436 1175 443 1151 c 128,-1,14
 450 1127 450 1127 454 1112.5 c 128,-1,15
 458 1098 458 1098 466.5 1072.5 c 128,-1,16
 475 1047 475 1047 478.5 1038 c 128,-1,17
 482 1029 482 1029 491 1004 c 128,-1,18
 500 979 500 979 501 975 c 1,0,1
470 188 m 0,19,20
 577 188 577 188 654 287 c 1,21,22
 448 640 448 640 441 658 c 1,23,24
 400 598 400 598 376 521 c 128,-1,25
 352 444 352 444 352 369 c 0,26,27
 352 290 352 290 383 239 c 128,-1,28
 414 188 414 188 470 188 c 0,19,20
467 -21 m 0,29,30
 301 -21 301 -21 201.5 84 c 128,-1,31
 102 189 102 189 102 359 c 0,32,33
 102 504 102 504 168 630 c 128,-1,34
 234 756 234 756 337 852 c 1,35,36
 322 883 322 883 283 955.5 c 128,-1,37
 244 1028 244 1028 223.5 1071 c 128,-1,38
 203 1114 203 1114 184 1180 c 128,-1,39
 165 1246 165 1246 165 1306 c 0,40,41
 165 1469 165 1469 261.5 1573.5 c 128,-1,42
 358 1678 358 1678 519 1678 c 0,43,44
 675 1678 675 1678 778 1588.5 c 128,-1,45
 881 1499 881 1499 881 1348 c 0,46,47
 881 1271 881 1271 856 1196.5 c 128,-1,48
 831 1122 831 1122 784 1055 c 128,-1,49
 737 988 737 988 698 943 c 128,-1,50
 659 898 659 898 604 841 c 0,51,52
 594 831 594 831 589 826 c 1,53,-1
 803 463 l 1,54,55
 847 552 847 552 868 790 c 1,56,-1
 1102 790 l 1,57,58
 1102 536 1102 536 960 299 c 1,59,60
 983 271 983 271 1023.5 248.5 c 128,-1,61
 1064 226 1064 226 1106 225 c 1,62,-1
 1106 -19 l 1,63,64
 1084 -24 1084 -24 1066 -24 c 0,65,66
 1038 -24 1038 -24 1010 -15.5 c 128,-1,67
 982 -7 982 -7 963.5 1 c 128,-1,68
 945 9 945 9 915.5 31.5 c 128,-1,69
 886 54 886 54 877 61.5 c 128,-1,70
 868 69 868 69 836.5 99.5 c 128,-1,71
 805 130 805 130 803 132 c 1,72,73
 747 60 747 60 660.5 19.5 c 128,-1,74
 574 -21 574 -21 467 -21 c 0,29,30
EndSplineSet
EndChar

StartChar: approxequal
Encoding: 8776 8776 232
Width: 959
GlyphClass: 2
Flags: W
LayerCount: 2
UndoRedoHistory
Layer: 1
Undoes
EndUndoes
Redoes
EndRedoes
EndUndoRedoHistory
Fore
SplineSet
642 875 m 0,0,1
 595 875 595 875 532 905 c 128,-1,2
 469 935 469 935 410 965 c 128,-1,3
 351 995 351 995 316 995 c 0,4,5
 289 995 289 995 246.5 970 c 128,-1,6
 204 945 204 945 169 908 c 1,7,-1
 75 1033 l 1,8,9
 123 1095 123 1095 196 1149.5 c 128,-1,10
 269 1204 269 1204 324 1204 c 0,11,12
 370 1204 370 1204 433 1174.5 c 128,-1,13
 496 1145 496 1145 554 1115.5 c 128,-1,14
 612 1086 612 1086 647 1086 c 0,15,16
 692 1086 692 1086 791 1175 c 1,17,-1
 890 1062 l 1,18,19
 847 993 847 993 774.5 934 c 128,-1,20
 702 875 702 875 642 875 c 0,0,1
642 463 m 0,21,22
 595 463 595 463 532 493 c 128,-1,23
 469 523 469 523 410 553 c 128,-1,24
 351 583 351 583 316 583 c 0,25,26
 289 583 289 583 246.5 558 c 128,-1,27
 204 533 204 533 169 496 c 1,28,-1
 75 622 l 1,29,30
 123 684 123 684 196 738 c 128,-1,31
 269 792 269 792 324 792 c 0,32,33
 370 792 370 792 433 762.5 c 128,-1,34
 496 733 496 733 554 703.5 c 128,-1,35
 612 674 612 674 647 674 c 0,36,37
 691 674 691 674 791 764 c 1,38,-1
 890 650 l 1,39,40
 847 581 847 581 774.5 522 c 128,-1,41
 702 463 702 463 642 463 c 0,21,22
EndSplineSet
EndChar

StartChar: asciicircum
Encoding: 94 94 234
Width: 953
GlyphClass: 2
Flags: W
LayerCount: 2
UndoRedoHistory
Layer: 1
Undoes
EndUndoes
Redoes
EndRedoes
EndUndoRedoHistory
Fore
SplineSet
68 979 m 1,0,-1
 351 1658 l 1,1,-1
 601 1658 l 1,2,-1
 886 979 l 1,3,-1
 634 979 l 1,4,-1
 476 1433 l 1,5,-1
 319 979 l 1,6,-1
 68 979 l 1,0,-1
EndSplineSet
EndChar

StartChar: asciitilde
Encoding: 126 126 235
Width: 959
GlyphClass: 2
Flags: W
LayerCount: 2
UndoRedoHistory
Layer: 1
Undoes
EndUndoes
Redoes
EndRedoes
EndUndoRedoHistory
Fore
SplineSet
642 712 m 0,0,1
 595 712 595 712 532 742 c 128,-1,2
 469 772 469 772 410 802 c 128,-1,3
 351 832 351 832 316 832 c 0,4,5
 289 832 289 832 246.5 807 c 128,-1,6
 204 782 204 782 169 745 c 1,7,-1
 75 871 l 1,8,9
 123 933 123 933 196 987.5 c 128,-1,10
 269 1042 269 1042 324 1042 c 0,11,12
 370 1042 370 1042 433 1012.5 c 128,-1,13
 496 983 496 983 554 953.5 c 128,-1,14
 612 924 612 924 647 924 c 0,15,16
 692 924 692 924 791 1013 c 1,17,-1
 890 899 l 1,18,19
 847 830 847 830 774.5 771 c 128,-1,20
 702 712 702 712 642 712 c 0,0,1
EndSplineSet
EndChar

StartChar: asterisk
Encoding: 42 42 236
Width: 845
GlyphClass: 2
Flags: W
LayerCount: 2
UndoRedoHistory
Layer: 1
Undoes
EndUndoes
Redoes
EndRedoes
EndUndoRedoHistory
Fore
SplineSet
332 938 m 1,0,-1
 167 1037 l 1,1,-1
 321 1254 l 1,2,-1
 91 1342 l 1,3,-1
 155 1513 l 1,4,-1
 370 1397 l 1,5,-1
 344 1657 l 1,6,-1
 553 1657 l 1,7,-1
 527 1396 l 1,8,-1
 742 1513 l 1,9,-1
 807 1341 l 1,10,-1
 576 1252 l 1,11,-1
 732 1037 l 1,12,-1
 564 938 l 1,13,-1
 448 1178 l 1,14,-1
 332 938 l 1,0,-1
EndSplineSet
EndChar

StartChar: at
Encoding: 64 64 237
Width: 1914
GlyphClass: 2
Flags: W
LayerCount: 2
UndoRedoHistory
Layer: 1
Undoes
EndUndoes
Redoes
EndRedoes
EndUndoRedoHistory
Fore
SplineSet
955 406 m 1,0,1
 993 414 993 414 1030.5 449 c 128,-1,2
 1068 484 1068 484 1082 552 c 1,3,-1
 1149 1024 l 1,4,5
 1137 1040 1137 1040 1098 1040 c 0,6,7
 1019 1040 1019 1040 953.5 976 c 128,-1,8
 888 912 888 912 852 811 c 128,-1,9
 816 710 816 710 816 597 c 1,10,11
 815 509 815 509 849.5 452.5 c 128,-1,12
 884 396 884 396 955 406 c 1,0,1
969 -275 m 0,13,14
 556 -275 556 -275 327 -38.5 c 128,-1,15
 98 198 98 198 119 627 c 1,16,17
 128 875 128 875 201 1070.5 c 128,-1,18
 274 1266 274 1266 400.5 1394.5 c 128,-1,19
 527 1523 527 1523 702 1590.5 c 128,-1,20
 877 1658 877 1658 1090 1658 c 0,21,22
 1246 1658 1246 1658 1374 1613.5 c 128,-1,23
 1502 1569 1502 1569 1589 1492.5 c 128,-1,24
 1676 1416 1676 1416 1734.5 1311 c 128,-1,25
 1793 1206 1793 1206 1816.5 1086 c 128,-1,26
 1840 966 1840 966 1834 835 c 1,27,28
 1831 741 1831 741 1809.5 650.5 c 128,-1,29
 1788 560 1788 560 1745 477.5 c 128,-1,30
 1702 395 1702 395 1643 332.5 c 128,-1,31
 1584 270 1584 270 1500.5 233 c 128,-1,32
 1417 196 1417 196 1320 196 c 0,33,34
 1229 196 1229 196 1164 241.5 c 128,-1,35
 1099 287 1099 287 1086 368 c 1,36,37
 1066 304 1066 304 1018 258.5 c 128,-1,38
 970 213 970 213 896 206 c 0,39,40
 790 196 790 196 712.5 250 c 128,-1,41
 635 304 635 304 599 395 c 128,-1,42
 563 486 563 486 566 598 c 1,43,44
 567 681 567 681 586.5 769 c 128,-1,45
 606 857 606 857 646.5 942.5 c 128,-1,46
 687 1028 687 1028 742 1095 c 128,-1,47
 797 1162 797 1162 876 1203.5 c 128,-1,48
 955 1245 955 1245 1044 1245 c 0,49,50
 1113 1245 1113 1245 1183 1154 c 1,51,-1
 1204 1229 l 1,52,-1
 1417 1229 l 1,53,-1
 1311 506 l 1,54,55
 1298 410 1298 410 1309 380 c 0,56,57
 1318 354 1318 354 1343 351 c 1,58,59
 1419 345 1419 345 1485.5 408.5 c 128,-1,60
 1552 472 1552 472 1592.5 582 c 128,-1,61
 1633 692 1633 692 1637 819 c 1,62,63
 1642 925 1642 925 1626 1019.5 c 128,-1,64
 1610 1114 1610 1114 1567.5 1196.5 c 128,-1,65
 1525 1279 1525 1279 1459.5 1338.5 c 128,-1,66
 1394 1398 1394 1398 1294.5 1432.5 c 128,-1,67
 1195 1467 1195 1467 1071 1467 c 0,68,69
 905 1467 905 1467 770.5 1405.5 c 128,-1,70
 636 1344 636 1344 546 1233 c 128,-1,71
 456 1122 456 1122 405 969.5 c 128,-1,72
 354 817 354 817 347 634 c 1,73,74
 328 291 328 291 493.5 104 c 128,-1,75
 659 -83 659 -83 996 -83 c 0,76,77
 1183 -83 1183 -83 1381 -21 c 1,78,-1
 1421 -208 l 1,79,80
 1173 -275 1173 -275 969 -275 c 0,13,14
EndSplineSet
EndChar

StartChar: b
Encoding: 98 98 239
Width: 978
GlyphClass: 2
Flags: W
LayerCount: 2
UndoRedoHistory
Layer: 1
Undoes
EndUndoes
Redoes
EndRedoes
EndUndoRedoHistory
Fore
SplineSet
514 182 m 0,0,1
 545 182 545 182 565.5 199 c 128,-1,2
 586 216 586 216 595.5 250 c 128,-1,3
 605 284 605 284 608 319 c 128,-1,4
 611 354 611 354 611 405 c 2,5,-1
 611 813 l 2,6,7
 611 855 611 855 607 887 c 128,-1,8
 603 919 603 919 592 948.5 c 128,-1,9
 581 978 581 978 559.5 993.5 c 128,-1,10
 538 1009 538 1009 507 1008 c 0,11,12
 450 1007 450 1007 390 962 c 1,13,-1
 390 219 l 1,14,15
 447 182 447 182 514 182 c 0,0,1
611 -19 m 0,16,17
 500 -19 500 -19 390 87 c 1,18,-1
 390 0 l 1,19,-1
 110 0 l 1,20,-1
 110 1658 l 1,21,-1
 390 1658 l 1,22,-1
 390 1094 l 1,23,24
 499 1203 499 1203 629 1202 c 0,25,26
 692 1201 692 1201 740.5 1173 c 128,-1,27
 789 1145 789 1145 816.5 1103.5 c 128,-1,28
 844 1062 844 1062 861.5 1005.5 c 128,-1,29
 879 949 879 949 885 900.5 c 128,-1,30
 891 852 891 852 891 802 c 2,31,-1
 891 414 l 2,32,33
 891 324 891 324 876 248.5 c 128,-1,34
 861 173 861 173 829 111.5 c 128,-1,35
 797 50 797 50 741.5 15.5 c 128,-1,36
 686 -19 686 -19 611 -19 c 0,16,17
EndSplineSet
EndChar

StartChar: backslash
Encoding: 92 92 240
Width: 812
GlyphClass: 2
Flags: W
LayerCount: 2
UndoRedoHistory
Layer: 1
Undoes
EndUndoes
Redoes
EndRedoes
EndUndoRedoHistory
Fore
SplineSet
543 0 m 1,0,-1
 73 1658 l 1,1,-1
 268 1658 l 1,2,-1
 737 0 l 1,3,-1
 543 0 l 1,0,-1
EndSplineSet
EndChar

StartChar: bar
Encoding: 124 124 241
Width: 518
GlyphClass: 2
Flags: W
LayerCount: 2
UndoRedoHistory
Layer: 1
Undoes
EndUndoes
Redoes
EndRedoes
EndUndoRedoHistory
Fore
SplineSet
136 -333 m 1,0,-1
 138 1659 l 1,1,-1
 381 1658 l 1,2,-1
 380 -333 l 1,3,-1
 136 -333 l 1,0,-1
EndSplineSet
EndChar

StartChar: braceleft
Encoding: 123 123 242
Width: 695
GlyphClass: 2
Flags: W
LayerCount: 2
UndoRedoHistory
Layer: 1
Undoes
EndUndoes
Redoes
EndRedoes
EndUndoRedoHistory
Fore
SplineSet
639 -403 m 1,0,1
 563 -403 563 -403 507.5 -399.5 c 128,-1,2
 452 -396 452 -396 406.5 -385 c 128,-1,3
 361 -374 361 -374 331.5 -360.5 c 128,-1,4
 302 -347 302 -347 279.5 -320.5 c 128,-1,5
 257 -294 257 -294 245 -266 c 128,-1,6
 233 -238 233 -238 225.5 -191 c 128,-1,7
 218 -144 218 -144 216 -97.5 c 128,-1,8
 214 -51 214 -51 214 21 c 2,9,-1
 214 260 l 2,10,11
 214 328 214 328 212.5 369 c 128,-1,12
 211 410 211 410 206 445 c 128,-1,13
 201 480 201 480 193.5 496.5 c 128,-1,14
 186 513 186 513 171 524.5 c 128,-1,15
 156 536 156 536 137.5 539 c 128,-1,16
 119 542 119 542 89 542 c 1,17,-1
 89 738 l 1,18,19
 119 738 119 738 137.5 741 c 128,-1,20
 156 744 156 744 171 755.5 c 128,-1,21
 186 767 186 767 193.5 783.5 c 128,-1,22
 201 800 201 800 206 835 c 128,-1,23
 211 870 211 870 212.5 911 c 128,-1,24
 214 952 214 952 214 1020 c 2,25,-1
 214 1259 l 2,26,27
 214 1331 214 1331 216 1377.5 c 128,-1,28
 218 1424 218 1424 225.5 1471 c 128,-1,29
 233 1518 233 1518 245 1546 c 128,-1,30
 257 1574 257 1574 279.5 1600.5 c 128,-1,31
 302 1627 302 1627 331.5 1640.5 c 128,-1,32
 361 1654 361 1654 406.5 1665 c 128,-1,33
 452 1676 452 1676 507.5 1679.5 c 128,-1,34
 563 1683 563 1683 639 1683 c 1,35,-1
 639 1486 l 1,36,37
 602 1486 602 1486 579.5 1484 c 128,-1,38
 557 1482 557 1482 538.5 1471 c 128,-1,39
 520 1460 520 1460 512 1447.5 c 128,-1,40
 504 1435 504 1435 498.5 1404 c 128,-1,41
 493 1373 493 1373 492 1341.5 c 128,-1,42
 491 1310 491 1310 491 1251 c 2,43,-1
 491 985 l 2,44,45
 491 823 491 823 453 741 c 128,-1,46
 415 659 415 659 333 640 c 1,47,48
 415 621 415 621 453 539 c 128,-1,49
 491 457 491 457 491 295 c 2,50,-1
 491 29 l 2,51,52
 491 -30 491 -30 492 -61.5 c 128,-1,53
 493 -93 493 -93 498.5 -124 c 128,-1,54
 504 -155 504 -155 512 -167.5 c 128,-1,55
 520 -180 520 -180 538.5 -191 c 128,-1,56
 557 -202 557 -202 579.5 -204 c 128,-1,57
 602 -206 602 -206 639 -206 c 1,58,-1
 639 -403 l 1,0,1
EndSplineSet
EndChar

StartChar: braceright
Encoding: 125 125 243
Width: 727
GlyphClass: 2
Flags: W
LayerCount: 2
UndoRedoHistory
Layer: 1
Undoes
EndUndoes
Redoes
EndRedoes
EndUndoRedoHistory
Fore
SplineSet
88 -403 m 1,0,-1
 88 -206 l 1,1,2
 125 -206 125 -206 147.5 -204 c 128,-1,3
 170 -202 170 -202 188.5 -191 c 128,-1,4
 207 -180 207 -180 215 -167.5 c 128,-1,5
 223 -155 223 -155 228.5 -124 c 128,-1,6
 234 -93 234 -93 235 -61.5 c 128,-1,7
 236 -30 236 -30 236 29 c 2,8,-1
 236 295 l 2,9,10
 236 457 236 457 274 539 c 128,-1,11
 312 621 312 621 394 640 c 1,12,13
 312 659 312 659 274 741 c 128,-1,14
 236 823 236 823 236 985 c 2,15,-1
 236 1251 l 2,16,17
 236 1310 236 1310 235 1341.5 c 128,-1,18
 234 1373 234 1373 228.5 1404 c 128,-1,19
 223 1435 223 1435 215 1447.5 c 128,-1,20
 207 1460 207 1460 188.5 1471 c 128,-1,21
 170 1482 170 1482 147.5 1484 c 128,-1,22
 125 1486 125 1486 88 1486 c 1,23,-1
 88 1683 l 1,24,25
 164 1683 164 1683 219.5 1679.5 c 128,-1,26
 275 1676 275 1676 320.5 1665 c 128,-1,27
 366 1654 366 1654 395.5 1640.5 c 128,-1,28
 425 1627 425 1627 447.5 1600.5 c 128,-1,29
 470 1574 470 1574 482 1546 c 128,-1,30
 494 1518 494 1518 501.5 1471 c 128,-1,31
 509 1424 509 1424 511 1377.5 c 128,-1,32
 513 1331 513 1331 513 1259 c 2,33,-1
 513 1020 l 2,34,35
 513 952 513 952 514.5 911 c 128,-1,36
 516 870 516 870 521 835 c 128,-1,37
 526 800 526 800 533.5 783.5 c 128,-1,38
 541 767 541 767 556 755.5 c 128,-1,39
 571 744 571 744 589.5 741 c 128,-1,40
 608 738 608 738 638 738 c 1,41,-1
 638 542 l 1,42,43
 608 542 608 542 589.5 539 c 128,-1,44
 571 536 571 536 556 524.5 c 128,-1,45
 541 513 541 513 533.5 496.5 c 128,-1,46
 526 480 526 480 521 445 c 128,-1,47
 516 410 516 410 514.5 369 c 128,-1,48
 513 328 513 328 513 260 c 2,49,-1
 513 21 l 2,50,51
 513 -51 513 -51 511 -97.5 c 128,-1,52
 509 -144 509 -144 501.5 -191 c 128,-1,53
 494 -238 494 -238 482 -266 c 128,-1,54
 470 -294 470 -294 447.5 -320.5 c 128,-1,55
 425 -347 425 -347 395.5 -360.5 c 128,-1,56
 366 -374 366 -374 320.5 -385 c 128,-1,57
 275 -396 275 -396 219.5 -399.5 c 128,-1,58
 164 -403 164 -403 88 -403 c 1,0,-1
EndSplineSet
EndChar

StartChar: bracketleft
Encoding: 91 91 244
Width: 703
GlyphClass: 2
Flags: W
LayerCount: 2
UndoRedoHistory
Layer: 1
Undoes
EndUndoes
Redoes
EndRedoes
EndUndoRedoHistory
Fore
SplineSet
117 -386 m 1,0,-1
 118 1658 l 1,1,-1
 611 1658 l 1,2,-1
 611 1534 l 1,3,-1
 366 1534 l 1,4,-1
 365 -262 l 1,5,-1
 610 -262 l 1,6,-1
 610 -386 l 1,7,-1
 117 -386 l 1,0,-1
EndSplineSet
EndChar

StartChar: bracketright
Encoding: 93 93 245
Width: 655
GlyphClass: 2
Flags: W
LayerCount: 2
UndoRedoHistory
Layer: 1
Undoes
EndUndoes
Redoes
EndRedoes
EndUndoRedoHistory
Fore
SplineSet
45 -386 m 1,0,-1
 45 -262 l 1,1,-1
 290 -262 l 1,2,-1
 289 1534 l 1,3,-1
 45 1534 l 1,4,-1
 45 1658 l 1,5,-1
 538 1658 l 1,6,-1
 538 -386 l 1,7,-1
 45 -386 l 1,0,-1
EndSplineSet
EndChar

StartChar: breve
Encoding: 728 728 246
Width: 690
GlyphClass: 2
Flags: W
LayerCount: 2
UndoRedoHistory
Layer: 1
Undoes
EndUndoes
Redoes
EndRedoes
EndUndoRedoHistory
Fore
SplineSet
339 1368 m 0,0,1
 69 1368 69 1368 69 1658 c 1,2,-1
 210 1658 l 1,3,4
 210 1573 210 1573 238.5 1537.5 c 128,-1,5
 267 1502 267 1502 339 1502 c 128,-1,6
 411 1502 411 1502 439.5 1538 c 128,-1,7
 468 1574 468 1574 468 1658 c 1,8,-1
 610 1658 l 1,9,10
 610 1368 610 1368 339 1368 c 0,0,1
EndSplineSet
EndChar

StartChar: brokenbar
Encoding: 166 166 247
Width: 442
GlyphClass: 2
Flags: W
LayerCount: 2
UndoRedoHistory
Layer: 1
Undoes
EndUndoes
Redoes
EndRedoes
EndUndoRedoHistory
Fore
SplineSet
117 823 m 1,0,-1
 117 1658 l 1,1,-1
 325 1658 l 1,2,-1
 325 823 l 1,3,-1
 117 823 l 1,0,-1
117 -333 m 1,4,-1
 117 502 l 1,5,-1
 325 502 l 1,6,-1
 325 -333 l 1,7,-1
 117 -333 l 1,4,-1
EndSplineSet
EndChar

StartChar: bullet
Encoding: 8226 8226 248
Width: 866
GlyphClass: 2
Flags: W
LayerCount: 2
UndoRedoHistory
Layer: 1
Undoes
EndUndoes
Redoes
EndRedoes
EndUndoRedoHistory
Fore
SplineSet
431 474 m 128,-1,1
 300 474 300 474 216.5 556.5 c 128,-1,2
 133 639 133 639 133 782 c 0,3,4
 133 927 133 927 216.5 1010 c 128,-1,5
 300 1093 300 1093 431 1093 c 128,-1,6
 562 1093 562 1093 646.5 1009.5 c 128,-1,7
 731 926 731 926 731 782 c 0,8,9
 731 639 731 639 646.5 556.5 c 128,-1,0
 562 474 562 474 431 474 c 128,-1,1
EndSplineSet
EndChar

StartChar: c
Encoding: 99 99 249
Width: 899
GlyphClass: 2
Flags: W
AnchorPoint: "Anchor-1" 380 0 basechar 0
LayerCount: 2
UndoRedoHistory
Layer: 1
Undoes
EndUndoes
Redoes
EndRedoes
EndUndoRedoHistory
Fore
SplineSet
462 -19 m 0,0,1
 261 -19 261 -19 173 94 c 128,-1,2
 85 207 85 207 85 421 c 2,3,-1
 85 764 l 2,4,5
 85 978 85 978 173 1090 c 128,-1,6
 261 1202 261 1202 462 1202 c 0,7,8
 651 1202 651 1202 736.5 1113 c 128,-1,9
 822 1024 822 1024 822 837 c 2,10,-1
 822 741 l 1,11,-1
 561 741 l 1,12,-1
 561 842 l 2,13,14
 561 932 561 932 539.5 967.5 c 128,-1,15
 518 1003 518 1003 465 1003 c 0,16,17
 406 1003 406 1003 385.5 961 c 128,-1,18
 365 919 365 919 365 805 c 2,19,-1
 365 373 l 2,20,21
 365 260 365 260 387.5 220.5 c 128,-1,22
 410 181 410 181 465 181 c 0,23,24
 521 181 521 181 541 219.5 c 128,-1,25
 561 258 561 258 561 336 c 2,26,-1
 561 463 l 1,27,-1
 822 463 l 1,28,-1
 822 351 l 2,29,30
 822 167 822 167 734.5 74 c 128,-1,31
 647 -19 647 -19 462 -19 c 0,0,1
EndSplineSet
EndChar

StartChar: caron
Encoding: 711 711 251
Width: 760
GlyphClass: 2
Flags: W
LayerCount: 2
UndoRedoHistory
Layer: 1
Undoes
EndUndoes
Redoes
EndRedoes
EndUndoRedoHistory
Fore
SplineSet
242 1291 m 1,0,-1
 65 1658 l 1,1,-1
 268 1658 l 1,2,-1
 379 1427 l 1,3,-1
 491 1658 l 1,4,-1
 695 1658 l 1,5,-1
 516 1291 l 1,6,-1
 242 1291 l 1,0,-1
EndSplineSet
EndChar

StartChar: cedilla
Encoding: 184 184 256
Width: 547
GlyphClass: 4
Flags: W
AnchorPoint: "Anchor-1" 120 0 mark 0
LayerCount: 2
UndoRedoHistory
Layer: 1
Undoes
EndUndoes
Redoes
EndRedoes
EndUndoRedoHistory
Fore
SplineSet
81 -504 m 1,0,-1
 81 -375 l 1,1,2
 129 -389 129 -389 182.5 -391.5 c 128,-1,3
 236 -394 236 -394 278.5 -377.5 c 128,-1,4
 321 -361 321 -361 322 -325 c 0,5,6
 322 -296 322 -296 307 -274.5 c 128,-1,7
 292 -253 292 -253 261 -239.5 c 128,-1,8
 230 -226 230 -226 204.5 -219 c 128,-1,9
 179 -212 179 -212 139 -204 c 1,10,-1
 139 0 l 1,11,-1
 260 0 l 1,12,-1
 260 -126 l 1,13,14
 364 -136 364 -136 438.5 -186 c 128,-1,15
 513 -236 513 -236 516 -316 c 0,16,17
 519 -388 519 -388 480 -438 c 128,-1,18
 441 -488 441 -488 377.5 -508.5 c 128,-1,19
 314 -529 314 -529 236 -528.5 c 128,-1,20
 158 -528 158 -528 81 -504 c 1,0,-1
EndSplineSet
EndChar

StartChar: cent
Encoding: 162 162 257
Width: 857
GlyphClass: 2
Flags: W
LayerCount: 2
UndoRedoHistory
Layer: 1
Undoes
EndUndoes
Redoes
EndRedoes
EndUndoRedoHistory
Fore
SplineSet
397 -201 m 1,0,-1
 397 -15 l 1,1,2
 231 2 231 2 157 113.5 c 128,-1,3
 83 225 83 225 83 421 c 2,4,-1
 83 764 l 2,5,6
 83 960 83 960 157 1070.5 c 128,-1,7
 231 1181 231 1181 397 1199 c 1,8,-1
 397 1383 l 1,9,-1
 475 1383 l 1,10,-1
 475 1201 l 1,11,12
 658 1198 658 1198 739 1109.5 c 128,-1,13
 820 1021 820 1021 820 837 c 2,14,-1
 820 741 l 1,15,-1
 559 741 l 1,16,-1
 559 839 l 2,17,18
 559 929 559 929 537.5 964.5 c 128,-1,19
 516 1000 516 1000 463 1000 c 0,20,21
 404 1000 404 1000 383.5 958 c 128,-1,22
 363 916 363 916 363 801 c 2,23,-1
 363 376 l 2,24,25
 363 263 363 263 385.5 224 c 128,-1,26
 408 185 408 185 464 185 c 0,27,28
 519 185 519 185 539 223 c 128,-1,29
 559 261 559 261 559 339 c 2,30,-1
 559 463 l 1,31,-1
 820 463 l 1,32,-1
 820 351 l 2,33,34
 820 170 820 170 737 77.5 c 128,-1,35
 654 -15 654 -15 475 -18 c 1,36,-1
 475 -201 l 1,37,-1
 397 -201 l 1,0,-1
EndSplineSet
EndChar

StartChar: circumflex
Encoding: 710 710 258
Width: 762
GlyphClass: 2
Flags: W
LayerCount: 2
UndoRedoHistory
Layer: 1
Undoes
EndUndoes
Redoes
EndRedoes
EndUndoRedoHistory
Fore
SplineSet
73 1266 m 1,0,-1
 257 1658 l 1,1,-1
 511 1658 l 1,2,-1
 698 1266 l 1,3,-1
 490 1266 l 1,4,-1
 385 1526 l 1,5,-1
 280 1266 l 1,6,-1
 73 1266 l 1,0,-1
EndSplineSet
EndChar

StartChar: colon
Encoding: 58 58 259
Width: 476
GlyphClass: 2
Flags: W
LayerCount: 2
UndoRedoHistory
Layer: 1
Undoes
EndUndoes
Redoes
EndRedoes
EndUndoRedoHistory
Fore
SplineSet
126 843 m 1,0,-1
 126 1113 l 1,1,-1
 396 1113 l 1,2,-1
 396 843 l 1,3,-1
 126 843 l 1,0,-1
126 166 m 1,4,-1
 126 435 l 1,5,-1
 396 435 l 1,6,-1
 396 166 l 1,7,-1
 126 166 l 1,4,-1
EndSplineSet
EndChar

StartChar: comma
Encoding: 44 44 260
Width: 430
GlyphClass: 2
Flags: W
LayerCount: 2
UndoRedoHistory
Layer: 1
Undoes
EndUndoes
Redoes
EndRedoes
EndUndoRedoHistory
Fore
SplineSet
124 -281 m 1,0,-1
 94 -176 l 1,1,2
 153 -161 153 -161 190.5 -115.5 c 128,-1,3
 228 -70 228 -70 228 0 c 1,4,-1
 81 0 l 1,5,-1
 81 271 l 1,6,-1
 356 271 l 1,7,-1
 356 19 l 2,8,9
 356 -235 356 -235 124 -281 c 1,0,-1
EndSplineSet
EndChar

StartChar: copyright
Encoding: 169 169 261
Width: 1784
GlyphClass: 2
Flags: W
LayerCount: 2
UndoRedoHistory
Layer: 1
Undoes
EndUndoes
Redoes
EndRedoes
EndUndoRedoHistory
Fore
SplineSet
893 -24 m 128,-1,1
 724 -24 724 -24 584 26 c 128,-1,2
 444 76 444 76 351 160 c 128,-1,3
 258 244 258 244 193.5 356 c 128,-1,4
 129 468 129 468 100.5 589 c 128,-1,5
 72 710 72 710 72 838 c 0,6,7
 72 967 72 967 100.5 1088 c 128,-1,8
 129 1209 129 1209 193.5 1321 c 128,-1,9
 258 1433 258 1433 351 1516.5 c 128,-1,10
 444 1600 444 1600 584 1650 c 128,-1,11
 724 1700 724 1700 893 1700 c 128,-1,12
 1062 1700 1062 1700 1201 1650 c 128,-1,13
 1340 1600 1340 1600 1433.5 1516.5 c 128,-1,14
 1527 1433 1527 1433 1591 1321 c 128,-1,15
 1655 1209 1655 1209 1683.5 1087.5 c 128,-1,16
 1712 966 1712 966 1712 838 c 0,17,18
 1712 709 1712 709 1683.5 588 c 128,-1,19
 1655 467 1655 467 1591 355 c 128,-1,20
 1527 243 1527 243 1434 159.5 c 128,-1,21
 1341 76 1341 76 1201.5 26 c 128,-1,0
 1062 -24 1062 -24 893 -24 c 128,-1,1
897 65 m 0,22,23
 1042 65 1042 65 1163 108.5 c 128,-1,24
 1284 152 1284 152 1366.5 225.5 c 128,-1,25
 1449 299 1449 299 1506 398.5 c 128,-1,26
 1563 498 1563 498 1589.5 608.5 c 128,-1,27
 1616 719 1616 719 1616 838 c 128,-1,28
 1616 957 1616 957 1589.5 1067.5 c 128,-1,29
 1563 1178 1563 1178 1506 1277 c 128,-1,30
 1449 1376 1449 1376 1366 1449 c 128,-1,31
 1283 1522 1283 1522 1162.5 1565 c 128,-1,32
 1042 1608 1042 1608 897 1608 c 0,33,34
 751 1608 751 1608 630 1565 c 128,-1,35
 509 1522 509 1522 426.5 1449 c 128,-1,36
 344 1376 344 1376 287 1277 c 128,-1,37
 230 1178 230 1178 203.5 1067.5 c 128,-1,38
 177 957 177 957 177 838 c 128,-1,39
 177 719 177 719 203 608.5 c 128,-1,40
 229 498 229 498 286.5 398.5 c 128,-1,41
 344 299 344 299 426.5 225.5 c 128,-1,42
 509 152 509 152 630 108.5 c 128,-1,43
 751 65 751 65 897 65 c 0,22,23
895 254 m 0,44,45
 673 254 673 254 577 368.5 c 128,-1,46
 481 483 481 483 481 701 c 2,47,-1
 481 995 l 2,48,49
 481 1212 481 1212 577.5 1326 c 128,-1,50
 674 1440 674 1440 895 1440 c 0,51,52
 1103 1440 1103 1440 1196.5 1350 c 128,-1,53
 1290 1260 1290 1260 1290 1071 c 2,54,-1
 1290 989 l 1,55,-1
 1008 989 l 1,56,-1
 1008 1072 l 2,57,58
 1008 1164 1008 1164 983 1201 c 128,-1,59
 958 1238 958 1238 898 1238 c 0,60,61
 833 1238 833 1238 808 1194 c 128,-1,62
 783 1150 783 1150 783 1034 c 2,63,-1
 783 654 l 2,64,65
 783 539 783 539 810 498 c 128,-1,66
 837 457 837 457 899 457 c 128,-1,67
 961 457 961 457 984.5 497 c 128,-1,68
 1008 537 1008 537 1008 616 c 2,69,-1
 1008 712 l 1,70,-1
 1290 712 l 1,71,-1
 1290 629 l 2,72,73
 1290 443 1290 443 1194 348.5 c 128,-1,74
 1098 254 1098 254 895 254 c 0,44,45
EndSplineSet
EndChar

StartChar: currency
Encoding: 164 164 262
Width: 1138
GlyphClass: 2
Flags: W
LayerCount: 2
UndoRedoHistory
Layer: 1
Undoes
EndUndoes
Redoes
EndRedoes
EndUndoRedoHistory
Fore
SplineSet
569 521 m 128,-1,1
 710 521 710 521 807 622 c 128,-1,2
 904 723 904 723 904 866 c 128,-1,3
 904 1009 904 1009 807.5 1110 c 128,-1,4
 711 1211 711 1211 569 1211 c 0,5,6
 428 1211 428 1211 331.5 1110 c 128,-1,7
 235 1009 235 1009 235 866 c 128,-1,8
 235 723 235 723 331.5 622 c 128,-1,0
 428 521 428 521 569 521 c 128,-1,1
114 381 m 1,9,-1
 84 411 l 1,10,-1
 247 573 l 1,11,12
 136 697 136 697 136 866 c 128,-1,13
 136 1035 136 1035 247 1159 c 1,14,-1
 84 1321 l 1,15,-1
 114 1351 l 1,16,-1
 276 1189 l 1,17,18
 399 1305 399 1305 569 1304 c 1,19,20
 739 1305 739 1305 862 1189 c 1,21,-1
 1024 1351 l 1,22,-1
 1054 1321 l 1,23,-1
 892 1159 l 1,24,25
 1002 1034 1002 1034 1002 866 c 0,26,27
 1002 697 1002 697 891 573 c 1,28,-1
 1054 411 l 1,29,-1
 1024 381 l 1,30,-1
 862 543 l 1,31,32
 739 427 739 427 569 428 c 1,33,34
 399 427 399 427 276 543 c 1,35,-1
 114 381 l 1,9,-1
EndSplineSet
EndChar

StartChar: d
Encoding: 100 100 263
Width: 969
GlyphClass: 2
Flags: W
LayerCount: 2
UndoRedoHistory
Layer: 1
Undoes
EndUndoes
Redoes
EndRedoes
EndUndoRedoHistory
Fore
SplineSet
474 181 m 0,0,1
 525 181 525 181 582 213 c 1,2,-1
 582 969 l 1,3,4
 525 1005 525 1005 473 1005 c 0,5,6
 417 1005 417 1005 392.5 954 c 128,-1,7
 368 903 368 903 368 824 c 2,8,-1
 368 390 l 2,9,10
 368 326 368 326 375 284 c 128,-1,11
 382 242 382 242 406.5 211.5 c 128,-1,12
 431 181 431 181 474 181 c 0,0,1
376 -19 m 1,13,14
 231 -19 231 -19 159 84 c 128,-1,15
 87 187 87 187 87 411 c 2,16,-1
 87 755 l 2,17,18
 87 850 87 850 101.5 927 c 128,-1,19
 116 1004 116 1004 147.5 1068 c 128,-1,20
 179 1132 179 1132 236 1167 c 128,-1,21
 293 1202 293 1202 372 1202 c 0,22,23
 484 1202 484 1202 582 1111 c 1,24,-1
 582 1658 l 1,25,-1
 862 1658 l 1,26,-1
 862 0 l 1,27,-1
 582 0 l 1,28,-1
 582 81 l 1,29,30
 487 -18 487 -18 376 -19 c 1,13,14
EndSplineSet
EndChar

StartChar: dagger
Encoding: 8224 8224 264
Width: 810
GlyphClass: 2
Flags: W
LayerCount: 2
UndoRedoHistory
Layer: 1
Undoes
EndUndoes
Redoes
EndRedoes
EndUndoRedoHistory
Fore
SplineSet
282 0 m 1,0,-1
 282 1059 l 1,1,-1
 81 1059 l 1,2,-1
 81 1251 l 1,3,-1
 282 1251 l 1,4,-1
 282 1653 l 1,5,-1
 531 1653 l 1,6,-1
 531 1251 l 1,7,-1
 731 1251 l 1,8,-1
 731 1059 l 1,9,-1
 531 1059 l 1,10,-1
 531 0 l 1,11,-1
 282 0 l 1,0,-1
EndSplineSet
EndChar

StartChar: daggerdbl
Encoding: 8225 8225 265
Width: 810
GlyphClass: 2
Flags: W
LayerCount: 2
UndoRedoHistory
Layer: 1
Undoes
EndUndoes
Redoes
EndRedoes
EndUndoRedoHistory
Fore
SplineSet
285 0 m 1,0,-1
 285 505 l 1,1,-1
 68 505 l 1,2,-1
 68 675 l 1,3,-1
 285 675 l 1,4,-1
 285 1010 l 1,5,-1
 68 1010 l 1,6,-1
 68 1184 l 1,7,-1
 285 1184 l 1,8,-1
 285 1654 l 1,9,-1
 529 1654 l 1,10,-1
 529 1184 l 1,11,-1
 744 1184 l 1,12,-1
 744 1010 l 1,13,-1
 529 1010 l 1,14,-1
 529 675 l 1,15,-1
 744 675 l 1,16,-1
 744 505 l 1,17,-1
 529 505 l 1,18,-1
 529 0 l 1,19,-1
 285 0 l 1,0,-1
EndSplineSet
EndChar

StartChar: dcroat
Encoding: 273 273 267
Width: 979
GlyphClass: 2
Flags: W
LayerCount: 2
UndoRedoHistory
Layer: 1
Undoes
EndUndoes
Redoes
EndRedoes
EndUndoRedoHistory
Fore
SplineSet
472 181 m 0,0,1
 521 181 521 181 578 213 c 1,2,-1
 578 969 l 1,3,4
 521 1005 521 1005 470 1005 c 0,5,6
 414 1005 414 1005 389.5 954 c 128,-1,7
 365 903 365 903 365 824 c 2,8,-1
 365 390 l 2,9,10
 365 343 365 343 369 309 c 128,-1,11
 373 275 373 275 384 244 c 128,-1,12
 395 213 395 213 417 197 c 128,-1,13
 439 181 439 181 472 181 c 0,0,1
374 -19 m 1,14,15
 228 -19 228 -19 156.5 84 c 128,-1,16
 85 187 85 187 85 411 c 2,17,-1
 85 755 l 2,18,19
 85 831 85 831 93.5 894.5 c 128,-1,20
 102 958 102 958 122.5 1016 c 128,-1,21
 143 1074 143 1074 174.5 1114.5 c 128,-1,22
 206 1155 206 1155 255.5 1178.5 c 128,-1,23
 305 1202 305 1202 369 1202 c 0,24,25
 478 1202 478 1202 578 1111 c 1,26,-1
 578 1390 l 1,27,-1
 324 1390 l 1,28,-1
 324 1521 l 1,29,-1
 578 1521 l 1,30,-1
 578 1658 l 1,31,-1
 858 1658 l 1,32,-1
 858 1521 l 1,33,-1
 970 1521 l 1,34,-1
 970 1390 l 1,35,-1
 858 1390 l 1,36,-1
 858 0 l 1,37,-1
 578 0 l 1,38,-1
 578 81 l 1,39,40
 483 -18 483 -18 374 -19 c 1,14,15
EndSplineSet
EndChar

StartChar: degree
Encoding: 176 176 268
Width: 1017
GlyphClass: 2
Flags: W
LayerCount: 2
UndoRedoHistory
Layer: 1
Undoes
EndUndoes
Redoes
EndRedoes
EndUndoRedoHistory
Fore
SplineSet
508 921 m 0,0,1
 333 921 333 921 230.5 1024 c 128,-1,2
 128 1127 128 1127 128 1300 c 128,-1,3
 128 1473 128 1473 230.5 1575 c 128,-1,4
 333 1677 333 1677 508 1677 c 0,5,6
 684 1677 684 1677 787 1575 c 128,-1,7
 890 1473 890 1473 890 1300 c 0,8,9
 890 1126 890 1126 787 1023.5 c 128,-1,10
 684 921 684 921 508 921 c 0,0,1
508 1090 m 128,-1,12
 597 1090 597 1090 646.5 1148 c 128,-1,13
 696 1206 696 1206 696 1300 c 128,-1,14
 696 1394 696 1394 646.5 1451 c 128,-1,15
 597 1508 597 1508 508 1508 c 128,-1,16
 419 1508 419 1508 369.5 1451 c 128,-1,17
 320 1394 320 1394 320 1300 c 128,-1,18
 320 1206 320 1206 369.5 1148 c 128,-1,11
 419 1090 419 1090 508 1090 c 128,-1,12
EndSplineSet
EndChar

StartChar: dieresis
Encoding: 168 168 269
Width: 847
GlyphClass: 2
Flags: W
LayerCount: 2
UndoRedoHistory
Layer: 1
Undoes
EndUndoes
Redoes
EndRedoes
EndUndoRedoHistory
Fore
SplineSet
494 1392 m 1,0,-1
 494 1658 l 1,1,-1
 746 1658 l 1,2,-1
 746 1392 l 1,3,-1
 494 1392 l 1,0,-1
101 1392 m 1,4,-1
 101 1658 l 1,5,-1
 352 1658 l 1,6,-1
 352 1392 l 1,7,-1
 101 1392 l 1,4,-1
EndSplineSet
EndChar

StartChar: divide
Encoding: 247 247 270
Width: 809
GlyphClass: 2
Flags: W
LayerCount: 2
UndoRedoHistory
Layer: 1
Undoes
EndUndoes
Redoes
EndRedoes
EndUndoRedoHistory
Fore
SplineSet
310 1080 m 1,0,-1
 310 1325 l 1,1,-1
 506 1325 l 1,2,-1
 506 1080 l 1,3,-1
 310 1080 l 1,0,-1
50 760 m 1,4,-1
 50 934 l 1,5,-1
 759 934 l 1,6,-1
 759 760 l 1,7,-1
 50 760 l 1,4,-1
310 349 m 1,8,-1
 310 594 l 1,9,-1
 506 594 l 1,10,-1
 506 349 l 1,11,-1
 310 349 l 1,8,-1
EndSplineSet
EndChar

StartChar: dollar
Encoding: 36 36 271
Width: 1009
GlyphClass: 2
Flags: W
LayerCount: 2
UndoRedoHistory
Layer: 1
Undoes
EndUndoes
Redoes
EndRedoes
EndUndoRedoHistory
Fore
SplineSet
495 -182 m 1,0,-1
 495 -19 l 1,1,2
 85 -5 85 -5 63 486 c 1,3,-1
 327 541 l 1,4,5
 336 212 336 212 515 212 c 0,6,7
 584 212 584 212 617 254 c 128,-1,8
 650 296 650 296 650 367 c 0,9,10
 650 420 650 420 638 463 c 128,-1,11
 626 506 626 506 599.5 544 c 128,-1,12
 573 582 573 582 546 610 c 128,-1,13
 519 638 519 638 473 678 c 2,14,-1
 256 867 l 2,15,16
 160 951 160 951 113 1041.5 c 128,-1,17
 66 1132 66 1132 66 1268 c 0,18,19
 66 1452 66 1452 171.5 1558.5 c 128,-1,20
 277 1665 277 1665 460 1676 c 1,21,-1
 460 1830 l 1,22,-1
 547 1830 l 1,23,-1
 547 1676 l 1,24,25
 645 1669 645 1669 714.5 1631.5 c 128,-1,26
 784 1594 784 1594 824 1530 c 128,-1,27
 864 1466 864 1466 883.5 1394 c 128,-1,28
 903 1322 903 1322 910 1229 c 1,29,-1
 651 1178 l 1,30,31
 649 1228 649 1228 644.5 1265 c 128,-1,32
 640 1302 640 1302 629 1340 c 128,-1,33
 618 1378 618 1378 601 1401.5 c 128,-1,34
 584 1425 584 1425 555 1439 c 128,-1,35
 526 1453 526 1453 486 1450 c 0,36,37
 419 1446 419 1446 383.5 1405.5 c 128,-1,38
 348 1365 348 1365 348 1297 c 0,39,40
 348 1217 348 1217 379 1166 c 128,-1,41
 410 1115 410 1115 477 1055 c 1,42,-1
 693 867 l 1,43,44
 747 818 747 818 787.5 772 c 128,-1,45
 828 726 828 726 864.5 667 c 128,-1,46
 901 608 901 608 920 537 c 128,-1,47
 939 466 939 466 939 387 c 0,48,49
 939 221 939 221 841 111 c 128,-1,50
 743 1 743 1 580 -17 c 1,51,-1
 580 -182 l 1,52,-1
 495 -182 l 1,0,-1
EndSplineSet
EndChar

StartChar: dotlessi
Encoding: 305 305 273
Width: 517
GlyphClass: 2
Flags: W
LayerCount: 2
UndoRedoHistory
Layer: 1
Undoes
EndUndoes
Redoes
EndRedoes
EndUndoRedoHistory
Fore
SplineSet
123 0 m 1,0,-1
 123 1184 l 1,1,-1
 402 1184 l 1,2,-1
 402 0 l 1,3,-1
 123 0 l 1,0,-1
EndSplineSet
EndChar

StartChar: e
Encoding: 101 101 274
Width: 915
GlyphClass: 2
Flags: W
AnchorPoint: "Anchor-0" 521 0 basechar 0
LayerCount: 2
UndoRedoHistory
Layer: 1
Undoes
EndUndoes
Redoes
EndRedoes
EndUndoRedoHistory
Fore
SplineSet
363 718 m 1,0,-1
 565 718 l 1,1,-1
 565 831 l 2,2,3
 565 921 565 921 542.5 960 c 128,-1,4
 520 999 520 999 463 999 c 0,5,6
 405 999 405 999 384 955 c 128,-1,7
 363 911 363 911 363 795 c 2,8,-1
 363 718 l 1,0,-1
466 -19 m 0,9,10
 263 -19 263 -19 174 93 c 128,-1,11
 85 205 85 205 85 424 c 2,12,-1
 85 759 l 2,13,14
 85 978 85 978 175 1090 c 128,-1,15
 265 1202 265 1202 465 1202 c 0,16,17
 571 1202 571 1202 643.5 1171 c 128,-1,18
 716 1140 716 1140 756.5 1077 c 128,-1,19
 797 1014 797 1014 814 931.5 c 128,-1,20
 831 849 831 849 831 733 c 2,21,-1
 831 578 l 1,22,-1
 363 578 l 1,23,-1
 363 400 l 2,24,25
 363 363 363 363 363.5 342.5 c 128,-1,26
 364 322 364 322 367 293 c 128,-1,27
 370 264 370 264 376.5 248 c 128,-1,28
 383 232 383 232 394 215.5 c 128,-1,29
 405 199 405 199 423 192 c 128,-1,30
 441 185 441 185 465 185 c 0,31,32
 521 185 521 185 543 224.5 c 128,-1,33
 565 264 565 264 565 339 c 2,34,-1
 565 407 l 1,35,-1
 830 407 l 1,36,-1
 830 360 l 2,37,38
 830 176 830 176 738.5 78.5 c 128,-1,39
 647 -19 647 -19 466 -19 c 0,9,10
EndSplineSet
EndChar

StartChar: eight
Encoding: 56 56 282
Width: 1025
GlyphClass: 2
Flags: W
LayerCount: 2
UndoRedoHistory
Layer: 1
Undoes
EndUndoes
Redoes
EndRedoes
EndUndoRedoHistory
Fore
SplineSet
513 989 m 0,0,1
 645 989 645 989 645 1251 c 0,2,3
 645 1345 645 1345 613 1403 c 128,-1,4
 581 1461 581 1461 513 1461 c 0,5,6
 442 1461 442 1461 409.5 1403.5 c 128,-1,7
 377 1346 377 1346 377 1252 c 0,8,9
 377 989 377 989 513 989 c 0,0,1
513 195 m 128,-1,11
 553 195 553 195 582 212 c 128,-1,12
 611 229 611 229 627.5 254 c 128,-1,13
 644 279 644 279 653.5 317.5 c 128,-1,14
 663 356 663 356 665.5 390 c 128,-1,15
 668 424 668 424 668 468 c 0,16,17
 668 742 668 742 513 742 c 0,18,19
 355 742 355 742 355 468 c 0,20,21
 355 424 355 424 358 389 c 128,-1,22
 361 354 361 354 371 316 c 128,-1,23
 381 278 381 278 397.5 253 c 128,-1,24
 414 228 414 228 443.5 211.5 c 128,-1,10
 473 195 473 195 513 195 c 128,-1,11
513 -21 m 0,25,26
 78 -21 78 -21 80 482 c 0,27,28
 81 764 81 764 275 874 c 1,29,30
 108 1000 108 1000 105 1239 c 0,31,32
 103 1447 103 1447 207 1562 c 128,-1,33
 311 1677 311 1677 513 1677 c 128,-1,34
 715 1677 715 1677 817 1561.5 c 128,-1,35
 919 1446 919 1446 917 1239 c 0,36,37
 914 996 914 996 749 874 c 1,38,39
 943 759 943 759 944 482 c 1,40,41
 949 -21 949 -21 513 -21 c 0,25,26
EndSplineSet
EndChar

StartChar: ellipsis
Encoding: 8230 8230 283
Width: 1238
GlyphClass: 2
Flags: W
LayerCount: 2
UndoRedoHistory
Layer: 1
Undoes
EndUndoes
Redoes
EndRedoes
EndUndoRedoHistory
Fore
SplineSet
901 0 m 1,0,-1
 901 278 l 1,1,-1
 1173 278 l 1,2,-1
 1173 0 l 1,3,-1
 901 0 l 1,0,-1
482 0 m 1,4,-1
 482 277 l 1,5,-1
 753 277 l 1,6,-1
 753 0 l 1,7,-1
 482 0 l 1,4,-1
66 0 m 1,8,-1
 66 277 l 1,9,-1
 337 277 l 1,10,-1
 337 0 l 1,11,-1
 66 0 l 1,8,-1
EndSplineSet
EndChar

StartChar: emdash
Encoding: 8212 8212 285
Width: 2047
GlyphClass: 2
Flags: W
LayerCount: 2
UndoRedoHistory
Layer: 1
Undoes
EndUndoes
Redoes
EndRedoes
EndUndoRedoHistory
Fore
SplineSet
1 610 m 1,0,-1
 1 806 l 1,1,-1
 2046 806 l 1,2,-1
 2046 610 l 1,3,-1
 1 610 l 1,0,-1
EndSplineSet
EndChar

StartChar: endash
Encoding: 8211 8211 286
Width: 1024
GlyphClass: 2
Flags: W
LayerCount: 2
UndoRedoHistory
Layer: 1
Undoes
EndUndoes
Redoes
EndRedoes
EndUndoRedoHistory
Fore
SplineSet
1 510 m 1,0,-1
 1 710 l 1,1,-1
 1023 710 l 1,2,-1
 1023 510 l 1,3,-1
 1 510 l 1,0,-1
EndSplineSet
EndChar

StartChar: eng
Encoding: 331 331 287
Width: 872
GlyphClass: 2
Flags: W
LayerCount: 2
UndoRedoHistory
Layer: 1
Undoes
EndUndoes
Redoes
EndRedoes
EndUndoRedoHistory
Fore
SplineSet
334 -392 m 1,0,-1
 334 -200 l 1,1,2
 408 -200 408 -200 454 -190.5 c 128,-1,3
 500 -181 500 -181 526 -156.5 c 128,-1,4
 552 -132 552 -132 561 -98.5 c 128,-1,5
 570 -65 570 -65 570 -10 c 2,6,-1
 570 884 l 2,7,8
 570 940 570 940 553.5 967 c 128,-1,9
 537 994 537 994 491 993 c 0,10,11
 438 992 438 992 367 939 c 1,12,-1
 367 0 l 1,13,-1
 87 0 l 1,14,-1
 87 1184 l 1,15,-1
 367 1184 l 1,16,-1
 367 1074 l 1,17,18
 503 1202 503 1202 656 1202 c 0,19,20
 708 1202 708 1202 747 1180.5 c 128,-1,21
 786 1159 786 1159 807.5 1121.5 c 128,-1,22
 829 1084 829 1084 839.5 1040 c 128,-1,23
 850 996 850 996 850 946 c 2,24,-1
 850 -12 l 2,25,26
 850 -205 850 -205 744.5 -298.5 c 128,-1,27
 639 -392 639 -392 428 -392 c 2,28,-1
 334 -392 l 1,0,-1
EndSplineSet
EndChar

StartChar: equal
Encoding: 61 61 289
Width: 879
GlyphClass: 2
Flags: W
LayerCount: 2
UndoRedoHistory
Layer: 1
Undoes
EndUndoes
Redoes
EndRedoes
EndUndoRedoHistory
Fore
SplineSet
119 918 m 1,0,-1
 119 1108 l 1,1,-1
 760 1108 l 1,2,-1
 760 918 l 1,3,-1
 119 918 l 1,0,-1
119 542 m 1,4,-1
 119 731 l 1,5,-1
 760 731 l 1,6,-1
 760 542 l 1,7,-1
 119 542 l 1,4,-1
EndSplineSet
EndChar

StartChar: estimated
Encoding: 8494 8494 290
Width: 910
GlyphClass: 2
Flags: W
LayerCount: 2
UndoRedoHistory
Layer: 1
Undoes
EndUndoes
Redoes
EndRedoes
EndUndoRedoHistory
Fore
SplineSet
342 660 m 1,0,-1
 602 660 l 1,1,-1
 602 920 l 2,2,3
 602 969 602 969 597.5 1001 c 128,-1,4
 593 1033 593 1033 580 1062 c 128,-1,5
 567 1091 567 1091 540 1105 c 128,-1,6
 513 1119 513 1119 472 1119 c 0,7,8
 391 1119 391 1119 366.5 1066.5 c 128,-1,9
 342 1014 342 1014 342 887 c 2,10,-1
 342 660 l 1,0,-1
487 -19 m 0,11,12
 277 -19 277 -19 180.5 76 c 128,-1,13
 84 171 84 171 84 381 c 2,14,-1
 84 799 l 2,15,16
 84 1012 84 1012 175 1107 c 128,-1,17
 266 1202 266 1202 471 1202 c 0,18,19
 579 1202 579 1202 649 1177 c 128,-1,20
 719 1152 719 1152 759.5 1096.5 c 128,-1,21
 800 1041 800 1041 815.5 965 c 128,-1,22
 831 889 831 889 831 773 c 2,23,-1
 831 578 l 1,24,-1
 342 578 l 1,25,-1
 342 284 l 2,26,27
 342 231 342 231 344 203.5 c 128,-1,28
 346 176 346 176 354.5 143 c 128,-1,29
 363 110 363 110 380.5 95 c 128,-1,30
 398 80 398 80 429.5 69.5 c 128,-1,31
 461 59 461 59 509 59 c 0,32,33
 553 59 553 59 583 69.5 c 128,-1,34
 613 80 613 80 629 95 c 128,-1,35
 645 110 645 110 653.5 141.5 c 128,-1,36
 662 173 662 173 663.5 200 c 128,-1,37
 665 227 665 227 665 277 c 2,38,-1
 665 433 l 1,39,-1
 829 433 l 1,40,-1
 829 310 l 2,41,42
 829 128 829 128 752.5 54.5 c 128,-1,43
 676 -19 676 -19 487 -19 c 0,11,12
EndSplineSet
EndChar

StartChar: eth
Encoding: 240 240 291
Width: 1016
GlyphClass: 2
Flags: W
LayerCount: 2
UndoRedoHistory
Layer: 1
Undoes
EndUndoes
Redoes
EndRedoes
EndUndoRedoHistory
Fore
SplineSet
384 592 m 0,0,1
 384 560 384 560 383 517 c 128,-1,2
 382 474 382 474 381.5 446 c 128,-1,3
 381 418 381 418 381 383 c 128,-1,4
 381 348 381 348 383.5 325 c 128,-1,5
 386 302 386 302 390.5 276.5 c 128,-1,6
 395 251 395 251 404 235 c 128,-1,7
 413 219 413 219 425.5 205.5 c 128,-1,8
 438 192 438 192 457 186 c 128,-1,9
 476 180 476 180 500 180 c 0,10,11
 541 180 541 180 567.5 195.5 c 128,-1,12
 594 211 594 211 607 242.5 c 128,-1,13
 620 274 620 274 624.5 308.5 c 128,-1,14
 629 343 629 343 629 395 c 2,15,-1
 629 907 l 1,16,17
 628 908 628 908 620 915 c 128,-1,18
 612 922 612 922 607.5 926 c 128,-1,19
 603 930 603 930 592 937 c 128,-1,20
 581 944 581 944 571 948 c 128,-1,21
 561 952 561 952 546.5 955 c 128,-1,22
 532 958 532 958 516 958 c 0,23,24
 438 958 438 958 411 877 c 128,-1,25
 384 796 384 796 384 592 c 0,0,1
908 465 m 2,26,27
 908 -22 908 -22 495 -22 c 0,28,29
 288 -22 288 -22 197.5 93.5 c 128,-1,30
 107 209 107 209 107 448 c 2,31,-1
 107 674 l 2,32,33
 107 780 107 780 126 866.5 c 128,-1,34
 145 953 145 953 184 1020.5 c 128,-1,35
 223 1088 223 1088 289.5 1125 c 128,-1,36
 356 1162 356 1162 446 1162 c 0,37,38
 551 1162 551 1162 627 1102 c 1,39,40
 617 1280 617 1280 564 1354 c 1,41,-1
 346 1269 l 1,42,-1
 330 1373 l 1,43,-1
 506 1441 l 1,44,45
 431 1519 431 1519 209 1519 c 1,46,-1
 221 1697 l 1,47,48
 411 1697 411 1697 529 1656.5 c 128,-1,49
 647 1616 647 1616 714 1533 c 1,50,-1
 934 1617 l 1,51,-1
 950 1512 l 1,52,-1
 774 1447 l 1,53,54
 826 1351 826 1351 867 1184.5 c 128,-1,55
 908 1018 908 1018 908 841 c 2,56,-1
 908 465 l 2,26,27
EndSplineSet
EndChar

StartChar: exclam
Encoding: 33 33 292
Width: 471
GlyphClass: 2
Flags: W
LayerCount: 2
UndoRedoHistory
Layer: 1
Undoes
EndUndoes
Redoes
EndRedoes
EndUndoRedoHistory
Fore
SplineSet
182 384 m 1,0,-1
 97 1656 l 1,1,-1
 376 1656 l 1,2,-1
 280 384 l 1,3,-1
 182 384 l 1,0,-1
95 0 m 1,4,-1
 95 270 l 1,5,-1
 366 270 l 1,6,-1
 366 0 l 1,7,-1
 95 0 l 1,4,-1
EndSplineSet
EndChar

StartChar: exclamdown
Encoding: 161 161 293
Width: 453
GlyphClass: 2
Flags: W
LayerCount: 2
UndoRedoHistory
Layer: 1
Undoes
EndUndoes
Redoes
EndRedoes
EndUndoRedoHistory
Fore
SplineSet
97 1047 m 1,0,-1
 97 1317 l 1,1,-1
 368 1317 l 1,2,-1
 368 1047 l 1,3,-1
 97 1047 l 1,0,-1
87 -339 m 1,4,-1
 183 933 l 1,5,-1
 280 933 l 1,6,-1
 365 -339 l 1,7,-1
 87 -339 l 1,4,-1
EndSplineSet
EndChar

StartChar: f
Encoding: 102 102 294
Width: 624
GlyphClass: 2
Flags: W
LayerCount: 2
UndoRedoHistory
Layer: 1
Undoes
EndUndoes
Redoes
EndRedoes
EndUndoRedoHistory
Fore
SplineSet
165 0 m 1,0,-1
 165 985 l 1,1,-1
 37 985 l 1,2,-1
 37 1184 l 1,3,-1
 165 1184 l 1,4,-1
 165 1247 l 2,5,6
 165 1320 165 1320 171 1370 c 128,-1,7
 177 1420 177 1420 194.5 1468 c 128,-1,8
 212 1516 212 1516 244 1544.5 c 128,-1,9
 276 1573 276 1573 329 1590 c 128,-1,10
 382 1607 382 1607 457 1607 c 0,11,12
 514 1607 514 1607 610 1596 c 1,13,-1
 610 1388 l 1,14,15
 603 1389 603 1389 575 1393.5 c 128,-1,16
 547 1398 547 1398 534 1398 c 0,17,18
 484 1398 484 1398 464 1366.5 c 128,-1,19
 444 1335 444 1335 444 1275 c 2,20,-1
 444 1184 l 1,21,-1
 610 1184 l 1,22,-1
 610 985 l 1,23,-1
 444 985 l 1,24,-1
 444 0 l 1,25,-1
 165 0 l 1,0,-1
EndSplineSet
EndChar

StartChar: five
Encoding: 53 53 295
Width: 1021
GlyphClass: 2
Flags: W
LayerCount: 2
UndoRedoHistory
Layer: 1
Undoes
EndUndoes
Redoes
EndRedoes
EndUndoRedoHistory
Fore
SplineSet
520 -23 m 0,0,1
 398 -23 398 -23 314 11.5 c 128,-1,2
 230 46 230 46 184 114.5 c 128,-1,3
 138 183 138 183 118.5 270.5 c 128,-1,4
 99 358 99 358 99 479 c 1,5,-1
 378 479 l 1,6,7
 378 411 378 411 383 366 c 128,-1,8
 388 321 388 321 403 278.5 c 128,-1,9
 418 236 418 236 450 215 c 128,-1,10
 482 194 482 194 531 195 c 0,11,12
 562 195 562 195 585.5 206 c 128,-1,13
 609 217 609 217 624.5 231 c 128,-1,14
 640 245 640 245 651 275.5 c 128,-1,15
 662 306 662 306 667.5 329.5 c 128,-1,16
 673 353 673 353 675.5 399.5 c 128,-1,17
 678 446 678 446 678.5 476 c 128,-1,18
 679 506 679 506 679 564 c 0,19,20
 679 627 679 627 676.5 669 c 128,-1,21
 674 711 674 711 665 755 c 128,-1,22
 656 799 656 799 640 824 c 128,-1,23
 624 849 624 849 595 865 c 128,-1,24
 566 881 566 881 525 881 c 0,25,26
 466 881 466 881 425.5 841 c 128,-1,27
 385 801 385 801 368 737 c 1,28,-1
 124 737 l 1,29,-1
 137 1658 l 1,30,-1
 890 1658 l 1,31,-1
 890 1399 l 1,32,-1
 380 1399 l 1,33,-1
 363 1008 l 1,34,35
 396 1044 396 1044 454.5 1066.5 c 128,-1,36
 513 1089 513 1089 584 1091 c 0,37,38
 681 1095 681 1095 753 1061 c 128,-1,39
 825 1027 825 1027 868.5 959 c 128,-1,40
 912 891 912 891 933 798.5 c 128,-1,41
 954 706 954 706 954 587 c 0,42,43
 954 477 954 477 943.5 391 c 128,-1,44
 933 305 933 305 904.5 224.5 c 128,-1,45
 876 144 876 144 828.5 92 c 128,-1,46
 781 40 781 40 703 8.5 c 128,-1,47
 625 -23 625 -23 520 -23 c 0,0,1
EndSplineSet
EndChar

StartChar: florin
Encoding: 402 402 296
Width: 851
GlyphClass: 2
Flags: W
LayerCount: 2
UndoRedoHistory
Layer: 1
Undoes
EndUndoes
Redoes
EndRedoes
EndUndoRedoHistory
Fore
SplineSet
170 -293 m 0,0,1
 113 -293 113 -293 20 -282 c 1,2,-1
 40 -74 l 1,3,4
 93 -84 93 -84 115 -84 c 0,5,6
 165 -84 165 -84 188.5 -52.5 c 128,-1,7
 212 -21 212 -21 218 40 c 2,8,-1
 312 981 l 1,9,-1
 188 981 l 1,10,-1
 188 1184 l 1,11,-1
 333 1184 l 1,12,-1
 340 1255 l 2,13,14
 347 1326 347 1326 358 1376 c 128,-1,15
 369 1426 369 1426 392 1472.5 c 128,-1,16
 415 1519 415 1519 450 1546.5 c 128,-1,17
 485 1574 485 1574 539.5 1590.5 c 128,-1,18
 594 1607 594 1607 669 1607 c 0,19,20
 726 1607 726 1607 820 1596 c 1,21,-1
 799 1388 l 1,22,23
 791 1389 791 1389 764.5 1393.5 c 128,-1,24
 738 1398 738 1398 725 1398 c 0,25,26
 675 1398 675 1398 651.5 1366.5 c 128,-1,27
 628 1335 628 1335 622 1275 c 2,28,-1
 613 1184 l 1,29,-1
 756 1184 l 1,30,-1
 756 981 l 1,31,-1
 592 981 l 1,32,-1
 499 58 l 2,33,34
 492 -14 492 -14 481 -63.5 c 128,-1,35
 470 -113 470 -113 447 -159.5 c 128,-1,36
 424 -206 424 -206 389.5 -233.5 c 128,-1,37
 355 -261 355 -261 300 -277 c 128,-1,38
 245 -293 245 -293 170 -293 c 0,0,1
EndSplineSet
EndChar

StartChar: foundryicon
Encoding: 65539 -1 297
Width: 1449
GlyphClass: 2
Flags: W
LayerCount: 2
UndoRedoHistory
Layer: 1
Undoes
EndUndoes
Redoes
EndRedoes
EndUndoRedoHistory
Fore
SplineSet
298 254 m 1,0,-1
 452 751 l 1,1,-1
 32 1068 l 1,2,-1
 556 1071 l 1,3,-1
 720 1568 l 1,4,-1
 892 1071 l 1,5,-1
 1417 1071 l 1,6,-1
 994 751 l 1,7,-1
 1150 254 l 1,8,-1
 720 554 l 1,9,-1
 298 254 l 1,0,-1
EndSplineSet
EndChar

StartChar: four
Encoding: 52 52 298
Width: 1044
GlyphClass: 2
Flags: W
LayerCount: 2
UndoRedoHistory
Layer: 1
Undoes
EndUndoes
Redoes
EndRedoes
EndUndoRedoHistory
Fore
SplineSet
319 641 m 1,0,-1
 560 641 l 1,1,-1
 560 1344 l 1,2,-1
 319 641 l 1,0,-1
560 0 m 1,3,-1
 560 405 l 1,4,-1
 73 405 l 1,5,-1
 73 667 l 1,6,-1
 494 1659 l 1,7,-1
 828 1659 l 1,8,-1
 828 641 l 1,9,-1
 1000 641 l 1,10,-1
 1000 405 l 1,11,-1
 828 405 l 1,12,-1
 828 0 l 1,13,-1
 560 0 l 1,3,-1
EndSplineSet
EndChar

StartChar: fraction
Encoding: 8260 8260 299
Width: 559
GlyphClass: 2
Flags: W
LayerCount: 2
UndoRedoHistory
Layer: 1
Undoes
EndUndoes
Redoes
EndRedoes
EndUndoRedoHistory
Fore
SplineSet
13 0 m 1,0,-1
 327 1658 l 1,1,-1
 546 1658 l 1,2,-1
 233 0 l 1,3,-1
 13 0 l 1,0,-1
EndSplineSet
EndChar

StartChar: g
Encoding: 103 103 300
Width: 950
GlyphClass: 2
Flags: W
LayerCount: 2
UndoRedoHistory
Layer: 1
Undoes
EndUndoes
Redoes
EndRedoes
EndUndoRedoHistory
Fore
SplineSet
460 544 m 0,0,1
 530 544 530 544 551 596 c 128,-1,2
 572 648 572 648 572 780 c 0,3,4
 572 916 572 916 552 969 c 128,-1,5
 532 1022 532 1022 462 1022 c 0,6,7
 391 1022 391 1022 370 968.5 c 128,-1,8
 349 915 349 915 349 780 c 0,9,10
 349 732 349 732 351 698.5 c 128,-1,11
 353 665 353 665 360 634 c 128,-1,12
 367 603 367 603 379 584.5 c 128,-1,13
 391 566 391 566 411 555 c 128,-1,14
 431 544 431 544 460 544 c 0,0,1
514 -162 m 0,15,16
 600 -162 600 -162 639.5 -140 c 128,-1,17
 679 -118 679 -118 680 -69 c 1,18,19
 683 -16 683 -16 653 8.5 c 128,-1,20
 623 33 623 33 544 40 c 2,21,-1
 356 58 l 1,22,23
 295 -13 295 -13 295 -73 c 0,24,25
 295 -105 295 -105 310.5 -123 c 128,-1,26
 326 -141 326 -141 374.5 -151.5 c 128,-1,27
 423 -162 423 -162 514 -162 c 0,15,16
516 -359 m 0,28,29
 463 -359 463 -359 423.5 -358 c 128,-1,30
 384 -357 384 -357 332 -352.5 c 128,-1,31
 280 -348 280 -348 242.5 -339.5 c 128,-1,32
 205 -331 205 -331 165.5 -316 c 128,-1,33
 126 -301 126 -301 101.5 -280.5 c 128,-1,34
 77 -260 77 -260 61 -228.5 c 128,-1,35
 45 -197 45 -197 45 -158 c 0,36,37
 45 -9 45 -9 212 93 c 1,38,39
 92 134 92 134 85 226 c 0,40,41
 80 290 80 290 112 336.5 c 128,-1,42
 144 383 144 383 221 446 c 1,43,44
 155 496 155 496 122 571 c 128,-1,45
 89 646 89 646 89 772 c 0,46,47
 89 990 89 990 183.5 1096 c 128,-1,48
 278 1202 278 1202 457 1202 c 0,49,50
 641 1202 641 1202 711 1086 c 1,51,52
 733 1113 733 1113 777.5 1150 c 128,-1,53
 822 1187 822 1187 871 1211 c 1,54,-1
 910 1229 l 1,55,-1
 976 1073 l 1,56,57
 941 1064 941 1064 870 1037 c 128,-1,58
 799 1010 799 1010 775 995 c 1,59,60
 794 960 794 960 808 896.5 c 128,-1,61
 822 833 822 833 822 769 c 0,62,63
 822 363 822 363 467 363 c 0,64,65
 438 363 438 363 387.5 371.5 c 128,-1,66
 337 380 337 380 322 386 c 1,67,68
 288 335 288 335 290 308 c 0,69,70
 293 268 293 268 394 258 c 0,71,72
 406 256 406 256 500 246.5 c 128,-1,73
 594 237 594 237 610 235 c 0,74,75
 759 219 759 219 828 148.5 c 128,-1,76
 897 78 897 78 897 -53 c 0,77,78
 897 -210 897 -210 809 -284.5 c 128,-1,79
 721 -359 721 -359 516 -359 c 0,28,29
EndSplineSet
EndChar

StartChar: gcommaaccent
Encoding: 291 291 303
Width: 901
GlyphClass: 2
Flags: W
LayerCount: 2
UndoRedoHistory
Layer: 1
Undoes
EndUndoes
Redoes
EndRedoes
EndUndoRedoHistory
Fore
SplineSet
487 530 m 0,0,1
 523 530 523 530 549.5 545 c 128,-1,2
 576 560 576 560 590.5 582.5 c 128,-1,3
 605 605 605 605 613.5 641.5 c 128,-1,4
 622 678 622 678 624.5 712 c 128,-1,5
 627 746 627 746 627 792 c 0,6,7
 627 849 627 849 622 890 c 128,-1,8
 617 931 617 931 603 969 c 128,-1,9
 589 1007 589 1007 559.5 1027 c 128,-1,10
 530 1047 530 1047 485 1047 c 0,11,12
 441 1047 441 1047 411.5 1024.5 c 128,-1,13
 382 1002 382 1002 369 961 c 128,-1,14
 356 920 356 920 351.5 881.5 c 128,-1,15
 347 843 347 843 347 792 c 0,16,17
 347 735 347 735 351.5 694.5 c 128,-1,18
 356 654 356 654 369.5 613.5 c 128,-1,19
 383 573 383 573 412.5 551.5 c 128,-1,20
 442 530 442 530 487 530 c 0,0,1
499 -212 m 0,21,22
 710 -212 710 -212 717 -106 c 1,23,24
 723 -46 723 -46 685.5 -16 c 128,-1,25
 648 14 648 14 540 35 c 1,26,-1
 390 60 l 1,27,28
 360 34 360 34 342 15.5 c 128,-1,29
 324 -3 324 -3 305 -36 c 128,-1,30
 286 -69 286 -69 286 -99 c 0,31,32
 286 -212 286 -212 499 -212 c 0,21,22
412 1487 m 1,33,-1
 412 1709 l 1,34,35
 413 1986 413 1986 637 2018 c 1,36,-1
 652 1939 l 1,37,38
 526 1881 526 1881 526 1755 c 1,39,-1
 673 1755 l 1,40,-1
 673 1487 l 1,41,-1
 412 1487 l 1,33,-1
499 -373 m 0,42,43
 433 -373 433 -373 372.5 -367.5 c 128,-1,44
 312 -362 312 -362 248.5 -346 c 128,-1,45
 185 -330 185 -330 139 -305 c 128,-1,46
 93 -280 93 -280 63.5 -237.5 c 128,-1,47
 34 -195 34 -195 34 -139 c 0,48,49
 34 -24 34 -24 223 103 c 1,50,51
 149 130 149 130 109 156.5 c 128,-1,52
 69 183 69 183 63 216 c 0,53,54
 45 320 45 320 214 471 c 1,55,56
 76 568 76 568 76 778 c 0,57,58
 76 974 76 974 182 1089.5 c 128,-1,59
 288 1205 288 1205 480 1205 c 0,60,61
 570 1205 570 1205 641.5 1172 c 128,-1,62
 713 1139 713 1139 756 1086 c 1,63,64
 829 1183 829 1183 917 1226 c 1,65,-1
 957 1245 l 1,66,-1
 1021 1115 l 1,67,68
 940 1090 940 1090 827 1003 c 1,69,70
 885 912 885 912 885 780 c 0,71,72
 885 592 885 592 788 482.5 c 128,-1,73
 691 373 691 373 502 373 c 0,74,75
 398 373 398 373 313 409 c 1,76,77
 239 309 239 309 243 275 c 1,78,79
 247 256 247 256 351 235 c 0,80,81
 393 226 393 226 607 190 c 1,82,83
 784 158 784 158 858 95 c 128,-1,84
 932 32 932 32 932 -83 c 0,85,86
 932 -216 932 -216 823.5 -294.5 c 128,-1,87
 715 -373 715 -373 499 -373 c 0,42,43
EndSplineSet
EndChar

StartChar: germandbls
Encoding: 223 223 305
Width: 1085
GlyphClass: 2
Flags: W
LayerCount: 2
UndoRedoHistory
Layer: 1
Undoes
EndUndoes
Redoes
EndRedoes
EndUndoRedoHistory
Fore
SplineSet
495 -23 m 1,0,-1
 495 199 l 1,1,2
 622 199 622 199 672 265.5 c 128,-1,3
 722 332 722 332 717 486 c 1,4,5
 715 600 715 600 658 668 c 128,-1,6
 601 736 601 736 502 736 c 1,7,-1
 501 959 l 1,8,9
 587 959 587 959 628 1035.5 c 128,-1,10
 669 1112 669 1112 669 1237 c 0,11,12
 669 1348 669 1348 635.5 1407 c 128,-1,13
 602 1466 602 1466 523 1466 c 0,14,15
 445 1466 445 1466 415.5 1408.5 c 128,-1,16
 386 1351 386 1351 387 1244 c 1,17,-1
 387 0 l 1,18,-1
 107 0 l 1,19,-1
 107 1241 l 2,20,21
 107 1333 107 1333 130 1410 c 128,-1,22
 153 1487 153 1487 198.5 1548 c 128,-1,23
 244 1609 244 1609 319 1643.5 c 128,-1,24
 394 1678 394 1678 493 1678 c 0,25,26
 710 1678 710 1678 817 1565 c 128,-1,27
 924 1452 924 1452 924 1239 c 0,28,29
 924 1105 924 1105 871 1016 c 128,-1,30
 818 927 818 927 705 873 c 1,31,32
 841 835 841 835 918.5 727.5 c 128,-1,33
 996 620 996 620 996 469 c 0,34,35
 996 218 996 218 870.5 97.5 c 128,-1,36
 745 -23 745 -23 495 -23 c 1,0,-1
EndSplineSet
EndChar

StartChar: grave
Encoding: 96 96 306
Width: 610
GlyphClass: 2
Flags: W
LayerCount: 2
UndoRedoHistory
Layer: 1
Undoes
EndUndoes
Redoes
EndRedoes
EndUndoRedoHistory
Fore
SplineSet
350 1249 m 1,0,-1
 103 1658 l 1,1,-1
 387 1658 l 1,2,-1
 508 1249 l 1,3,-1
 350 1249 l 1,0,-1
EndSplineSet
EndChar

StartChar: gravecomb
Encoding: 768 768 307
Width: 208
GlyphClass: 2
Flags: W
LayerCount: 2
UndoRedoHistory
Layer: 1
Undoes
EndUndoes
Redoes
EndRedoes
EndUndoRedoHistory
Fore
SplineSet
202 1249 m 1,0,-1
 -45 1658 l 1,1,-1
 239 1658 l 1,2,-1
 360 1249 l 1,3,-1
 202 1249 l 1,0,-1
EndSplineSet
EndChar

StartChar: greater
Encoding: 62 62 308
Width: 789
GlyphClass: 2
Flags: W
LayerCount: 2
UndoRedoHistory
Layer: 1
Undoes
EndUndoes
Redoes
EndRedoes
EndUndoRedoHistory
Fore
SplineSet
115 121 m 1,0,-1
 115 382 l 1,1,-1
 521 673 l 1,2,-1
 115 961 l 1,3,-1
 115 1223 l 1,4,-1
 727 795 l 1,5,-1
 727 547 l 1,6,-1
 115 121 l 1,0,-1
EndSplineSet
EndChar

StartChar: greaterequal
Encoding: 8805 8805 309
Width: 830
GlyphClass: 2
Flags: W
LayerCount: 2
UndoRedoHistory
Layer: 1
Undoes
EndUndoes
Redoes
EndRedoes
EndUndoRedoHistory
Fore
SplineSet
108 6 m 1,0,-1
 108 178 l 1,1,-1
 757 178 l 1,2,-1
 757 6 l 1,3,-1
 108 6 l 1,0,-1
115 273 m 1,4,-1
 115 534 l 1,5,-1
 521 825 l 1,6,-1
 115 1113 l 1,7,-1
 115 1375 l 1,8,-1
 727 947 l 1,9,-1
 727 699 l 1,10,-1
 115 273 l 1,4,-1
EndSplineSet
EndChar

StartChar: guillemotleft
Encoding: 171 171 310
Width: 970
GlyphClass: 2
Flags: W
LayerCount: 2
UndoRedoHistory
Layer: 1
Undoes
EndUndoes
Redoes
EndRedoes
EndUndoRedoHistory
Fore
SplineSet
858 64 m 1,0,-1
 493 541 l 1,1,-1
 493 658 l 1,2,-1
 858 1136 l 1,3,-1
 858 827 l 1,4,-1
 680 600 l 1,5,-1
 858 372 l 1,6,-1
 858 64 l 1,0,-1
429 64 m 1,7,-1
 66 541 l 1,8,-1
 66 658 l 1,9,-1
 429 1136 l 1,10,-1
 429 827 l 1,11,-1
 252 600 l 1,12,-1
 429 372 l 1,13,-1
 429 64 l 1,7,-1
EndSplineSet
EndChar

StartChar: guillemotright
Encoding: 187 187 311
Width: 1010
GlyphClass: 2
Flags: W
LayerCount: 2
UndoRedoHistory
Layer: 1
Undoes
EndUndoes
Redoes
EndRedoes
EndUndoRedoHistory
Fore
SplineSet
536 64 m 1,0,-1
 536 372 l 1,1,-1
 727 601 l 1,2,-1
 536 827 l 1,3,-1
 536 1136 l 1,4,-1
 912 658 l 1,5,-1
 912 541 l 1,6,-1
 536 64 l 1,0,-1
107 64 m 1,7,-1
 107 372 l 1,8,-1
 299 601 l 1,9,-1
 107 827 l 1,10,-1
 107 1136 l 1,11,-1
 485 658 l 1,12,-1
 485 541 l 1,13,-1
 107 64 l 1,7,-1
EndSplineSet
EndChar

StartChar: guilsinglleft
Encoding: 8249 8249 312
Width: 558
GlyphClass: 2
Flags: W
LayerCount: 2
UndoRedoHistory
Layer: 1
Undoes
EndUndoes
Redoes
EndRedoes
EndUndoRedoHistory
Fore
SplineSet
482 52 m 1,0,-1
 64 515 l 1,1,-1
 64 658 l 1,2,-1
 482 1123 l 1,3,-1
 482 814 l 1,4,-1
 254 588 l 1,5,-1
 482 359 l 1,6,-1
 482 52 l 1,0,-1
EndSplineSet
EndChar

StartChar: guilsinglright
Encoding: 8250 8250 313
Width: 577
GlyphClass: 2
Flags: W
LayerCount: 2
UndoRedoHistory
Layer: 1
Undoes
EndUndoes
Redoes
EndRedoes
EndUndoRedoHistory
Fore
SplineSet
100 133 m 1,0,-1
 100 440 l 1,1,-1
 332 669 l 1,2,-1
 100 895 l 1,3,-1
 100 1204 l 1,4,-1
 518 726 l 1,5,-1
 518 609 l 1,6,-1
 100 133 l 1,0,-1
EndSplineSet
EndChar

StartChar: h
Encoding: 104 104 314
Width: 980
GlyphClass: 2
Flags: W
LayerCount: 2
UndoRedoHistory
Layer: 1
Undoes
EndUndoes
Redoes
EndRedoes
EndUndoRedoHistory
Fore
SplineSet
112 0 m 1,0,-1
 112 1658 l 1,1,-1
 391 1658 l 1,2,-1
 391 1069 l 1,3,4
 531 1202 531 1202 686 1202 c 0,5,6
 728 1202 728 1202 761.5 1187.5 c 128,-1,7
 795 1173 795 1173 816.5 1148.5 c 128,-1,8
 838 1124 838 1124 852.5 1090.5 c 128,-1,9
 867 1057 867 1057 873 1021.5 c 128,-1,10
 879 986 879 986 879 946 c 2,11,-1
 879 0 l 1,12,-1
 600 0 l 1,13,-1
 600 884 l 2,14,15
 600 940 600 940 583.5 967 c 128,-1,16
 567 994 567 994 521 993 c 0,17,18
 466 992 466 992 391 935 c 1,19,-1
 391 0 l 1,20,-1
 112 0 l 1,0,-1
EndSplineSet
EndChar

StartChar: hbar
Encoding: 295 295 315
Width: 980
GlyphClass: 2
Flags: W
LayerCount: 2
UndoRedoHistory
Layer: 1
Undoes
EndUndoes
Redoes
EndRedoes
EndUndoRedoHistory
Fore
SplineSet
112 0 m 1,0,-1
 112 1395 l 1,1,-1
 -2 1395 l 1,2,-1
 -2 1536 l 1,3,-1
 112 1536 l 1,4,-1
 112 1658 l 1,5,-1
 392 1658 l 1,6,-1
 392 1536 l 1,7,-1
 638 1536 l 1,8,-1
 638 1395 l 1,9,-1
 392 1395 l 1,10,-1
 392 1069 l 1,11,12
 532 1202 532 1202 686 1202 c 0,13,14
 787 1202 787 1202 833.5 1128 c 128,-1,15
 880 1054 880 1054 880 946 c 2,16,-1
 880 0 l 1,17,-1
 601 0 l 1,18,-1
 601 884 l 2,19,20
 601 940 601 940 584.5 967 c 128,-1,21
 568 994 568 994 522 993 c 0,22,23
 467 992 467 992 392 935 c 1,24,-1
 392 0 l 1,25,-1
 112 0 l 1,0,-1
EndSplineSet
EndChar

StartChar: hungarumlaut
Encoding: 733 733 317
Width: 727
GlyphClass: 2
Flags: W
LayerCount: 2
UndoRedoHistory
Layer: 1
Undoes
EndUndoes
Redoes
EndRedoes
EndUndoRedoHistory
Fore
SplineSet
467 1264 m 1,0,-1
 592 1658 l 1,1,-1
 853 1658 l 1,2,-1
 611 1264 l 1,3,-1
 467 1264 l 1,0,-1
156 1264 m 1,4,-1
 254 1658 l 1,5,-1
 480 1658 l 1,6,-1
 297 1264 l 1,7,-1
 156 1264 l 1,4,-1
EndSplineSet
EndChar

StartChar: hyphen
Encoding: 45 45 318
Width: 723
GlyphClass: 2
Flags: W
LayerCount: 2
UndoRedoHistory
Layer: 1
Undoes
EndUndoes
Redoes
EndRedoes
EndUndoRedoHistory
Fore
SplineSet
115 556 m 1,0,-1
 115 750 l 1,1,-1
 609 750 l 1,2,-1
 609 556 l 1,3,-1
 115 556 l 1,0,-1
EndSplineSet
EndChar

StartChar: i
Encoding: 105 105 319
Width: 509
GlyphClass: 2
Flags: W
AnchorPoint: "Anchor-0" 266 0 basechar 0
LayerCount: 2
UndoRedoHistory
Layer: 1
Undoes
EndUndoes
Redoes
EndRedoes
EndUndoRedoHistory
Fore
SplineSet
116 1371 m 1,0,-1
 116 1607 l 1,1,-1
 397 1607 l 1,2,-1
 397 1371 l 1,3,-1
 116 1371 l 1,0,-1
116 0 m 1,4,-1
 116 1184 l 1,5,-1
 396 1184 l 1,6,-1
 396 0 l 1,7,-1
 116 0 l 1,4,-1
EndSplineSet
EndChar

StartChar: infinity
Encoding: 8734 8734 327
Width: 1318
GlyphClass: 2
Flags: W
LayerCount: 2
UndoRedoHistory
Layer: 1
Undoes
EndUndoes
Redoes
EndRedoes
EndUndoRedoHistory
Fore
SplineSet
975 446 m 1,0,1
 1014 446 1014 446 1043.5 474.5 c 128,-1,2
 1073 503 1073 503 1073 560 c 0,3,4
 1073 616 1073 616 1043.5 644.5 c 128,-1,5
 1014 673 1014 673 975 673 c 1,6,7
 901 675 901 675 792 560 c 1,8,9
 851 498 851 498 894 471.5 c 128,-1,10
 937 445 937 445 975 446 c 1,0,1
353 431 m 0,11,12
 439 436 439 436 555 560 c 1,13,14
 439 683 439 683 353 688 c 0,15,16
 306 691 306 691 273.5 656 c 128,-1,17
 241 621 241 621 241 560 c 0,18,19
 241 498 241 498 273.5 463.5 c 128,-1,20
 306 429 306 429 353 431 c 0,11,12
356 203 m 0,21,22
 256 203 256 203 185 253 c 128,-1,23
 114 303 114 303 81.5 382 c 128,-1,24
 49 461 49 461 49 560 c 0,25,26
 49 712 49 712 128.5 814 c 128,-1,27
 208 916 208 916 356 916 c 0,28,29
 452 916 452 916 527 869.5 c 128,-1,30
 602 823 602 823 671 744 c 1,31,32
 814 901 814 901 965 897 c 0,33,34
 1106 894 1106 894 1187.5 800.5 c 128,-1,35
 1269 707 1269 707 1269 560 c 128,-1,36
 1269 413 1269 413 1187.5 319 c 128,-1,37
 1106 225 1106 225 965 222 c 0,38,39
 814 218 814 218 671 375 c 1,40,41
 602 296 602 296 527 249.5 c 128,-1,42
 452 203 452 203 356 203 c 0,21,22
EndSplineSet
EndChar

StartChar: integral
Encoding: 8747 8747 328
Width: 690
GlyphClass: 2
Flags: W
LayerCount: 2
UndoRedoHistory
Layer: 1
Undoes
EndUndoes
Redoes
EndRedoes
EndUndoRedoHistory
Fore
SplineSet
181 -389 m 0,0,1
 116 -389 116 -389 30 -379 c 1,2,-1
 30 -171 l 1,3,4
 90 -180 90 -180 105 -180 c 0,5,6
 155 -180 155 -180 175 -148.5 c 128,-1,7
 195 -117 195 -117 195 -57 c 2,8,-1
 195 1329 l 2,9,10
 195 1400 195 1400 201 1449.5 c 128,-1,11
 207 1499 207 1499 225.5 1545.5 c 128,-1,12
 244 1592 244 1592 276 1619.5 c 128,-1,13
 308 1647 308 1647 361 1663.5 c 128,-1,14
 414 1680 414 1680 489 1680 c 0,15,16
 545 1680 545 1680 641 1669 c 1,17,-1
 641 1461 l 1,18,19
 568 1471 568 1471 566 1471 c 0,20,21
 516 1471 516 1471 495.5 1440 c 128,-1,22
 475 1409 475 1409 475 1348 c 2,23,-1
 475 -38 l 2,24,25
 475 -97 475 -97 471 -140.5 c 128,-1,26
 467 -184 467 -184 455.5 -226 c 128,-1,27
 444 -268 444 -268 423.5 -296 c 128,-1,28
 403 -324 403 -324 371 -346 c 128,-1,29
 339 -368 339 -368 291.5 -378.5 c 128,-1,30
 244 -389 244 -389 181 -389 c 0,0,1
EndSplineSet
EndChar

StartChar: j
Encoding: 106 106 331
Width: 518
GlyphClass: 2
Flags: W
LayerCount: 2
UndoRedoHistory
Layer: 1
Undoes
EndUndoes
Redoes
EndRedoes
EndUndoRedoHistory
Fore
SplineSet
134 1371 m 1,0,-1
 134 1607 l 1,1,-1
 416 1607 l 1,2,-1
 416 1371 l 1,3,-1
 134 1371 l 1,0,-1
-30 -307 m 1,4,-1
 -30 -107 l 1,5,6
 7 -114 7 -114 29 -114 c 0,7,8
 135 -114 135 -114 135 7 c 2,9,-1
 135 1184 l 1,10,-1
 414 1184 l 1,11,-1
 414 -25 l 2,12,13
 414 -165 414 -165 335.5 -246 c 128,-1,14
 257 -327 257 -327 115 -327 c 0,15,16
 29 -327 29 -327 -30 -307 c 1,4,-1
EndSplineSet
EndChar

StartChar: k
Encoding: 107 107 333
Width: 986
GlyphClass: 2
Flags: W
LayerCount: 2
UndoRedoHistory
Layer: 1
Undoes
EndUndoes
Redoes
EndRedoes
EndUndoRedoHistory
Fore
SplineSet
110 2 m 1,0,-1
 110 1660 l 1,1,-1
 388 1660 l 1,2,-1
 388 711 l 1,3,-1
 684 1183 l 1,4,-1
 987 1184 l 1,5,-1
 697 710 l 1,6,-1
 982 0 l 1,7,-1
 689 0 l 1,8,-1
 478 582 l 1,9,-1
 388 454 l 1,10,-1
 388 2 l 1,11,-1
 110 2 l 1,0,-1
EndSplineSet
EndChar

StartChar: kgreenlandic
Encoding: 312 312 335
Width: 954
GlyphClass: 2
Flags: W
LayerCount: 2
UndoRedoHistory
Layer: 1
Undoes
EndUndoes
Redoes
EndRedoes
EndUndoRedoHistory
Fore
SplineSet
111 0 m 1,0,-1
 111 1184 l 1,1,-1
 391 1184 l 1,2,-1
 391 686 l 1,3,-1
 656 1184 l 1,4,-1
 948 1184 l 1,5,-1
 693 701 l 1,6,-1
 950 0 l 1,7,-1
 662 0 l 1,8,-1
 476 560 l 1,9,-1
 391 432 l 1,10,-1
 391 0 l 1,11,-1
 111 0 l 1,0,-1
EndSplineSet
EndChar

StartChar: l
Encoding: 108 108 336
Width: 518
GlyphClass: 2
Flags: W
LayerCount: 2
UndoRedoHistory
Layer: 1
Undoes
EndUndoes
Redoes
EndRedoes
EndUndoRedoHistory
Fore
SplineSet
125 0 m 1,0,-1
 125 1658 l 1,1,-1
 405 1658 l 1,2,-1
 405 0 l 1,3,-1
 125 0 l 1,0,-1
EndSplineSet
EndChar

StartChar: less
Encoding: 60 60 341
Width: 789
GlyphClass: 2
Flags: W
LayerCount: 2
UndoRedoHistory
Layer: 1
Undoes
EndUndoes
Redoes
EndRedoes
EndUndoRedoHistory
Fore
SplineSet
672 121 m 1,0,-1
 62 547 l 1,1,-1
 62 795 l 1,2,-1
 672 1223 l 1,3,-1
 672 961 l 1,4,-1
 267 673 l 1,5,-1
 672 382 l 1,6,-1
 672 121 l 1,0,-1
EndSplineSet
EndChar

StartChar: lessequal
Encoding: 8804 8804 342
Width: 814
GlyphClass: 2
Flags: W
LayerCount: 2
UndoRedoHistory
Layer: 1
Undoes
EndUndoes
Redoes
EndRedoes
EndUndoRedoHistory
Fore
SplineSet
65 0 m 1,0,-1
 65 172 l 1,1,-1
 714 172 l 1,2,-1
 714 0 l 1,3,-1
 65 0 l 1,0,-1
698 265 m 1,4,-1
 89 691 l 1,5,-1
 89 939 l 1,6,-1
 698 1366 l 1,7,-1
 698 1105 l 1,8,-1
 293 816 l 1,9,-1
 698 525 l 1,10,-1
 698 265 l 1,4,-1
EndSplineSet
EndChar

StartChar: logicalnot
Encoding: 172 172 343
Width: 899
GlyphClass: 2
Flags: W
LayerCount: 2
UndoRedoHistory
Layer: 1
Undoes
EndUndoes
Redoes
EndRedoes
EndUndoRedoHistory
Fore
SplineSet
687 473 m 1,0,-1
 687 743 l 1,1,-1
 88 743 l 1,2,-1
 88 942 l 1,3,-1
 827 942 l 1,4,-1
 827 473 l 1,5,-1
 687 473 l 1,0,-1
EndSplineSet
EndChar

StartChar: lozenge
Encoding: 9674 9674 344
Width: 985
GlyphClass: 2
Flags: W
LayerCount: 2
UndoRedoHistory
Layer: 1
Undoes
EndUndoes
Redoes
EndRedoes
EndUndoRedoHistory
Fore
SplineSet
493 184 m 1,0,-1
 727 593 l 1,1,-1
 487 986 l 1,2,-1
 257 593 l 1,3,-1
 493 184 l 1,0,-1
438 0 m 1,4,-1
 72 593 l 1,5,-1
 429 1185 l 1,6,-1
 541 1185 l 1,7,-1
 913 593 l 1,8,-1
 550 0 l 1,9,-1
 438 0 l 1,4,-1
EndSplineSet
EndChar

StartChar: lslash
Encoding: 322 322 345
Width: 610
GlyphClass: 2
Flags: W
LayerCount: 2
UndoRedoHistory
Layer: 1
Undoes
EndUndoes
Redoes
EndRedoes
EndUndoRedoHistory
Fore
SplineSet
173 0 m 1,0,-1
 173 840 l 1,1,-1
 34 777 l 1,2,-1
 34 963 l 1,3,-1
 173 1025 l 1,4,-1
 173 1658 l 1,5,-1
 452 1658 l 1,6,-1
 452 1149 l 1,7,-1
 591 1211 l 1,8,-1
 591 1027 l 1,9,-1
 452 964 l 1,10,-1
 452 0 l 1,11,-1
 173 0 l 1,0,-1
EndSplineSet
EndChar

StartChar: m
Encoding: 109 109 346
Width: 1469
GlyphClass: 2
Flags: W
LayerCount: 2
UndoRedoHistory
Layer: 1
Undoes
EndUndoes
Redoes
EndRedoes
EndUndoRedoHistory
Fore
SplineSet
107 0 m 1,0,-1
 107 1184 l 1,1,-1
 373 1184 l 1,2,-1
 373 1080 l 1,3,4
 492 1205 492 1205 654 1205 c 0,5,6
 802 1205 802 1205 851 1060 c 1,7,8
 976 1205 976 1205 1150 1205 c 0,9,10
 1249 1205 1249 1205 1309 1133 c 128,-1,11
 1369 1061 1369 1061 1369 924 c 2,12,-1
 1369 0 l 1,13,-1
 1103 0 l 1,14,-1
 1103 900 l 2,15,16
 1103 965 1103 965 1081.5 992 c 128,-1,17
 1060 1019 1060 1019 1018 1018 c 0,18,19
 945 1016 945 1016 871 949 c 1,20,21
 871 945 871 945 871.5 937 c 128,-1,22
 872 929 872 929 872 924 c 2,23,-1
 872 0 l 1,24,-1
 607 0 l 1,25,-1
 607 900 l 2,26,27
 607 965 607 965 585.5 992 c 128,-1,28
 564 1019 564 1019 521 1018 c 0,29,30
 451 1016 451 1016 373 948 c 1,31,-1
 373 0 l 1,32,-1
 107 0 l 1,0,-1
EndSplineSet
EndChar

StartChar: macron
Encoding: 175 175 347
Width: 491
GlyphClass: 2
Flags: W
LayerCount: 2
UndoRedoHistory
Layer: 1
Undoes
EndUndoes
Redoes
EndRedoes
EndUndoRedoHistory
Fore
SplineSet
33 1510 m 1,0,-1
 33 1658 l 1,1,-1
 486 1658 l 1,2,-1
 486 1510 l 1,3,-1
 33 1510 l 1,0,-1
EndSplineSet
EndChar

StartChar: minus
Encoding: 8722 8722 348
Width: 880
GlyphClass: 2
Flags: W
LayerCount: 2
UndoRedoHistory
Layer: 1
Undoes
EndUndoes
Redoes
EndRedoes
EndUndoRedoHistory
Fore
SplineSet
116 726 m 1,0,-1
 116 899 l 1,1,-1
 764 899 l 1,2,-1
 764 726 l 1,3,-1
 116 726 l 1,0,-1
EndSplineSet
EndChar

StartChar: mu
Encoding: 181 181 349
Width: 956
GlyphClass: 2
Flags: W
LayerCount: 2
UndoRedoHistory
Layer: 1
Undoes
EndUndoes
Redoes
EndRedoes
EndUndoRedoHistory
Fore
SplineSet
97 -370 m 1,0,-1
 95 1184 l 1,1,-1
 375 1184 l 1,2,-1
 375 300 l 2,3,4
 375 244 375 244 391 217 c 128,-1,5
 407 190 407 190 453 191 c 1,6,7
 501 191 501 191 573 242 c 1,8,-1
 573 1184 l 1,9,-1
 852 1184 l 1,10,-1
 852 0 l 1,11,-1
 573 0 l 1,12,-1
 573 105 l 1,13,14
 489 28 489 28 403 1 c 0,15,16
 398 -1 398 -1 389 -3.5 c 128,-1,17
 380 -6 380 -6 376 -7 c 1,18,-1
 377 -370 l 1,19,-1
 97 -370 l 1,0,-1
EndSplineSet
EndChar

StartChar: multiply
Encoding: 215 215 350
Width: 885
GlyphClass: 2
Flags: W
LayerCount: 2
UndoRedoHistory
Layer: 1
Undoes
EndUndoes
Redoes
EndRedoes
EndUndoRedoHistory
Fore
SplineSet
241 496 m 1,0,-1
 107 629 l 1,1,-1
 309 832 l 1,2,-1
 107 1034 l 1,3,-1
 240 1168 l 1,4,-1
 443 966 l 1,5,-1
 645 1168 l 1,6,-1
 778 1035 l 1,7,-1
 575 832 l 1,8,-1
 778 629 l 1,9,-1
 646 496 l 1,10,-1
 443 698 l 1,11,-1
 241 496 l 1,0,-1
EndSplineSet
EndChar

StartChar: n
Encoding: 110 110 351
Width: 970
GlyphClass: 2
Flags: W
LayerCount: 2
UndoRedoHistory
Layer: 1
Undoes
EndUndoes
Redoes
EndRedoes
EndUndoRedoHistory
Fore
SplineSet
107 0 m 1,0,-1
 107 1184 l 1,1,-1
 387 1184 l 1,2,-1
 387 1068 l 1,3,4
 530 1202 530 1202 676 1202 c 0,5,6
 777 1202 777 1202 823.5 1128 c 128,-1,7
 870 1054 870 1054 870 946 c 2,8,-1
 870 0 l 1,9,-1
 590 0 l 1,10,-1
 590 884 l 2,11,12
 590 940 590 940 574 967 c 128,-1,13
 558 994 558 994 512 993 c 0,14,15
 460 992 460 992 387 939 c 1,16,-1
 387 0 l 1,17,-1
 107 0 l 1,0,-1
EndSplineSet
EndChar

StartChar: nine
Encoding: 57 57 356
Width: 1042
GlyphClass: 2
Flags: W
LayerCount: 2
UndoRedoHistory
Layer: 1
Undoes
EndUndoes
Redoes
EndRedoes
EndUndoRedoHistory
Fore
SplineSet
520 852 m 0,0,1
 613 852 613 852 664 948 c 1,2,-1
 664 1198 l 2,3,4
 664 1457 664 1457 518 1457 c 0,5,6
 475 1457 475 1457 445.5 1435 c 128,-1,7
 416 1413 416 1413 400.5 1371.5 c 128,-1,8
 385 1330 385 1330 379 1281.5 c 128,-1,9
 373 1233 373 1233 373 1168 c 0,10,11
 373 1131 373 1131 373 1112.5 c 128,-1,12
 373 1094 373 1094 374.5 1061 c 128,-1,13
 376 1028 376 1028 378.5 1011 c 128,-1,14
 381 994 381 994 386 968 c 128,-1,15
 391 942 391 942 398 928 c 128,-1,16
 405 914 405 914 416.5 897 c 128,-1,17
 428 880 428 880 442.5 872 c 128,-1,18
 457 864 457 864 476.5 858 c 128,-1,19
 496 852 496 852 520 852 c 0,0,1
517 -20 m 0,20,21
 105 -20 105 -20 99 401 c 1,22,-1
 99 421 l 1,23,-1
 374 421 l 1,24,25
 374 308 374 308 403.5 255.5 c 128,-1,26
 433 203 433 203 519 203 c 0,27,28
 599 203 599 203 631.5 282.5 c 128,-1,29
 664 362 664 362 664 548 c 2,30,-1
 664 744 l 1,31,32
 602 639 602 639 443 637 c 0,33,34
 364 636 364 636 302 660.5 c 128,-1,35
 240 685 240 685 200 727.5 c 128,-1,36
 160 770 160 770 134 832.5 c 128,-1,37
 108 895 108 895 97 965.5 c 128,-1,38
 86 1036 86 1036 86 1120 c 0,39,40
 86 1244 86 1244 110 1343 c 128,-1,41
 134 1442 134 1442 184 1518 c 128,-1,42
 234 1594 234 1594 318.5 1635.5 c 128,-1,43
 403 1677 403 1677 518 1677 c 0,44,45
 630 1677 630 1677 714.5 1636 c 128,-1,46
 799 1595 799 1595 850 1521 c 128,-1,47
 901 1447 901 1447 926 1351 c 128,-1,48
 951 1255 951 1255 951 1137 c 2,49,-1
 951 570 l 2,50,51
 951 467 951 467 939 383 c 128,-1,52
 927 299 927 299 896.5 222.5 c 128,-1,53
 866 146 866 146 818 93.5 c 128,-1,54
 770 41 770 41 693.5 10.5 c 128,-1,55
 617 -20 617 -20 517 -20 c 0,20,21
EndSplineSet
EndChar

StartChar: notequal
Encoding: 8800 8800 357
Width: 887
GlyphClass: 2
Flags: W
LayerCount: 2
UndoRedoHistory
Layer: 1
Undoes
EndUndoes
Redoes
EndRedoes
EndUndoRedoHistory
Fore
SplineSet
116 0 m 1,0,-1
 268 542 l 1,1,-1
 127 542 l 1,2,-1
 127 731 l 1,3,-1
 322 731 l 1,4,-1
 375 918 l 1,5,-1
 127 918 l 1,6,-1
 127 1108 l 1,7,-1
 429 1108 l 1,8,-1
 585 1658 l 1,9,-1
 780 1658 l 1,10,-1
 624 1108 l 1,11,-1
 768 1108 l 1,12,-1
 768 918 l 1,13,-1
 570 918 l 1,14,-1
 517 731 l 1,15,-1
 768 731 l 1,16,-1
 768 542 l 1,17,-1
 463 542 l 1,18,-1
 310 0 l 1,19,-1
 116 0 l 1,0,-1
EndSplineSet
EndChar

StartChar: numbersign
Encoding: 35 35 359
Width: 1044
GlyphClass: 2
Flags: W
LayerCount: 2
UndoRedoHistory
Layer: 1
Undoes
EndUndoes
Redoes
EndRedoes
EndUndoRedoHistory
Fore
SplineSet
425 765 m 1,0,-1
 596 765 l 1,1,-1
 622 967 l 1,2,-1
 452 967 l 1,3,-1
 425 765 l 1,0,-1
96 0 m 1,4,-1
 170 574 l 1,5,-1
 75 574 l 1,6,-1
 77 765 l 1,7,-1
 198 765 l 1,8,-1
 223 967 l 1,9,-1
 78 967 l 1,10,-1
 80 1161 l 1,11,-1
 254 1161 l 1,12,-1
 319 1658 l 1,13,-1
 549 1658 l 1,14,-1
 483 1161 l 1,15,-1
 652 1161 l 1,16,-1
 718 1658 l 1,17,-1
 946 1658 l 1,18,-1
 880 1161 l 1,19,-1
 970 1161 l 1,20,-1
 968 967 l 1,21,-1
 851 967 l 1,22,-1
 824 765 l 1,23,-1
 967 765 l 1,24,-1
 965 574 l 1,25,-1
 797 574 l 1,26,-1
 722 0 l 1,27,-1
 493 0 l 1,28,-1
 568 574 l 1,29,-1
 399 574 l 1,30,-1
 323 0 l 1,31,-1
 96 0 l 1,4,-1
EndSplineSet
EndChar

StartChar: o
Encoding: 111 111 360
Width: 929
GlyphClass: 2
Flags: W
AnchorPoint: "Anchor-0" 521 0 basechar 0
LayerCount: 2
UndoRedoHistory
Layer: 1
Undoes
EndUndoes
Redoes
EndRedoes
EndUndoRedoHistory
Fore
SplineSet
463 -19 m 0,0,1
 272 -19 272 -19 178.5 88.5 c 128,-1,2
 85 196 85 196 85 396 c 2,3,-1
 85 787 l 2,4,5
 85 987 85 987 178.5 1094.5 c 128,-1,6
 272 1202 272 1202 463 1202 c 0,7,8
 655 1202 655 1202 749.5 1094.5 c 128,-1,9
 844 987 844 987 844 787 c 2,10,-1
 844 396 l 2,11,12
 844 196 844 196 749.5 88.5 c 128,-1,13
 655 -19 655 -19 463 -19 c 0,0,1
464 178 m 0,14,15
 498 178 498 178 519.5 193 c 128,-1,16
 541 208 541 208 550.5 239.5 c 128,-1,17
 560 271 560 271 563 300.5 c 128,-1,18
 566 330 566 330 566 377 c 2,19,-1
 566 806 l 2,20,21
 566 843 566 843 564.5 867.5 c 128,-1,22
 563 892 563 892 557.5 921 c 128,-1,23
 552 950 552 950 541 966.5 c 128,-1,24
 530 983 530 983 511 994.5 c 128,-1,25
 492 1006 492 1006 464 1006 c 0,26,27
 430 1006 430 1006 408.5 990.5 c 128,-1,28
 387 975 387 975 377.5 943.5 c 128,-1,29
 368 912 368 912 365 882.5 c 128,-1,30
 362 853 362 853 362 806 c 2,31,-1
 362 377 l 2,32,33
 362 340 362 340 363.5 315.5 c 128,-1,34
 365 291 365 291 370.5 262.5 c 128,-1,35
 376 234 376 234 387 217.5 c 128,-1,36
 398 201 398 201 417 189.5 c 128,-1,37
 436 178 436 178 464 178 c 0,14,15
EndSplineSet
EndChar

StartChar: oe
Encoding: 339 339 365
Width: 1432
GlyphClass: 2
Flags: W
LayerCount: 2
UndoRedoHistory
Layer: 1
Undoes
EndUndoes
Redoes
EndRedoes
EndUndoRedoHistory
Fore
SplineSet
870 727 m 1,0,-1
 1064 727 l 1,1,-1
 1064 811 l 2,2,3
 1064 1015 1064 1015 967 1015 c 128,-1,4
 870 1015 870 1015 870 811 c 2,5,-1
 870 727 l 1,0,-1
480 181 m 0,6,7
 523 181 523 181 546.5 208.5 c 128,-1,8
 570 236 570 236 576.5 276.5 c 128,-1,9
 583 317 583 317 583 385 c 2,10,-1
 583 821 l 2,11,12
 583 866 583 866 579.5 897 c 128,-1,13
 576 928 576 928 566 957 c 128,-1,14
 556 986 556 986 535 1000.5 c 128,-1,15
 514 1015 514 1015 482 1015 c 128,-1,16
 450 1015 450 1015 429 1000.5 c 128,-1,17
 408 986 408 986 398 957 c 128,-1,18
 388 928 388 928 384.5 897 c 128,-1,19
 381 866 381 866 381 821 c 2,20,-1
 381 385 l 2,21,22
 381 347 381 347 382.5 321.5 c 128,-1,23
 384 296 384 296 389.5 267 c 128,-1,24
 395 238 395 238 405.5 221 c 128,-1,25
 416 204 416 204 435 192.5 c 128,-1,26
 454 181 454 181 480 181 c 0,6,7
456 -21 m 0,27,28
 281 -21 281 -21 192 84.5 c 128,-1,29
 103 190 103 190 103 388 c 2,30,-1
 103 814 l 2,31,32
 103 1008 103 1008 193 1111 c 128,-1,33
 283 1214 283 1214 466 1214 c 0,34,35
 553 1214 553 1214 623 1176 c 128,-1,36
 693 1138 693 1138 723 1073 c 1,37,38
 752 1138 752 1138 824 1176 c 128,-1,39
 896 1214 896 1214 982 1214 c 0,40,41
 1065 1214 1065 1214 1126.5 1192.5 c 128,-1,42
 1188 1171 1188 1171 1227 1132.5 c 128,-1,43
 1266 1094 1266 1094 1290 1034 c 128,-1,44
 1314 974 1314 974 1323.5 905 c 128,-1,45
 1333 836 1333 836 1333 745 c 2,46,-1
 1333 582 l 1,47,-1
 870 582 l 1,48,-1
 870 459 l 2,49,50
 870 316 870 316 884 264 c 0,51,52
 906 185 906 185 966 181 c 0,53,54
 1020 177 1020 177 1041.5 211 c 128,-1,55
 1063 245 1063 245 1063 324 c 2,56,-1
 1063 436 l 1,57,-1
 1334 436 l 1,58,-1
 1334 325 l 2,59,60
 1334 150 1334 150 1245 62.5 c 128,-1,61
 1156 -25 1156 -25 979 -21 c 0,62,63
 883 -19 883 -19 817 18 c 128,-1,64
 751 55 751 55 720 119 c 1,65,66
 647 -21 647 -21 456 -21 c 0,27,28
EndSplineSet
EndChar

StartChar: ogonek
Encoding: 731 731 366
Width: 516
GlyphClass: 4
Flags: W
AnchorPoint: "Anchor-0" 271 0 mark 0
LayerCount: 2
UndoRedoHistory
Layer: 1
Undoes
EndUndoes
Redoes
EndRedoes
EndUndoRedoHistory
Fore
SplineSet
368 -492 m 1,0,1
 310 -493 310 -493 272 -491.5 c 128,-1,2
 234 -490 234 -490 184.5 -485 c 128,-1,3
 135 -480 135 -480 104 -467 c 128,-1,4
 73 -454 73 -454 43.5 -433 c 128,-1,5
 14 -412 14 -412 0 -377.5 c 128,-1,6
 -14 -343 -14 -343 -14 -296 c 0,7,8
 -14 -205 -14 -205 48 -116 c 128,-1,9
 110 -27 110 -27 189 12 c 1,10,-1
 323 12 l 1,11,12
 316 -1 316 -1 273 -66 c 128,-1,13
 230 -131 230 -131 209 -179.5 c 128,-1,14
 188 -228 188 -228 188 -273 c 0,15,16
 188 -298 188 -298 200 -315 c 128,-1,17
 212 -332 212 -332 227.5 -340 c 128,-1,18
 243 -348 243 -348 271 -352 c 128,-1,19
 299 -356 299 -356 317 -356 c 128,-1,20
 335 -356 335 -356 366 -355 c 128,-1,21
 397 -354 397 -354 406 -354 c 1,22,-1
 368 -492 l 1,0,1
EndSplineSet
EndChar

StartChar: one
Encoding: 49 49 370
Width: 1025
GlyphClass: 2
Flags: W
LayerCount: 2
UndoRedoHistory
Layer: 1
Undoes
EndUndoes
Redoes
EndRedoes
EndUndoRedoHistory
Fore
SplineSet
444 0 m 1,0,-1
 444 1337 l 1,1,-1
 177 1266 l 1,2,-1
 177 1478 l 1,3,4
 432 1563 432 1563 511 1658 c 1,5,-1
 728 1658 l 1,6,-1
 728 0 l 1,7,-1
 444 0 l 1,0,-1
EndSplineSet
EndChar

StartChar: onehalf
Encoding: 189 189 371
Width: 1551
GlyphClass: 2
Flags: W
LayerCount: 2
UndoRedoHistory
Layer: 1
Undoes
EndUndoes
Redoes
EndRedoes
EndUndoRedoHistory
Fore
SplineSet
308 0 m 1,0,-1
 944 1658 l 1,1,-1
 1128 1658 l 1,2,-1
 491 0 l 1,3,-1
 308 0 l 1,0,-1
210 829 m 1,4,-1
 210 1376 l 1,5,-1
 90 1351 l 1,6,-1
 90 1485 l 1,7,8
 237 1561 237 1561 315 1658 c 1,9,-1
 396 1658 l 1,10,-1
 396 829 l 1,11,-1
 210 829 l 1,4,-1
953 2 m 1,12,-1
 953 133 l 1,13,-1
 1137 386 l 2,14,15
 1140 390 1140 390 1166 425 c 128,-1,16
 1192 460 1192 460 1199.5 472 c 128,-1,17
 1207 484 1207 484 1223 513 c 128,-1,18
 1239 542 1239 542 1244.5 565.5 c 128,-1,19
 1250 589 1250 589 1250 615 c 0,20,21
 1250 663 1250 663 1237.5 690.5 c 128,-1,22
 1225 718 1225 718 1187 718 c 0,23,24
 1113 718 1113 718 1125 584 c 1,25,-1
 947 584 l 1,26,27
 945 608 945 608 945 623 c 0,28,29
 948 729 948 729 1010.5 790 c 128,-1,30
 1073 851 1073 851 1185 851 c 0,31,32
 1300 851 1300 851 1364 789.5 c 128,-1,33
 1428 728 1428 728 1428 617 c 0,34,35
 1428 535 1428 535 1387.5 461.5 c 128,-1,36
 1347 388 1347 388 1267 288 c 1,37,38
 1209 224 1209 224 1143 133 c 1,39,-1
 1421 133 l 1,40,-1
 1421 2 l 1,41,-1
 953 2 l 1,12,-1
EndSplineSet
EndChar

StartChar: onequarter
Encoding: 188 188 372
Width: 1551
GlyphClass: 2
Flags: W
LayerCount: 2
UndoRedoHistory
Layer: 1
Undoes
EndUndoes
Redoes
EndRedoes
EndUndoRedoHistory
Fore
SplineSet
1002 368 m 1,0,-1
 1155 368 l 1,1,-1
 1155 644 l 1,2,-1
 1002 368 l 1,0,-1
323 0 m 1,3,-1
 959 1658 l 1,4,-1
 1143 1658 l 1,5,-1
 506 0 l 1,6,-1
 323 0 l 1,3,-1
233 829 m 1,7,-1
 233 1376 l 1,8,-1
 113 1351 l 1,9,-1
 113 1485 l 1,10,11
 262 1563 262 1563 338 1658 c 1,12,-1
 419 1658 l 1,13,-1
 419 829 l 1,14,-1
 233 829 l 1,7,-1
1155 1 m 1,15,-1
 1155 234 l 1,16,-1
 870 234 l 1,17,-1
 870 364 l 1,18,-1
 1173 876 l 1,19,-1
 1329 876 l 1,20,-1
 1329 368 l 1,21,-1
 1442 368 l 1,22,-1
 1442 234 l 1,23,-1
 1329 234 l 1,24,-1
 1329 1 l 1,25,-1
 1155 1 l 1,15,-1
EndSplineSet
EndChar

StartChar: uni00B9
Encoding: 185 185 373
Width: 878
GlyphClass: 2
Flags: W
LayerCount: 2
UndoRedoHistory
Layer: 1
Undoes
EndUndoes
Redoes
EndRedoes
EndUndoRedoHistory
Fore
SplineSet
392 616 m 1,0,-1
 391 1570 l 1,1,-1
 181 1528 l 1,2,-1
 181 1682 l 1,3,4
 384 1741 384 1741 440 1812 c 1,5,-1
 597 1812 l 1,6,-1
 598 616 l 1,7,-1
 392 616 l 1,0,-1
EndSplineSet
EndChar

StartChar: ordfeminine
Encoding: 170 170 374
Width: 953
GlyphClass: 2
Flags: W
LayerCount: 2
UndoRedoHistory
Layer: 1
Undoes
EndUndoes
Redoes
EndRedoes
EndUndoRedoHistory
Fore
SplineSet
463 834 m 0,0,1
 494 834 494 834 522 855 c 128,-1,2
 550 876 550 876 567 907 c 1,3,-1
 567 1147 l 1,4,5
 384 1051 384 1051 384 934 c 0,6,7
 384 888 384 888 405.5 861 c 128,-1,8
 427 834 427 834 463 834 c 0,0,1
370 644 m 0,9,10
 267 645 267 645 203.5 713.5 c 128,-1,11
 140 782 140 782 140 881 c 0,12,13
 140 918 140 918 148 951 c 128,-1,14
 156 984 156 984 168 1010 c 128,-1,15
 180 1036 180 1036 201 1060.5 c 128,-1,16
 222 1085 222 1085 241 1102.5 c 128,-1,17
 260 1120 260 1120 290 1137.5 c 128,-1,18
 320 1155 320 1155 342.5 1166.5 c 128,-1,19
 365 1178 365 1178 400 1191.5 c 128,-1,20
 435 1205 435 1205 456.5 1212 c 128,-1,21
 478 1219 478 1219 514 1231 c 128,-1,22
 550 1243 550 1243 567 1249 c 1,23,-1
 567 1360 l 2,24,25
 567 1491 567 1491 495 1491 c 0,26,27
 448 1491 448 1491 430 1449.5 c 128,-1,28
 412 1408 412 1408 409 1325 c 1,29,-1
 173 1328 l 1,30,31
 175 1496 175 1496 263 1589.5 c 128,-1,32
 351 1683 351 1683 508 1683 c 0,33,34
 674 1683 674 1683 744.5 1588 c 128,-1,35
 815 1493 815 1493 815 1312 c 2,36,-1
 815 659 l 1,37,-1
 592 659 l 1,38,-1
 584 793 l 1,39,40
 554 727 554 727 498.5 685.5 c 128,-1,41
 443 644 443 644 370 644 c 0,9,10
EndSplineSet
EndChar

StartChar: ordmasculine
Encoding: 186 186 375
Width: 953
GlyphClass: 2
Flags: W
LayerCount: 2
UndoRedoHistory
Layer: 1
Undoes
EndUndoes
Redoes
EndRedoes
EndUndoRedoHistory
Fore
SplineSet
474 830 m 0,0,1
 501 830 501 830 520.5 840.5 c 128,-1,2
 540 851 540 851 550.5 866.5 c 128,-1,3
 561 882 561 882 567 909.5 c 128,-1,4
 573 937 573 937 574.5 961.5 c 128,-1,5
 576 986 576 986 576 1023 c 2,6,-1
 576 1303 l 2,7,8
 576 1341 576 1341 574.5 1365.5 c 128,-1,9
 573 1390 573 1390 567.5 1417 c 128,-1,10
 562 1444 562 1444 551 1459.5 c 128,-1,11
 540 1475 540 1475 521 1485.5 c 128,-1,12
 502 1496 502 1496 474 1496 c 0,13,14
 440 1496 440 1496 418.5 1481.5 c 128,-1,15
 397 1467 397 1467 386.5 1438 c 128,-1,16
 376 1409 376 1409 372.5 1378.5 c 128,-1,17
 369 1348 369 1348 369 1303 c 2,18,-1
 369 1023 l 2,19,20
 369 978 369 978 372.5 947.5 c 128,-1,21
 376 917 376 917 386.5 888 c 128,-1,22
 397 859 397 859 418.5 844.5 c 128,-1,23
 440 830 440 830 474 830 c 0,0,1
476 642 m 0,24,25
 307 642 307 642 223 736 c 128,-1,26
 139 830 139 830 139 1006 c 2,27,-1
 139 1321 l 2,28,29
 139 1497 139 1497 223 1590.5 c 128,-1,30
 307 1684 307 1684 476 1684 c 0,31,32
 640 1684 640 1684 727 1587.5 c 128,-1,33
 814 1491 814 1491 814 1321 c 2,34,-1
 814 1006 l 2,35,36
 814 836 814 836 727 739 c 128,-1,37
 640 642 640 642 476 642 c 0,24,25
EndSplineSet
EndChar

StartChar: oslash
Encoding: 248 248 376
Width: 924
GlyphClass: 2
Flags: W
LayerCount: 2
UndoRedoHistory
Layer: 1
Undoes
EndUndoes
Redoes
EndRedoes
EndUndoRedoHistory
Fore
SplineSet
362 440 m 1,0,-1
 550 946 l 1,1,2
 528 1006 528 1006 464 1006 c 0,3,4
 430 1006 430 1006 408.5 990.5 c 128,-1,5
 387 975 387 975 377.5 943.5 c 128,-1,6
 368 912 368 912 365 882.5 c 128,-1,7
 362 853 362 853 362 806 c 2,8,-1
 362 440 l 1,0,-1
464 178 m 0,9,10
 498 178 498 178 519.5 193 c 128,-1,11
 541 208 541 208 550.5 239.5 c 128,-1,12
 560 271 560 271 563 300.5 c 128,-1,13
 566 330 566 330 566 377 c 2,14,-1
 566 753 l 1,15,-1
 375 247 l 1,16,17
 396 178 396 178 464 178 c 0,9,10
207 -196 m 1,18,-1
 135 -169 l 1,19,-1
 217 52 l 1,20,21
 85 154 85 154 85 396 c 2,22,-1
 85 787 l 2,23,24
 85 987 85 987 178.5 1094.5 c 128,-1,25
 272 1202 272 1202 463 1202 c 0,26,27
 496 1202 496 1202 526 1198.5 c 128,-1,28
 556 1195 556 1195 583.5 1188.5 c 128,-1,29
 611 1182 611 1182 635 1173 c 1,30,-1
 712 1380 l 1,31,-1
 792 1351 l 1,32,-1
 709 1131 l 1,33,34
 844 1029 844 1029 844 787 c 2,35,-1
 844 396 l 2,36,37
 844 196 844 196 749.5 88.5 c 128,-1,38
 655 -19 655 -19 463 -19 c 0,39,40
 412 -19 412 -19 367.5 -11 c 128,-1,41
 323 -3 323 -3 286 13 c 1,42,-1
 207 -196 l 1,18,-1
EndSplineSet
EndChar

StartChar: p
Encoding: 112 112 378
Width: 976
GlyphClass: 2
Flags: W
LayerCount: 2
UndoRedoHistory
Layer: 1
Undoes
EndUndoes
Redoes
EndRedoes
EndUndoRedoHistory
Fore
SplineSet
510 182 m 0,0,1
 541 182 541 182 562 199.5 c 128,-1,2
 583 217 583 217 592.5 250.5 c 128,-1,3
 602 284 602 284 605.5 319.5 c 128,-1,4
 609 355 609 355 609 405 c 2,5,-1
 609 813 l 2,6,7
 609 854 609 854 604.5 886.5 c 128,-1,8
 600 919 600 919 589 948.5 c 128,-1,9
 578 978 578 978 556 993.5 c 128,-1,10
 534 1009 534 1009 503 1008 c 0,11,12
 448 1007 448 1007 387 961 c 1,13,-1
 387 219 l 1,14,15
 447 182 447 182 510 182 c 0,0,1
107 -390 m 1,16,-1
 107 1184 l 1,17,-1
 387 1184 l 1,18,-1
 387 1093 l 1,19,20
 497 1203 497 1203 626 1202 c 0,21,22
 689 1201 689 1201 737.5 1173 c 128,-1,23
 786 1145 786 1145 813.5 1103.5 c 128,-1,24
 841 1062 841 1062 858.5 1005.5 c 128,-1,25
 876 949 876 949 882 900.5 c 128,-1,26
 888 852 888 852 888 802 c 2,27,-1
 888 414 l 2,28,29
 888 324 888 324 873 248.5 c 128,-1,30
 858 173 858 173 826 111.5 c 128,-1,31
 794 50 794 50 738.5 15.5 c 128,-1,32
 683 -19 683 -19 608 -19 c 0,33,34
 498 -19 498 -19 387 88 c 1,35,-1
 387 -390 l 1,36,-1
 107 -390 l 1,16,-1
EndSplineSet
EndChar

StartChar: paragraph
Encoding: 182 182 379
Width: 1036
GlyphClass: 2
Flags: W
LayerCount: 2
UndoRedoHistory
Layer: 1
Undoes
EndUndoes
Redoes
EndRedoes
EndUndoRedoHistory
Fore
SplineSet
397 -196 m 1,0,-1
 397 1028 l 1,1,2
 249 1030 249 1030 159.5 1112 c 128,-1,3
 70 1194 70 1194 70 1341 c 0,4,5
 70 1506 70 1506 174 1582 c 128,-1,6
 278 1658 278 1658 456 1658 c 2,7,-1
 904 1658 l 1,8,-1
 904 -196 l 1,9,-1
 729 -196 l 1,10,-1
 729 1514 l 1,11,-1
 577 1514 l 1,12,-1
 577 -196 l 1,13,-1
 397 -196 l 1,0,-1
EndSplineSet
EndChar

StartChar: parenleft
Encoding: 40 40 380
Width: 652
GlyphClass: 2
Flags: W
LayerCount: 2
UndoRedoHistory
Layer: 1
Undoes
EndUndoes
Redoes
EndRedoes
EndUndoRedoHistory
Fore
SplineSet
587 -393 m 1,0,1
 498 -393 498 -393 428 -361.5 c 128,-1,2
 358 -330 358 -330 311 -280.5 c 128,-1,3
 264 -231 264 -231 231 -147 c 128,-1,4
 198 -63 198 -63 180 16 c 128,-1,5
 162 95 162 95 152.5 211.5 c 128,-1,6
 143 328 143 328 140.5 417.5 c 128,-1,7
 138 507 138 507 138 636 c 0,8,9
 138 770 138 770 140.5 861 c 128,-1,10
 143 952 143 952 152.5 1070 c 128,-1,11
 162 1188 162 1188 180 1267 c 128,-1,12
 198 1346 198 1346 231 1430 c 128,-1,13
 264 1514 264 1514 311 1563 c 128,-1,14
 358 1612 358 1612 428 1643.5 c 128,-1,15
 498 1675 498 1675 587 1675 c 1,16,-1
 587 1484 l 1,17,18
 555 1484 555 1484 529 1467 c 128,-1,19
 503 1450 503 1450 484 1414 c 128,-1,20
 465 1378 465 1378 451 1336 c 128,-1,21
 437 1294 437 1294 428 1229 c 128,-1,22
 419 1164 419 1164 413.5 1104 c 128,-1,23
 408 1044 408 1044 405.5 958.5 c 128,-1,24
 403 873 403 873 402 803.5 c 128,-1,25
 401 734 401 734 401 636 c 0,26,27
 401 539 401 539 402 467.5 c 128,-1,28
 403 396 403 396 406 312.5 c 128,-1,29
 409 229 409 229 414.5 169 c 128,-1,30
 420 109 420 109 429.5 46 c 128,-1,31
 439 -17 439 -17 453 -58.5 c 128,-1,32
 467 -100 467 -100 485.5 -134.5 c 128,-1,33
 504 -169 504 -169 529.5 -185.5 c 128,-1,34
 555 -202 555 -202 587 -202 c 1,35,-1
 587 -393 l 1,0,1
EndSplineSet
EndChar

StartChar: parenright
Encoding: 41 41 381
Width: 593
GlyphClass: 2
Flags: W
LayerCount: 2
UndoRedoHistory
Layer: 1
Undoes
EndUndoes
Redoes
EndRedoes
EndUndoRedoHistory
Fore
SplineSet
65 -393 m 1,0,-1
 65 -202 l 1,1,2
 90 -202 90 -202 111.5 -191 c 128,-1,3
 133 -180 133 -180 150 -157.5 c 128,-1,4
 167 -135 167 -135 180.5 -106.5 c 128,-1,5
 194 -78 194 -78 204 -36.5 c 128,-1,6
 214 5 214 5 222 47.5 c 128,-1,7
 230 90 230 90 235 147 c 128,-1,8
 240 204 240 204 243 256.5 c 128,-1,9
 246 309 246 309 248 377 c 128,-1,10
 250 445 250 445 250.5 504.5 c 128,-1,11
 251 564 251 564 251 639 c 0,12,13
 251 717 251 717 250.5 774 c 128,-1,14
 250 831 250 831 248.5 901.5 c 128,-1,15
 247 972 247 972 244 1023.5 c 128,-1,16
 241 1075 241 1075 236 1133 c 128,-1,17
 231 1191 231 1191 223.5 1233 c 128,-1,18
 216 1275 216 1275 206 1317.5 c 128,-1,19
 196 1360 196 1360 182.5 1388 c 128,-1,20
 169 1416 169 1416 152 1439 c 128,-1,21
 135 1462 135 1462 113 1473 c 128,-1,22
 91 1484 91 1484 65 1484 c 1,23,-1
 65 1675 l 1,24,25
 154 1675 154 1675 224 1643.5 c 128,-1,26
 294 1612 294 1612 341 1563.5 c 128,-1,27
 388 1515 388 1515 421 1431 c 128,-1,28
 454 1347 454 1347 472 1268.5 c 128,-1,29
 490 1190 490 1190 499.5 1072 c 128,-1,30
 509 954 509 954 511.5 863 c 128,-1,31
 514 772 514 772 514 639 c 0,32,33
 514 509 514 509 511.5 420 c 128,-1,34
 509 331 509 331 499.5 213.5 c 128,-1,35
 490 96 490 96 472 17 c 128,-1,36
 454 -62 454 -62 421 -146 c 128,-1,37
 388 -230 388 -230 341 -280 c 128,-1,38
 294 -330 294 -330 224 -361.5 c 128,-1,39
 154 -393 154 -393 65 -393 c 1,0,-1
EndSplineSet
EndChar

StartChar: partialdiff
Encoding: 8706 8706 382
Width: 1033
GlyphClass: 2
Flags: W
LayerCount: 2
UndoRedoHistory
Layer: 1
Undoes
EndUndoes
Redoes
EndRedoes
EndUndoRedoHistory
Fore
SplineSet
478 167 m 0,0,1
 513 167 513 167 537 174 c 128,-1,2
 561 181 561 181 586 202.5 c 128,-1,3
 611 224 611 224 627 270 c 128,-1,4
 643 316 643 316 651 388 c 2,5,-1
 704 874 l 1,6,7
 605 930 605 930 527 930 c 0,8,9
 459 930 459 930 419.5 887.5 c 128,-1,10
 380 845 380 845 373 770 c 2,11,-1
 333 342 l 2,12,13
 332 334 332 334 332 319 c 0,14,15
 332 250 332 250 369 208.5 c 128,-1,16
 406 167 406 167 478 167 c 0,0,1
468 -26 m 0,17,18
 408 -26 408 -26 352 -13.5 c 128,-1,19
 296 -1 296 -1 245 26.5 c 128,-1,20
 194 54 194 54 156.5 94.5 c 128,-1,21
 119 135 119 135 96.5 194 c 128,-1,22
 74 253 74 253 74 325 c 0,23,24
 74 355 74 355 75 371 c 2,25,-1
 113 790 l 1,26,27
 125 941 125 941 216.5 1031.5 c 128,-1,28
 308 1122 308 1122 449 1122 c 0,29,30
 534 1122 534 1122 607 1089 c 128,-1,31
 680 1056 680 1056 727 1014 c 1,32,33
 735 1072 735 1072 735 1114 c 0,34,35
 735 1292 735 1292 624 1383 c 128,-1,36
 513 1474 513 1474 305 1493 c 1,37,-1
 362 1678 l 1,38,39
 417 1678 417 1678 469 1672 c 128,-1,40
 521 1666 521 1666 583 1648.5 c 128,-1,41
 645 1631 645 1631 698 1603 c 128,-1,42
 751 1575 751 1575 802 1526.5 c 128,-1,43
 853 1478 853 1478 888.5 1415 c 128,-1,44
 924 1352 924 1352 946 1259.5 c 128,-1,45
 968 1167 968 1167 968 1055 c 1,46,-1
 924 515 l 2,47,48
 915 410 915 410 895.5 326.5 c 128,-1,49
 876 243 876 243 851.5 187 c 128,-1,50
 827 131 827 131 791.5 90.5 c 128,-1,51
 756 50 756 50 722 28 c 128,-1,52
 688 6 688 6 641.5 -6.5 c 128,-1,53
 595 -19 595 -19 557.5 -22.5 c 128,-1,54
 520 -26 520 -26 468 -26 c 0,17,18
EndSplineSet
EndChar

StartChar: percent
Encoding: 37 37 383
Width: 1980
GlyphClass: 2
Flags: W
LayerCount: 2
UndoRedoHistory
Layer: 1
Undoes
EndUndoes
Redoes
EndRedoes
EndUndoRedoHistory
Fore
SplineSet
658 0 m 1,0,-1
 1126 1658 l 1,1,-1
 1323 1658 l 1,2,-1
 855 0 l 1,3,-1
 658 0 l 1,0,-1
1537 -7 m 0,4,5
 1348 -7 1348 -7 1262 99 c 128,-1,6
 1176 205 1176 205 1176 413 c 2,7,-1
 1176 501 l 2,8,9
 1176 713 1176 713 1259.5 813.5 c 128,-1,10
 1343 914 1343 914 1537 914 c 128,-1,11
 1731 914 1731 914 1815.5 816.5 c 128,-1,12
 1900 719 1900 719 1900 510 c 2,13,-1
 1900 408 l 2,14,15
 1900 200 1900 200 1814 96.5 c 128,-1,16
 1728 -7 1728 -7 1537 -7 c 0,4,5
1537 188 m 0,17,18
 1569 188 1569 188 1591 200 c 128,-1,19
 1613 212 1613 212 1626 230.5 c 128,-1,20
 1639 249 1639 249 1646 280 c 128,-1,21
 1653 311 1653 311 1655 341 c 128,-1,22
 1657 371 1657 371 1657 414 c 2,23,-1
 1657 504 l 2,24,25
 1657 549 1657 549 1655 577.5 c 128,-1,26
 1653 606 1653 606 1646.5 635.5 c 128,-1,27
 1640 665 1640 665 1627.5 681 c 128,-1,28
 1615 697 1615 697 1592.5 707.5 c 128,-1,29
 1570 718 1570 718 1537 718 c 0,30,31
 1505 718 1505 718 1482.5 707.5 c 128,-1,32
 1460 697 1460 697 1447.5 680.5 c 128,-1,33
 1435 664 1435 664 1428.5 634 c 128,-1,34
 1422 604 1422 604 1420 576 c 128,-1,35
 1418 548 1418 548 1418 503 c 2,36,-1
 1418 413 l 2,37,38
 1418 359 1418 359 1422 322.5 c 128,-1,39
 1426 286 1426 286 1438 253 c 128,-1,40
 1450 220 1450 220 1474.5 204 c 128,-1,41
 1499 188 1499 188 1537 188 c 0,17,18
442 744 m 0,42,43
 253 744 253 744 167 850 c 128,-1,44
 81 956 81 956 81 1164 c 2,45,-1
 81 1252 l 2,46,47
 81 1464 81 1464 164.5 1564.5 c 128,-1,48
 248 1665 248 1665 442 1665 c 128,-1,49
 636 1665 636 1665 720.5 1567 c 128,-1,50
 805 1469 805 1469 805 1260 c 2,51,-1
 805 1159 l 2,52,53
 805 951 805 951 719 847.5 c 128,-1,54
 633 744 633 744 442 744 c 0,42,43
442 938 m 0,55,56
 473 938 473 938 495.5 950 c 128,-1,57
 518 962 518 962 530.5 980.5 c 128,-1,58
 543 999 543 999 550.5 1030 c 128,-1,59
 558 1061 558 1061 560 1091.5 c 128,-1,60
 562 1122 562 1122 562 1165 c 2,61,-1
 562 1255 l 2,62,63
 562 1300 562 1300 560 1328.5 c 128,-1,64
 558 1357 558 1357 551.5 1386 c 128,-1,65
 545 1415 545 1415 532 1431.5 c 128,-1,66
 519 1448 519 1448 496.5 1458 c 128,-1,67
 474 1468 474 1468 442 1468 c 128,-1,68
 410 1468 410 1468 387.5 1457.5 c 128,-1,69
 365 1447 365 1447 352.5 1431 c 128,-1,70
 340 1415 340 1415 333.5 1385 c 128,-1,71
 327 1355 327 1355 325 1327 c 128,-1,72
 323 1299 323 1299 323 1254 c 2,73,-1
 323 1163 l 2,74,75
 323 1109 323 1109 327 1073 c 128,-1,76
 331 1037 331 1037 343 1003.5 c 128,-1,77
 355 970 355 970 379.5 954 c 128,-1,78
 404 938 404 938 442 938 c 0,55,56
EndSplineSet
EndChar

StartChar: period
Encoding: 46 46 384
Width: 438
GlyphClass: 2
Flags: W
LayerCount: 2
UndoRedoHistory
Layer: 1
Undoes
EndUndoes
Redoes
EndRedoes
EndUndoRedoHistory
Fore
SplineSet
94 0 m 1,0,-1
 94 277 l 1,1,-1
 366 277 l 1,2,-1
 366 0 l 1,3,-1
 94 0 l 1,0,-1
EndSplineSet
EndChar

StartChar: periodcentered
Encoding: 183 183 385
Width: 400
GlyphClass: 2
Flags: W
LayerCount: 2
UndoRedoHistory
Layer: 1
Undoes
EndUndoes
Redoes
EndRedoes
EndUndoRedoHistory
Fore
SplineSet
65 636 m 1,0,-1
 65 905 l 1,1,-1
 336 905 l 1,2,-1
 336 636 l 1,3,-1
 65 636 l 1,0,-1
EndSplineSet
EndChar

StartChar: perthousand
Encoding: 8240 8240 386
Width: 2814
GlyphClass: 2
Flags: W
LayerCount: 2
UndoRedoHistory
Layer: 1
Undoes
EndUndoes
Redoes
EndRedoes
EndUndoRedoHistory
Fore
SplineSet
658 0 m 1,0,-1
 1126 1658 l 1,1,-1
 1323 1658 l 1,2,-1
 855 0 l 1,3,-1
 658 0 l 1,0,-1
2368 -7 m 0,4,5
 2179 -7 2179 -7 2093 99 c 128,-1,6
 2007 205 2007 205 2007 413 c 2,7,-1
 2007 501 l 2,8,9
 2007 713 2007 713 2090.5 813.5 c 128,-1,10
 2174 914 2174 914 2368 914 c 128,-1,11
 2562 914 2562 914 2646.5 816.5 c 128,-1,12
 2731 719 2731 719 2731 510 c 2,13,-1
 2731 408 l 2,14,15
 2731 200 2731 200 2645 96.5 c 128,-1,16
 2559 -7 2559 -7 2368 -7 c 0,4,5
2368 188 m 0,17,18
 2399 188 2399 188 2421.5 200 c 128,-1,19
 2444 212 2444 212 2456.5 230.5 c 128,-1,20
 2469 249 2469 249 2476.5 280 c 128,-1,21
 2484 311 2484 311 2486 341 c 128,-1,22
 2488 371 2488 371 2488 414 c 2,23,-1
 2488 504 l 2,24,25
 2488 549 2488 549 2486 577.5 c 128,-1,26
 2484 606 2484 606 2477.5 635.5 c 128,-1,27
 2471 665 2471 665 2458 681.5 c 128,-1,28
 2445 698 2445 698 2422.5 708 c 128,-1,29
 2400 718 2400 718 2368 718 c 128,-1,30
 2336 718 2336 718 2313.5 707.5 c 128,-1,31
 2291 697 2291 697 2278.5 680.5 c 128,-1,32
 2266 664 2266 664 2259.5 634 c 128,-1,33
 2253 604 2253 604 2251 576 c 128,-1,34
 2249 548 2249 548 2249 503 c 2,35,-1
 2249 413 l 2,36,37
 2249 359 2249 359 2253 322.5 c 128,-1,38
 2257 286 2257 286 2269 253 c 128,-1,39
 2281 220 2281 220 2305.5 204 c 128,-1,40
 2330 188 2330 188 2368 188 c 0,17,18
1537 -7 m 0,41,42
 1348 -7 1348 -7 1262 99 c 128,-1,43
 1176 205 1176 205 1176 413 c 2,44,-1
 1176 501 l 2,45,46
 1176 713 1176 713 1259.5 813.5 c 128,-1,47
 1343 914 1343 914 1537 914 c 128,-1,48
 1731 914 1731 914 1815.5 816.5 c 128,-1,49
 1900 719 1900 719 1900 510 c 2,50,-1
 1900 408 l 2,51,52
 1900 200 1900 200 1814 96.5 c 128,-1,53
 1728 -7 1728 -7 1537 -7 c 0,41,42
1537 188 m 0,54,55
 1569 188 1569 188 1591 200 c 128,-1,56
 1613 212 1613 212 1626 230.5 c 128,-1,57
 1639 249 1639 249 1646 280 c 128,-1,58
 1653 311 1653 311 1655 341 c 128,-1,59
 1657 371 1657 371 1657 414 c 2,60,-1
 1657 504 l 2,61,62
 1657 549 1657 549 1655 577.5 c 128,-1,63
 1653 606 1653 606 1646.5 635.5 c 128,-1,64
 1640 665 1640 665 1627.5 681 c 128,-1,65
 1615 697 1615 697 1592.5 707.5 c 128,-1,66
 1570 718 1570 718 1537 718 c 0,67,68
 1505 718 1505 718 1482.5 707.5 c 128,-1,69
 1460 697 1460 697 1447.5 680.5 c 128,-1,70
 1435 664 1435 664 1428.5 634 c 128,-1,71
 1422 604 1422 604 1420 576 c 128,-1,72
 1418 548 1418 548 1418 503 c 2,73,-1
 1418 413 l 2,74,75
 1418 359 1418 359 1422 322.5 c 128,-1,76
 1426 286 1426 286 1438 253 c 128,-1,77
 1450 220 1450 220 1474.5 204 c 128,-1,78
 1499 188 1499 188 1537 188 c 0,54,55
442 744 m 0,79,80
 253 744 253 744 167 850 c 128,-1,81
 81 956 81 956 81 1164 c 2,82,-1
 81 1252 l 2,83,84
 81 1464 81 1464 164.5 1564.5 c 128,-1,85
 248 1665 248 1665 442 1665 c 128,-1,86
 636 1665 636 1665 720.5 1567 c 128,-1,87
 805 1469 805 1469 805 1260 c 2,88,-1
 805 1159 l 2,89,90
 805 951 805 951 719 847.5 c 128,-1,91
 633 744 633 744 442 744 c 0,79,80
442 938 m 0,92,93
 473 938 473 938 495.5 950 c 128,-1,94
 518 962 518 962 530.5 980.5 c 128,-1,95
 543 999 543 999 550.5 1030 c 128,-1,96
 558 1061 558 1061 560 1091.5 c 128,-1,97
 562 1122 562 1122 562 1165 c 2,98,-1
 562 1255 l 2,99,100
 562 1300 562 1300 560 1328.5 c 128,-1,101
 558 1357 558 1357 551.5 1386 c 128,-1,102
 545 1415 545 1415 532 1431.5 c 128,-1,103
 519 1448 519 1448 496.5 1458 c 128,-1,104
 474 1468 474 1468 442 1468 c 128,-1,105
 410 1468 410 1468 387.5 1457.5 c 128,-1,106
 365 1447 365 1447 352.5 1431 c 128,-1,107
 340 1415 340 1415 333.5 1385 c 128,-1,108
 327 1355 327 1355 325 1327 c 128,-1,109
 323 1299 323 1299 323 1254 c 2,110,-1
 323 1163 l 2,111,112
 323 1109 323 1109 327 1073 c 128,-1,113
 331 1037 331 1037 343 1003.5 c 128,-1,114
 355 970 355 970 379.5 954 c 128,-1,115
 404 938 404 938 442 938 c 0,92,93
EndSplineSet
EndChar

StartChar: pi
Encoding: 960 960 387
Width: 1155
GlyphClass: 2
Flags: W
LayerCount: 2
UndoRedoHistory
Layer: 1
Undoes
EndUndoes
Redoes
EndRedoes
EndUndoRedoHistory
Fore
SplineSet
449 988 m 1,0,-1
 449 0 l 1,1,-1
 170 0 l 1,2,-1
 170 988 l 1,3,-1
 38 988 l 1,4,-1
 38 1184 l 1,5,-1
 1080 1184 l 1,6,-1
 1080 988 l 1,7,-1
 926 988 l 1,8,-1
 926 393 l 2,9,10
 926 262 926 262 952 223.5 c 128,-1,11
 978 185 978 185 1069 185 c 1,12,-1
 1055 -20 l 1,13,14
 935 -20 935 -20 855 -1.5 c 128,-1,15
 775 17 775 17 729 57 c 128,-1,16
 683 97 683 97 664.5 152 c 128,-1,17
 646 207 646 207 646 288 c 2,18,-1
 646 988 l 1,19,-1
 449 988 l 1,0,-1
EndSplineSet
EndChar

StartChar: plus
Encoding: 43 43 388
Width: 890
GlyphClass: 2
Flags: W
LayerCount: 2
UndoRedoHistory
Layer: 1
Undoes
EndUndoes
Redoes
EndRedoes
EndUndoRedoHistory
Fore
SplineSet
343 424 m 1,0,-1
 343 758 l 1,1,-1
 53 758 l 1,2,-1
 53 944 l 1,3,-1
 343 944 l 1,4,-1
 343 1274 l 1,5,-1
 540 1274 l 1,6,-1
 540 944 l 1,7,-1
 838 944 l 1,8,-1
 838 758 l 1,9,-1
 540 758 l 1,10,-1
 540 424 l 1,11,-1
 343 424 l 1,0,-1
EndSplineSet
EndChar

StartChar: plusminus
Encoding: 177 177 389
Width: 865
GlyphClass: 2
Flags: W
LayerCount: 2
UndoRedoHistory
Layer: 1
Undoes
EndUndoes
Redoes
EndRedoes
EndUndoRedoHistory
Fore
SplineSet
124 0 m 1,0,-1
 124 189 l 1,1,-1
 740 189 l 1,2,-1
 740 0 l 1,3,-1
 124 0 l 1,0,-1
337 365 m 1,4,-1
 337 581 l 1,5,-1
 124 581 l 1,6,-1
 124 767 l 1,7,-1
 337 767 l 1,8,-1
 337 983 l 1,9,-1
 528 983 l 1,10,-1
 528 767 l 1,11,-1
 740 767 l 1,12,-1
 740 581 l 1,13,-1
 528 581 l 1,14,-1
 528 365 l 1,15,-1
 337 365 l 1,4,-1
EndSplineSet
EndChar

StartChar: product
Encoding: 8719 8719 390
Width: 1188
GlyphClass: 2
Flags: W
LayerCount: 2
UndoRedoHistory
Layer: 1
Undoes
EndUndoes
Redoes
EndRedoes
EndUndoRedoHistory
Fore
SplineSet
117 -390 m 1,0,-1
 117 1658 l 1,1,-1
 1071 1658 l 1,2,-1
 1071 -390 l 1,3,-1
 795 -390 l 1,4,-1
 795 1442 l 1,5,-1
 393 1442 l 1,6,-1
 393 -390 l 1,7,-1
 117 -390 l 1,0,-1
EndSplineSet
EndChar

StartChar: q
Encoding: 113 113 391
Width: 971
GlyphClass: 2
Flags: W
LayerCount: 2
UndoRedoHistory
Layer: 1
Undoes
EndUndoes
Redoes
EndRedoes
EndUndoRedoHistory
Fore
SplineSet
476 181 m 0,0,1
 525 181 525 181 585 214 c 1,2,-1
 585 968 l 1,3,4
 528 1005 528 1005 475 1005 c 0,5,6
 418 1005 418 1005 393 954 c 128,-1,7
 368 903 368 903 368 824 c 2,8,-1
 368 390 l 2,9,10
 368 327 368 327 375.5 284.5 c 128,-1,11
 383 242 383 242 408 211.5 c 128,-1,12
 433 181 433 181 476 181 c 0,0,1
585 -390 m 1,13,-1
 585 83 l 1,14,15
 488 -18 488 -18 377 -19 c 1,16,17
 231 -19 231 -19 159.5 84 c 128,-1,18
 88 187 88 187 88 411 c 2,19,-1
 88 755 l 2,20,21
 88 831 88 831 96.5 894.5 c 128,-1,22
 105 958 105 958 125.5 1016 c 128,-1,23
 146 1074 146 1074 178 1114.5 c 128,-1,24
 210 1155 210 1155 259.5 1178.5 c 128,-1,25
 309 1202 309 1202 373 1202 c 0,26,27
 486 1202 486 1202 585 1108 c 1,28,-1
 585 1184 l 1,29,-1
 865 1184 l 1,30,-1
 865 -390 l 1,31,-1
 585 -390 l 1,13,-1
EndSplineSet
EndChar

StartChar: question
Encoding: 63 63 392
Width: 999
GlyphClass: 2
Flags: W
LayerCount: 2
UndoRedoHistory
Layer: 1
Undoes
EndUndoes
Redoes
EndRedoes
EndUndoRedoHistory
Fore
SplineSet
289 0 m 1,0,-1
 289 273 l 1,1,-1
 565 273 l 1,2,-1
 565 0 l 1,3,-1
 289 0 l 1,0,-1
299 425 m 1,4,-1
 299 684 l 1,5,6
 375 752 375 752 431 812 c 128,-1,7
 487 872 487 872 540.5 947 c 128,-1,8
 594 1022 594 1022 621.5 1103.5 c 128,-1,9
 649 1185 649 1185 647 1269 c 0,10,11
 645 1348 645 1348 601.5 1393.5 c 128,-1,12
 558 1439 558 1439 490 1439 c 0,13,14
 421 1439 421 1439 386 1395.5 c 128,-1,15
 351 1352 351 1352 359 1281 c 1,16,17
 359 1236 359 1236 374 1193 c 1,18,-1
 117 1141 l 1,19,20
 97 1227 97 1227 97 1256 c 1,21,22
 70 1447 70 1447 174 1564.5 c 128,-1,23
 278 1682 278 1682 487 1682 c 0,24,25
 697 1682 697 1682 810 1571 c 128,-1,26
 923 1460 923 1460 923 1259 c 0,27,28
 923 1164 923 1164 893.5 1074.5 c 128,-1,29
 864 985 864 985 807.5 904 c 128,-1,30
 751 823 751 823 692 759.5 c 128,-1,31
 633 696 633 696 551 622 c 1,32,-1
 551 425 l 1,33,-1
 299 425 l 1,4,-1
EndSplineSet
EndChar

StartChar: questiondown
Encoding: 191 191 393
Width: 1066
GlyphClass: 2
Flags: W
LayerCount: 2
UndoRedoHistory
Layer: 1
Undoes
EndUndoes
Redoes
EndRedoes
EndUndoRedoHistory
Fore
SplineSet
489 1032 m 1,0,-1
 489 1304 l 1,1,-1
 765 1304 l 1,2,-1
 765 1032 l 1,3,-1
 489 1032 l 1,0,-1
567 -378 m 128,-1,5
 358 -378 358 -378 245 -267 c 128,-1,6
 132 -156 132 -156 132 45 c 0,7,8
 132 140 132 140 161.5 230 c 128,-1,9
 191 320 191 320 247 400.5 c 128,-1,10
 303 481 303 481 362 545 c 128,-1,11
 421 609 421 609 503 682 c 1,12,-1
 503 880 l 1,13,-1
 756 880 l 1,14,-1
 756 620 l 1,15,16
 680 553 680 553 623.5 492.5 c 128,-1,17
 567 432 567 432 513.5 357.5 c 128,-1,18
 460 283 460 283 432.5 201 c 128,-1,19
 405 119 405 119 408 36 c 1,20,21
 409 -43 409 -43 452.5 -89 c 128,-1,22
 496 -135 496 -135 565 -135 c 128,-1,23
 634 -135 634 -135 669 -91.5 c 128,-1,24
 704 -48 704 -48 696 23 c 1,25,26
 696 37 696 37 690.5 67.5 c 128,-1,27
 685 98 685 98 680 111 c 1,28,-1
 937 164 l 1,29,30
 958 83 958 83 958 48 c 1,31,32
 984 -143 984 -143 880 -260.5 c 128,-1,4
 776 -378 776 -378 567 -378 c 128,-1,5
EndSplineSet
EndChar

StartChar: quotedbl
Encoding: 34 34 394
Width: 763
GlyphClass: 2
Flags: W
LayerCount: 2
UndoRedoHistory
Layer: 1
Undoes
EndUndoes
Redoes
EndRedoes
EndUndoRedoHistory
Fore
SplineSet
466 1100 m 1,0,-1
 466 1658 l 1,1,-1
 710 1658 l 1,2,-1
 605 1100 l 1,3,-1
 466 1100 l 1,0,-1
124 1100 m 1,4,-1
 124 1658 l 1,5,-1
 367 1658 l 1,6,-1
 263 1100 l 1,7,-1
 124 1100 l 1,4,-1
EndSplineSet
EndChar

StartChar: quotedblbase
Encoding: 8222 8222 395
Width: 974
GlyphClass: 2
Flags: W
LayerCount: 2
UndoRedoHistory
Layer: 1
Undoes
EndUndoes
Redoes
EndRedoes
EndUndoRedoHistory
Fore
SplineSet
655 -251 m 1,0,-1
 623 -155 l 1,1,2
 691 -155 691 -155 716 -104.5 c 128,-1,3
 741 -54 741 -54 741 57 c 1,4,-1
 614 57 l 1,5,-1
 614 319 l 1,6,-1
 888 319 l 1,7,8
 888 126 888 126 887 104 c 0,9,10
 884 -77 884 -77 832 -164 c 128,-1,11
 780 -251 780 -251 655 -251 c 1,0,-1
214 -251 m 1,12,-1
 182 -155 l 1,13,14
 250 -155 250 -155 275 -104.5 c 128,-1,15
 300 -54 300 -54 300 57 c 1,16,-1
 173 57 l 1,17,-1
 173 319 l 1,18,-1
 447 319 l 1,19,20
 447 126 447 126 446 104 c 0,21,22
 443 -77 443 -77 391 -164 c 128,-1,23
 339 -251 339 -251 214 -251 c 1,12,-1
EndSplineSet
EndChar

StartChar: quotedblleft
Encoding: 8220 8220 396
Width: 970
GlyphClass: 2
Flags: W
LayerCount: 2
UndoRedoHistory
Layer: 1
Undoes
EndUndoes
Redoes
EndRedoes
EndUndoRedoHistory
Fore
SplineSet
550 1136 m 1,0,1
 550 1329 550 1329 551 1351 c 0,2,3
 554 1532 554 1532 606 1619 c 128,-1,4
 658 1706 658 1706 783 1706 c 1,5,-1
 815 1610 l 1,6,7
 747 1610 747 1610 722 1559.5 c 128,-1,8
 697 1509 697 1509 697 1398 c 1,9,-1
 824 1398 l 1,10,-1
 824 1136 l 1,11,-1
 550 1136 l 1,0,1
109 1136 m 1,12,13
 109 1329 109 1329 110 1351 c 0,14,15
 113 1532 113 1532 165 1619 c 128,-1,16
 217 1706 217 1706 342 1706 c 1,17,-1
 374 1610 l 1,18,19
 306 1610 306 1610 281 1559.5 c 128,-1,20
 256 1509 256 1509 256 1398 c 1,21,-1
 383 1398 l 1,22,-1
 383 1136 l 1,23,-1
 109 1136 l 1,12,13
EndSplineSet
EndChar

StartChar: quotedblright
Encoding: 8221 8221 397
Width: 970
GlyphClass: 2
Flags: W
LayerCount: 2
UndoRedoHistory
Layer: 1
Undoes
EndUndoes
Redoes
EndRedoes
EndUndoRedoHistory
Fore
SplineSet
614 1087 m 1,0,-1
 582 1183 l 1,1,2
 650 1183 650 1183 675.5 1234 c 128,-1,3
 701 1285 701 1285 701 1396 c 1,4,-1
 573 1396 l 1,5,-1
 573 1657 l 1,6,-1
 847 1657 l 1,7,8
 847 1465 847 1465 846 1443 c 0,9,10
 843 1262 843 1262 791 1174.5 c 128,-1,11
 739 1087 739 1087 614 1087 c 1,0,-1
212 1087 m 1,12,-1
 179 1183 l 1,13,14
 247 1183 247 1183 272.5 1234 c 128,-1,15
 298 1285 298 1285 298 1396 c 1,16,-1
 170 1396 l 1,17,-1
 170 1657 l 1,18,-1
 444 1657 l 1,19,20
 444 1465 444 1465 443 1443 c 0,21,22
 440 1262 440 1262 388.5 1174.5 c 128,-1,23
 337 1087 337 1087 212 1087 c 1,12,-1
EndSplineSet
EndChar

StartChar: quoteleft
Encoding: 8216 8216 398
Width: 745
GlyphClass: 2
Flags: W
LayerCount: 2
UndoRedoHistory
Layer: 1
Undoes
EndUndoes
Redoes
EndRedoes
EndUndoRedoHistory
Fore
SplineSet
109 1136 m 1,0,1
 109 1329 109 1329 110 1351 c 0,2,3
 113 1532 113 1532 165 1619 c 128,-1,4
 217 1706 217 1706 342 1706 c 1,5,-1
 374 1610 l 1,6,7
 306 1610 306 1610 281 1559.5 c 128,-1,8
 256 1509 256 1509 256 1398 c 1,9,-1
 383 1398 l 1,10,-1
 383 1136 l 1,11,-1
 109 1136 l 1,0,1
EndSplineSet
EndChar

StartChar: quoteright
Encoding: 8217 8217 399
Width: 456
GlyphClass: 2
Flags: W
LayerCount: 2
UndoRedoHistory
Layer: 1
Undoes
EndUndoes
Redoes
EndRedoes
EndUndoRedoHistory
Fore
SplineSet
166 1088 m 1,0,-1
 133 1184 l 1,1,2
 201 1184 201 1184 226.5 1234.5 c 128,-1,3
 252 1285 252 1285 252 1396 c 1,4,-1
 125 1396 l 1,5,-1
 125 1658 l 1,6,-1
 399 1658 l 1,7,8
 399 1487 399 1487 397 1443 c 1,9,10
 394 1263 394 1263 342 1175.5 c 128,-1,11
 290 1088 290 1088 166 1088 c 1,0,-1
EndSplineSet
EndChar

StartChar: quotesinglbase
Encoding: 8218 8218 400
Width: 572
GlyphClass: 2
Flags: W
LayerCount: 2
UndoRedoHistory
Layer: 1
Undoes
EndUndoes
Redoes
EndRedoes
EndUndoRedoHistory
Fore
SplineSet
220 -253 m 1,0,-1
 188 -157 l 1,1,2
 256 -157 256 -157 281 -106.5 c 128,-1,3
 306 -56 306 -56 306 55 c 1,4,-1
 179 55 l 1,5,-1
 179 317 l 1,6,-1
 453 317 l 1,7,8
 453 124 453 124 452 102 c 0,9,10
 449 -79 449 -79 397 -166 c 128,-1,11
 345 -253 345 -253 220 -253 c 1,0,-1
EndSplineSet
EndChar

StartChar: quotesingle
Encoding: 39 39 401
Width: 653
GlyphClass: 2
Flags: W
LayerCount: 2
UndoRedoHistory
Layer: 1
Undoes
EndUndoes
Redoes
EndRedoes
EndUndoRedoHistory
Fore
SplineSet
138 1100 m 1,0,-1
 138 1658 l 1,1,-1
 376 1658 l 1,2,-1
 281 1100 l 1,3,-1
 138 1100 l 1,0,-1
EndSplineSet
EndChar

StartChar: r
Encoding: 114 114 402
Width: 710
GlyphClass: 2
Flags: W
LayerCount: 2
UndoRedoHistory
Layer: 1
Undoes
EndUndoes
Redoes
EndRedoes
EndUndoRedoHistory
Fore
SplineSet
111 0 m 1,0,-1
 111 1184 l 1,1,-1
 391 1184 l 1,2,-1
 391 1002 l 1,3,4
 450 1107 450 1107 510.5 1153 c 128,-1,5
 571 1199 571 1199 640 1199 c 0,6,7
 661 1199 661 1199 682 1194 c 1,8,-1
 682 917 l 1,9,10
 635 935 635 935 585 935 c 1,11,12
 525 933 525 933 479.5 905 c 128,-1,13
 434 877 434 877 391 812 c 1,14,-1
 391 0 l 1,15,-1
 111 0 l 1,0,-1
EndSplineSet
EndChar

StartChar: radical
Encoding: 8730 8730 404
Width: 1116
GlyphClass: 2
Flags: W
LayerCount: 2
UndoRedoHistory
Layer: 1
Undoes
EndUndoes
Redoes
EndRedoes
EndUndoRedoHistory
Fore
SplineSet
461 0 m 1,0,-1
 256 1015 l 1,1,-1
 18 1013 l 1,2,-1
 18 1184 l 1,3,-1
 484 1184 l 1,4,-1
 553 809 l 1,5,-1
 615 393 l 1,6,-1
 675 809 l 1,7,-1
 814 1658 l 1,8,-1
 1091 1658 l 1,9,-1
 766 0 l 1,10,-1
 461 0 l 1,0,-1
EndSplineSet
EndChar

